<svg width="231" height="154" viewBox="0 0 231 154" fill="none" xmlns="http://www.w3.org/2000/svg">
<path d="M142.758 46.2709C136.29 40.8655 127.417 33.4119 119.787 26.9562C112.141 20.4488 102.28 17.1394 92.2553 17.7162C81.1087 18.3999 67.221 22.2961 57.3927 35.4909C38.3306 61.0764 46.8437 120.945 83.5727 132.243C120.302 143.54 153.384 134.935 172.945 116.196C192.506 97.4574 190.11 61.8741 180.778 57.596C175.942 55.3692 168.319 54.4267 162.091 54.0325C154.985 53.5699 148.212 50.8507 142.758 46.2709Z" fill="#657EFF"/>
<path opacity="0.7" d="M142.758 45.9629C136.29 40.5575 127.417 33.1039 119.787 26.6482C112.141 20.1408 102.28 16.8314 92.2553 17.4082C81.1087 18.0919 67.221 21.9881 57.3927 35.1829C38.3306 60.7684 46.8437 120.637 83.5727 131.935C120.302 143.232 153.384 134.627 172.945 115.888C192.506 97.1494 190.11 61.5661 180.778 57.288C175.942 55.0612 168.319 54.1187 162.091 53.7244C154.985 53.2619 148.212 50.5427 142.758 45.9629Z" fill="white"/>
<path d="M123.816 66.5527C120.994 64.6588 117.611 63.7807 114.224 64.0622C110.837 64.3438 107.646 65.7684 105.175 68.1023C102.704 70.4362 101.099 73.5407 100.625 76.9064C100.15 80.2721 100.834 83.6991 102.564 86.625" stroke="#263238" stroke-width="0.969642" stroke-linecap="round" stroke-linejoin="round"/>
<path d="M129.144 72.9098C128.853 72.2535 128.515 71.6184 128.134 71.0094" stroke="#263238" stroke-width="0.969642" stroke-linecap="round" stroke-linejoin="round"/>
<path d="M127.866 87.355C128.983 85.6927 129.757 83.824 130.142 81.8586C130.527 79.8932 130.516 77.8706 130.108 75.9097" stroke="#263238" stroke-width="0.969642" stroke-linecap="round" stroke-linejoin="round"/>
<path d="M100.565 64.101C99.546 65.1235 98.6328 66.2462 97.8392 67.452" stroke="#263238" stroke-width="0.969642" stroke-linecap="round" stroke-linejoin="round"/>
<path d="M132.077 91.8549C135.092 87.9569 136.644 83.1241 136.461 78.1993C136.278 73.2745 134.371 68.5702 131.075 64.9069C127.778 61.2436 123.3 58.8538 118.422 58.1544C113.543 57.4549 108.574 58.4901 104.381 61.0795" stroke="#263238" stroke-width="0.969642" stroke-linecap="round" stroke-linejoin="round"/>
<path d="M98.7694 91.8549C96.6892 89.1623 95.2912 86.0064 94.6948 82.6566C94.0984 79.3067 94.3213 75.8622 95.3445 72.6172" stroke="#263238" stroke-width="0.969642" stroke-linecap="round" stroke-linejoin="round"/>
<path d="M92.1752 97.174C93.4841 98.8457 94.969 100.372 96.6042 101.726" stroke="#263238" stroke-width="0.969642" stroke-linecap="round" stroke-linejoin="round"/>
<path d="M132.15 54.6176C126.878 51.0068 120.576 49.2029 114.191 49.4765C107.807 49.7501 101.683 52.0864 96.7381 56.1351C91.7934 60.1837 88.2948 65.7263 86.7668 71.9317C85.2389 78.137 85.7641 84.6704 88.2636 90.552" stroke="#263238" stroke-width="0.969642" stroke-linecap="round" stroke-linejoin="round"/>
<path d="M142.992 68.3083C142.198 66.2619 141.179 64.3104 139.952 62.4901" stroke="#263238" stroke-width="0.969642" stroke-linecap="round" stroke-linejoin="round"/>
<path d="M135.859 100.319C138.745 97.5648 141.042 94.2531 142.61 90.5845C144.178 86.9158 144.984 82.9669 144.979 78.9774" stroke="#263238" stroke-width="0.969642" stroke-linecap="round" stroke-linejoin="round"/>
<path d="M74.1664 78.9774C74.1664 88.7785 77.6369 98.2629 83.9625 105.749C90.2882 113.236 99.0604 118.241 108.724 119.877" stroke="#263238" stroke-width="0.969642" stroke-linecap="round" stroke-linejoin="round"/>
<path d="M148.764 103.657C153.817 96.8205 156.647 88.5964 156.873 80.0979C157.098 71.5995 154.707 63.237 150.024 56.1418C145.341 49.0466 138.591 43.5612 130.688 40.4279C122.785 37.2947 114.111 36.6647 105.838 38.6232" stroke="#263238" stroke-width="0.969642" stroke-linecap="round" stroke-linejoin="round"/>
<path d="M74.1664 78.9774C74.1667 69.6796 77.2903 60.6515 83.0358 53.3415C88.7814 46.0315 96.8159 40.8634 105.85 38.6663" stroke="#263238" stroke-width="0.969642" stroke-linecap="round" stroke-linejoin="round"/>
<path d="M139.952 112.42C141.006 111.646 142.019 110.825 142.992 109.956" stroke="#263238" stroke-width="0.969642" stroke-linecap="round" stroke-linejoin="round"/>
<path d="M122.341 119.877C127.057 119.087 131.6 117.482 135.766 115.133" stroke="#263238" stroke-width="0.969642" stroke-linecap="round" stroke-linejoin="round"/>
<path d="M115.441 116.162C111.241 116.157 107.214 114.487 104.244 111.516C101.274 108.546 99.6028 104.519 99.5979 100.319V94.9841C99.5979 94.7554 99.6888 94.5361 99.8505 94.3743C100.012 94.2126 100.232 94.1217 100.46 94.1217H102.616C102.845 94.1217 103.064 94.2126 103.226 94.3743C103.388 94.5361 103.479 94.7554 103.479 94.9841C103.479 95.2129 103.388 95.4322 103.226 95.5939C103.064 95.7557 102.845 95.8465 102.616 95.8465H101.332V100.319C101.332 104.063 102.819 107.654 105.467 110.302C108.115 112.95 111.706 114.437 115.451 114.437C119.195 114.437 122.786 112.95 125.434 110.302C128.082 107.654 129.569 104.063 129.569 100.319V95.8465H128.276C128.047 95.8465 127.828 95.7557 127.666 95.5939C127.504 95.4322 127.413 95.2129 127.413 94.9841C127.413 94.7554 127.504 94.5361 127.666 94.3743C127.828 94.2126 128.047 94.1217 128.276 94.1217H130.432C130.661 94.1217 130.88 94.2126 131.042 94.3743C131.203 94.5361 131.294 94.7554 131.294 94.9841V100.319C131.289 104.521 129.617 108.549 126.645 111.52C123.673 114.49 119.643 116.16 115.441 116.162Z" fill="#263238"/>
<path d="M132.147 129.419V127.694C132.148 127.467 132.104 127.243 132.017 127.033C131.93 126.824 131.803 126.633 131.643 126.473C131.483 126.313 131.293 126.186 131.083 126.099C130.874 126.013 130.649 125.969 130.423 125.969H100.46C100.234 125.969 100.009 126.013 99.7999 126.099C99.5904 126.186 99.4001 126.313 99.2399 126.473C99.0796 126.633 98.9526 126.824 98.8661 127.033C98.7795 127.243 98.7352 127.467 98.7356 127.694V129.419H132.147Z" fill="#263238"/>
<path d="M117.123 128.069C117.152 127.946 117.166 127.82 117.166 127.694V115.3H113.717V127.694C113.717 127.82 113.731 127.946 113.76 128.069H117.123Z" fill="#263238"/>
<path d="M126.111 78.9774C126.135 77.5608 125.876 76.1537 125.351 74.838C124.826 73.5222 124.043 72.3243 123.05 71.3141C122.057 70.3038 120.872 69.5014 119.566 68.9537C118.259 68.406 116.857 68.1239 115.44 68.1239C114.023 68.1239 112.621 68.406 111.314 68.9537C110.007 69.5014 108.823 70.3038 107.83 71.3141C106.836 72.3243 106.054 73.5222 105.529 74.838C105.003 76.1537 104.745 77.5608 104.769 78.9774V100.319C104.817 103.117 105.962 105.785 107.958 107.748C109.954 109.71 112.641 110.81 115.44 110.81C118.239 110.81 120.926 109.71 122.922 107.748C124.918 105.785 126.063 103.117 126.111 100.319V78.9774Z" stroke="#263238" stroke-width="0.969642" stroke-linecap="round" stroke-linejoin="round"/>
<path d="M126.111 78.9774C126.135 77.5608 125.876 76.1537 125.351 74.838C124.826 73.5222 124.043 72.3243 123.05 71.3141C122.057 70.3038 120.872 69.5014 119.566 68.9537C118.259 68.406 116.857 68.1239 115.44 68.1239C114.023 68.1239 112.621 68.406 111.314 68.9537C110.007 69.5014 108.823 70.3038 107.83 71.3141C106.836 72.3243 106.054 73.5222 105.529 74.838C105.003 76.1537 104.745 77.5608 104.769 78.9774V100.319C104.817 103.117 105.962 105.785 107.958 107.748C109.954 109.71 112.641 110.81 115.44 110.81C118.239 110.81 120.926 109.71 122.922 107.748C124.918 105.785 126.063 103.117 126.111 100.319V78.9774Z" fill="#657EFF"/>
<mask id="mask0_12_411" style="mask-type:luminance" maskUnits="userSpaceOnUse" x="104" y="68" width="23" height="43">
<path d="M126.111 78.9774C126.135 77.5608 125.876 76.1537 125.351 74.838C124.826 73.5222 124.043 72.3243 123.05 71.3141C122.057 70.3038 120.872 69.5014 119.566 68.9537C118.259 68.406 116.857 68.1239 115.44 68.1239C114.023 68.1239 112.621 68.406 111.314 68.9537C110.007 69.5014 108.823 70.3038 107.83 71.3141C106.836 72.3243 106.054 73.5222 105.529 74.838C105.003 76.1537 104.745 77.5608 104.769 78.9774V100.319C104.817 103.117 105.962 105.785 107.958 107.748C109.954 109.71 112.641 110.81 115.44 110.81C118.239 110.81 120.926 109.71 122.922 107.748C124.918 105.785 126.063 103.117 126.111 100.319V78.9774Z" fill="white"/>
</mask>
<g mask="url(#mask0_12_411)">
<path d="M111.022 80.1016H104.769V82.6888H111.022C111.365 82.6888 111.694 82.5525 111.936 82.3099C112.179 82.0673 112.315 81.7382 112.315 81.3952C112.315 81.0521 112.179 80.723 111.936 80.4804C111.694 80.2378 111.365 80.1016 111.022 80.1016Z" fill="white"/>
<path d="M126.111 80.1016H119.861C119.518 80.1016 119.189 80.2378 118.947 80.4804C118.704 80.723 118.568 81.0521 118.568 81.3952C118.568 81.7382 118.704 82.0673 118.947 82.3099C119.189 82.5525 119.518 82.6888 119.861 82.6888H126.111V80.1016Z" fill="white"/>
<path d="M115.442 80.1016C115.186 80.1016 114.936 80.1774 114.723 80.3196C114.51 80.4617 114.344 80.6637 114.246 80.9001C114.149 81.1365 114.123 81.3966 114.173 81.6475C114.223 81.8985 114.346 82.129 114.527 82.3099C114.708 82.4908 114.938 82.614 115.189 82.6639C115.44 82.7138 115.7 82.6882 115.937 82.5903C116.173 82.4924 116.375 82.3266 116.517 82.1138C116.659 81.9011 116.735 81.651 116.735 81.3952C116.735 81.0521 116.599 80.723 116.356 80.4804C116.114 80.2378 115.785 80.1016 115.442 80.1016Z" fill="white"/>
<path d="M115.442 85.3314C115.186 85.3314 114.936 85.4073 114.723 85.5494C114.51 85.6915 114.344 85.8936 114.246 86.13C114.149 86.3663 114.123 86.6264 114.173 86.8774C114.223 87.1283 114.346 87.3588 114.527 87.5397C114.708 87.7206 114.938 87.8438 115.189 87.8937C115.44 87.9437 115.7 87.918 115.937 87.8201C116.173 87.7222 116.375 87.5564 116.517 87.3437C116.659 87.131 116.735 86.8808 116.735 86.625C116.735 86.2819 116.599 85.9529 116.356 85.7103C116.114 85.4677 115.785 85.3314 115.442 85.3314Z" fill="white"/>
<path d="M115.442 90.552C115.186 90.552 114.936 90.6279 114.723 90.77C114.51 90.9122 114.344 91.1142 114.246 91.3506C114.149 91.5869 114.123 91.847 114.173 92.098C114.223 92.3489 114.346 92.5794 114.527 92.7603C114.708 92.9412 114.938 93.0644 115.189 93.1143C115.44 93.1643 115.7 93.1386 115.937 93.0407C116.173 92.9428 116.375 92.777 116.517 92.5643C116.659 92.3516 116.735 92.1015 116.735 91.8456C116.735 91.5025 116.599 91.1735 116.356 90.9309C116.114 90.6883 115.785 90.552 115.442 90.552Z" fill="white"/>
<path d="M111.022 85.3314H104.769V87.9186H111.022C111.365 87.9186 111.694 87.7823 111.936 87.5397C112.179 87.2971 112.315 86.9681 112.315 86.625C112.315 86.2819 112.179 85.9529 111.936 85.7103C111.694 85.4677 111.365 85.3314 111.022 85.3314Z" fill="white"/>
<path d="M126.111 85.3314H119.861C119.518 85.3314 119.189 85.4677 118.947 85.7103C118.704 85.9529 118.568 86.2819 118.568 86.625C118.568 86.9681 118.704 87.2971 118.947 87.5397C119.189 87.7823 119.518 87.9186 119.861 87.9186H126.111V85.3314Z" fill="white"/>
<path d="M111.022 90.552H104.769V93.1392H111.022C111.365 93.1392 111.694 93.0029 111.936 92.7603C112.179 92.5177 112.315 92.1887 112.315 91.8456C112.315 91.5025 112.179 91.1735 111.936 90.9309C111.694 90.6883 111.365 90.552 111.022 90.552Z" fill="white"/>
<path d="M126.111 90.552H119.861C119.518 90.552 119.189 90.6883 118.947 90.9309C118.704 91.1735 118.568 91.5025 118.568 91.8456C118.568 92.1887 118.704 92.5177 118.947 92.7603C119.189 93.0029 119.518 93.1392 119.861 93.1392H126.111V90.552Z" fill="white"/>
</g>
<path d="M126.111 78.9774C126.135 77.5608 125.876 76.1537 125.351 74.838C124.826 73.5222 124.043 72.3243 123.05 71.3141C122.057 70.3038 120.872 69.5014 119.566 68.9537C118.259 68.406 116.857 68.1239 115.44 68.1239C114.023 68.1239 112.621 68.406 111.314 68.9537C110.007 69.5014 108.823 70.3038 107.83 71.3141C106.836 72.3243 106.054 73.5222 105.529 74.838C105.003 76.1537 104.745 77.5608 104.769 78.9774V100.319C104.817 103.117 105.962 105.785 107.958 107.748C109.954 109.71 112.641 110.81 115.44 110.81C118.239 110.81 120.926 109.71 122.922 107.748C124.918 105.785 126.063 103.117 126.111 100.319V78.9774Z" stroke="#263238" stroke-width="0.969642" stroke-miterlimit="10"/>
<path d="M104.769 100.319C104.817 103.117 105.962 105.785 107.958 107.748C109.954 109.71 112.641 110.81 115.44 110.81C118.239 110.81 120.926 109.71 122.922 107.748C124.918 105.785 126.063 103.117 126.111 100.319H104.769Z" fill="#263238" stroke="#263238" stroke-width="0.969642" stroke-miterlimit="10"/>
<path d="M205.953 94.9434C219.278 81.6186 219.278 60.0149 205.953 46.6901C192.628 33.3653 171.025 33.3653 157.7 46.6901C144.375 60.0149 144.375 81.6186 157.7 94.9434C171.025 108.268 192.628 108.268 205.953 94.9434Z" fill="#657EFF"/>
<path d="M176.934 56.6997H153.098C151.897 56.6997 150.923 57.6733 150.923 58.8742V82.7103C150.923 83.9113 151.897 84.8848 153.098 84.8848H176.934C178.135 84.8848 179.108 83.9113 179.108 82.7103V58.8742C179.108 57.6733 178.135 56.6997 176.934 56.6997Z" fill="white"/>
<g opacity="0.1">
<path d="M153.581 84.8879H162.987L168.981 56.6997H159.193L153.208 84.8571C153.332 84.8767 153.456 84.8869 153.581 84.8879Z" fill="black"/>
<path d="M172.967 56.6997H170.613L164.623 84.8879H166.976L172.967 56.6997Z" fill="black"/>
</g>
<path d="M176.45 85.5901H153.581C152.691 85.5885 151.839 85.2348 151.209 84.6063C150.579 83.9778 150.224 83.1257 150.221 82.236V59.3578C150.222 58.4671 150.577 57.6133 151.207 56.9835C151.837 56.3537 152.69 55.9991 153.581 55.9975H176.45C177.341 55.9983 178.196 56.3525 178.826 56.9824C179.457 57.6123 179.812 58.4665 179.813 59.3578V82.236C179.81 83.1262 179.455 83.9788 178.824 84.6074C178.194 85.236 177.34 85.5893 176.45 85.5901ZM153.581 57.4051C153.063 57.4051 152.566 57.6107 152.199 57.9768C151.833 58.3429 151.626 58.8396 151.625 59.3578V82.236C151.625 82.755 151.831 83.2528 152.198 83.6201C152.565 83.9873 153.062 84.1941 153.581 84.1949H176.45C176.707 84.1949 176.962 84.1442 177.199 84.0457C177.437 83.9472 177.652 83.8029 177.834 83.621C178.016 83.439 178.16 83.2231 178.258 82.9854C178.356 82.7478 178.406 82.4931 178.406 82.236V59.3578C178.406 59.1011 178.355 58.8469 178.257 58.6098C178.159 58.3727 178.015 58.1573 177.833 57.9759C177.651 57.7945 177.436 57.6508 177.198 57.5528C176.961 57.4549 176.707 57.4047 176.45 57.4051H153.581Z" fill="white" stroke="#263238" stroke-width="0.932567" stroke-miterlimit="10"/>
<path d="M210.084 56.6997H186.248C185.047 56.6997 184.073 57.6733 184.073 58.8742V82.7103C184.073 83.9113 185.047 84.8848 186.248 84.8848H210.084C211.285 84.8848 212.258 83.9113 212.258 82.7103V58.8742C212.258 57.6733 211.285 56.6997 210.084 56.6997Z" fill="white"/>
<g opacity="0.1">
<path d="M189.192 84.8879H198.598L204.589 56.6997H194.804L188.804 84.8571C188.932 84.8773 189.062 84.8876 189.192 84.8879Z" fill="black"/>
<path d="M208.578 56.6997H206.224L200.231 84.8879H202.587L208.578 56.6997Z" fill="black"/>
</g>
<path d="M209.6 85.5901H186.731C185.842 85.5885 184.989 85.2348 184.359 84.6063C183.729 83.9778 183.374 83.1257 183.371 82.236V59.3578C183.372 58.4671 183.727 57.6133 184.357 56.9835C184.987 56.3537 185.84 55.9991 186.731 55.9975H209.6C210.491 55.9983 211.346 56.3525 211.976 56.9824C212.607 57.6123 212.962 58.4665 212.963 59.3578V82.236C212.96 83.1262 212.605 83.9788 211.974 84.6074C211.344 85.236 210.49 85.5893 209.6 85.5901ZM186.731 57.4051C186.213 57.4051 185.716 57.6107 185.349 57.9768C184.983 58.3429 184.776 58.8396 184.775 59.3578V82.236C184.775 82.755 184.981 83.2528 185.348 83.6201C185.715 83.9873 186.212 84.1941 186.731 84.1949H209.6C209.857 84.1949 210.112 84.1442 210.349 84.0457C210.587 83.9472 210.803 83.8029 210.984 83.621C211.166 83.439 211.31 83.2231 211.408 82.9854C211.506 82.7478 211.556 82.4931 211.556 82.236V59.3578C211.556 59.1011 211.505 58.8469 211.407 58.6098C211.309 58.3727 211.165 58.1573 210.983 57.9759C210.801 57.7945 210.586 57.6508 210.348 57.5528C210.111 57.4549 209.857 57.4047 209.6 57.4051H186.731Z" fill="white" stroke="#263238" stroke-width="0.932567" stroke-miterlimit="10"/>
<path d="M182.749 136.589C191.225 136.589 198.096 135.578 198.096 134.331C198.096 133.084 191.225 132.073 182.749 132.073C174.273 132.073 167.401 133.084 167.401 134.331C167.401 135.578 174.273 136.589 182.749 136.589Z" fill="#657EFF"/>
<path d="M189.531 121.18C189.531 121.18 189.491 127.503 188.822 128.544C188.025 129.776 187.458 131.498 189.571 131.966C191.684 132.434 192.94 134.765 195.457 134.919C197.973 135.073 198.229 133.995 197.132 133.13C196.036 132.264 193.251 129.865 192.885 128.698C192.518 127.53 193.23 121.18 193.23 121.18H189.531Z" fill="white"/>
<mask id="mask1_12_411" style="mask-type:luminance" maskUnits="userSpaceOnUse" x="188" y="121" width="10" height="14">
<path d="M189.531 121.18C189.531 121.18 189.491 127.503 188.822 128.544C188.025 129.776 187.458 131.498 189.571 131.966C191.684 132.434 192.94 134.765 195.457 134.919C197.973 135.073 198.229 133.995 197.132 133.13C196.036 132.264 193.251 129.865 192.885 128.698C192.518 127.53 193.23 121.18 193.23 121.18H189.531Z" fill="white"/>
</mask>
<g mask="url(#mask1_12_411)">
<path opacity="0.1" d="M192.894 124.851C193.03 122.987 193.23 121.18 193.23 121.18H189.534C189.534 121.18 189.534 122.797 189.426 124.531C190.571 124.733 191.731 124.84 192.894 124.851Z" fill="black"/>
</g>
<path d="M189.531 121.18C189.531 121.18 189.491 127.503 188.822 128.544C188.025 129.776 187.458 131.498 189.571 131.966C191.684 132.434 192.94 134.765 195.457 134.919C197.973 135.073 198.229 133.995 197.132 133.13C196.036 132.264 193.251 129.865 192.885 128.698C192.518 127.53 193.23 121.18 193.23 121.18H189.531Z" stroke="#263238" stroke-width="0.932567" stroke-linecap="round" stroke-linejoin="round"/>
<path d="M197.12 133.13C196.093 132.316 195.118 131.439 194.2 130.503C193.322 131.168 190.751 130.54 189.993 129.942C189.069 129.215 189.263 128.843 188.826 128.516L188.81 128.544C188.012 129.776 187.446 131.498 189.559 131.966C191.671 132.434 192.928 134.765 195.444 134.919C197.961 135.073 198.223 133.98 197.12 133.13Z" fill="#BFBFBF" stroke="#263238" stroke-width="0.932567" stroke-miterlimit="10"/>
<path d="M175.323 118.888C175.323 118.888 172.551 124.672 171.504 125.378C170.238 126.221 168.981 127.58 170.715 128.79C172.449 130.001 172.603 132.606 174.842 133.681C177.081 134.756 177.781 133.848 177.149 132.662C176.518 131.476 174.993 128.23 175.163 127.022C175.332 125.815 178.742 120.12 178.742 120.12L175.323 118.888Z" fill="white"/>
<mask id="mask2_12_411" style="mask-type:luminance" maskUnits="userSpaceOnUse" x="169" y="118" width="10" height="17">
<path d="M175.323 118.888C175.323 118.888 172.551 124.672 171.504 125.378C170.238 126.221 168.981 127.58 170.715 128.79C172.449 130.001 172.603 132.606 174.842 133.681C177.081 134.756 177.781 133.848 177.149 132.662C176.518 131.476 174.993 128.23 175.163 127.022C175.332 125.815 178.742 120.12 178.742 120.12L175.323 118.888Z" fill="white"/>
</mask>
<g mask="url(#mask2_12_411)">
<path opacity="0.1" d="M175.323 118.888C175.323 118.888 174.331 120.964 173.312 122.778C174.135 123.594 175.083 124.273 176.12 124.789C177.183 122.732 178.742 120.129 178.742 120.129L175.323 118.888Z" fill="black"/>
</g>
<path d="M175.323 118.888C175.323 118.888 172.551 124.672 171.504 125.378C170.238 126.221 168.981 127.58 170.715 128.79C172.449 130.001 172.603 132.606 174.842 133.681C177.081 134.756 177.781 133.848 177.149 132.662C176.518 131.476 174.993 128.23 175.163 127.022C175.332 125.815 178.742 120.12 178.742 120.12L175.323 118.888Z" stroke="#263238" stroke-width="0.932567" stroke-linecap="round" stroke-linejoin="round"/>
<path d="M177.149 132.646C176.559 131.518 176.045 130.351 175.609 129.154C174.516 129.44 172.243 127.977 171.993 127.084C171.51 125.362 171.796 125.806 171.534 125.344L171.51 125.362C170.244 126.206 168.987 127.564 170.721 128.775C172.455 129.985 172.609 132.591 174.849 133.666C177.088 134.741 177.781 133.832 177.149 132.646Z" fill="#BFBFBF" stroke="#263238" stroke-width="0.932567" stroke-miterlimit="10"/>
<path d="M189.977 77.9579C189.977 77.9579 194.219 98.2859 194.502 104.917C194.785 111.548 193.683 123.376 193.683 123.376L188.973 123.068C188.973 123.068 188.943 119.572 188.471 114.705C188.191 111.813 187.31 108.438 187.409 105.025C187.409 105.025 182.934 91.7532 183.097 85.9289C183.26 80.1047 183.097 78.4291 183.097 78.4291L189.977 77.9579Z" fill="#263238" stroke="#263238" stroke-width="0.932567" stroke-linecap="round" stroke-linejoin="round"/>
<path d="M178.64 77.9579C178.64 77.9579 174.242 81.5923 176.792 88.9196C177.796 91.8271 181.671 105.127 181.671 105.127C180.606 106.344 179.705 107.695 178.991 109.146C177.223 112.639 175.936 118.078 173.755 121.198L176.983 123.376C176.983 123.376 187.406 110.31 188.071 106.161C188.736 102.013 185.607 85.4238 185.607 85.4238L184.606 78.6817L178.64 77.9579Z" fill="#263238" stroke="#263238" stroke-width="0.932567" stroke-linecap="round" stroke-linejoin="round"/>
<path d="M198.146 64.181C198.088 63.4926 197.856 62.8302 197.471 62.256C197.794 61.8311 198.074 61.3751 198.306 60.8947C198.54 60.331 198.229 59.5333 197.579 60.4881C196.929 61.4429 196.215 62.139 196.473 63.331C196.609 64.1005 196.47 64.8933 196.079 65.5701L197.579 66.7436L200.57 64.372L198.146 64.181Z" fill="white" stroke="#263238" stroke-width="0.932567" stroke-linecap="round" stroke-linejoin="round"/>
<path d="M199.554 58.0885L197.04 58.7721C196.809 58.8351 196.672 59.0737 196.735 59.3051L198.168 64.5747C198.231 64.8061 198.469 64.9428 198.701 64.8798L201.215 64.1962C201.446 64.1333 201.583 63.8946 201.52 63.6632L200.087 58.3937C200.025 58.1622 199.786 58.0256 199.554 58.0885Z" fill="#263238" stroke="#263238" stroke-width="0.932567" stroke-linecap="round" stroke-linejoin="round"/>
<path d="M200.105 58.4591L196.753 59.3705L198.151 64.5123L201.503 63.6008L200.105 58.4591Z" fill="#657EFF" stroke="#263238" stroke-width="0.932567" stroke-linecap="round" stroke-linejoin="round"/>
<path d="M199.433 60.2387C199.392 60.0802 199.29 59.9444 199.149 59.8612C199.008 59.7781 198.84 59.7543 198.682 59.7951C198.523 59.836 198.387 59.9381 198.304 60.079C198.221 60.22 198.197 60.3882 198.238 60.5467C198.278 60.7007 198.478 61.4245 198.546 61.6801L199.741 61.3567C199.673 61.1195 199.47 60.368 199.433 60.2387Z" fill="#263238"/>
<path d="M199.322 62.1914C199.47 62.1514 199.598 62.0576 199.681 61.9283C199.763 61.7989 199.795 61.6434 199.769 61.4922L198.583 61.8002C198.634 61.9465 198.739 62.068 198.876 62.1405C199.013 62.213 199.172 62.2311 199.322 62.1914Z" fill="#263238"/>
<path d="M200.437 62.832L199.661 63.0445L199.501 62.4593C199.722 62.3733 199.903 62.2088 200.01 61.9973C200.117 61.7858 200.142 61.5423 200.08 61.3136L199.994 61.0056C199.992 60.999 199.989 60.9928 199.986 60.9873C199.982 60.9818 199.977 60.9772 199.971 60.9738C199.965 60.9703 199.959 60.9681 199.952 60.9672C199.945 60.9663 199.939 60.9668 199.932 60.9686L199.803 61.0025C199.796 61.0042 199.79 61.0073 199.784 61.0116C199.779 61.0159 199.775 61.0212 199.771 61.0273C199.768 61.0334 199.766 61.0401 199.766 61.047C199.765 61.0538 199.766 61.0607 199.769 61.0672C199.77 61.0737 199.773 61.08 199.777 61.0854C199.781 61.0909 199.786 61.0955 199.792 61.099C199.797 61.1024 199.804 61.1047 199.811 61.1056C199.817 61.1064 199.824 61.106 199.83 61.1041L199.907 61.0826L199.978 61.3444C200.008 61.453 200.016 61.5663 200.001 61.6779C199.987 61.7896 199.951 61.8973 199.895 61.995C199.839 62.0927 199.765 62.1784 199.676 62.2472C199.586 62.316 199.485 62.3667 199.376 62.3962C199.268 62.4257 199.154 62.4336 199.043 62.4193C198.931 62.405 198.823 62.3689 198.726 62.313C198.628 62.257 198.542 62.1824 198.473 62.0934C198.404 62.0044 198.354 61.9026 198.324 61.794L198.25 61.5322L198.327 61.5138C198.34 61.5095 198.352 61.5005 198.358 61.4886C198.365 61.4766 198.367 61.4625 198.364 61.4491C198.363 61.4424 198.359 61.4361 198.355 61.4306C198.351 61.4251 198.346 61.4205 198.34 61.4171C198.334 61.4137 198.327 61.4114 198.32 61.4106C198.313 61.4097 198.306 61.4103 198.3 61.4121L198.173 61.446C198.167 61.4478 198.16 61.4509 198.155 61.4551C198.149 61.4593 198.145 61.4646 198.141 61.4706C198.138 61.4766 198.136 61.4833 198.135 61.4902C198.134 61.497 198.135 61.504 198.136 61.5107L198.223 61.8187C198.285 62.0472 198.43 62.2446 198.628 62.373C198.827 62.5015 199.067 62.552 199.301 62.5148L199.458 63.1L198.682 63.3094C198.668 63.313 198.656 63.3192 198.645 63.3276C198.634 63.3361 198.624 63.3466 198.618 63.3586C198.611 63.3707 198.606 63.384 198.605 63.3977C198.603 63.4115 198.604 63.4254 198.608 63.4388L198.635 63.5404L200.594 63.0076L200.567 62.9059C200.563 62.8925 200.557 62.88 200.548 62.869C200.54 62.858 200.529 62.8488 200.517 62.8419C200.505 62.8351 200.492 62.8306 200.478 62.8289C200.465 62.8272 200.451 62.8283 200.437 62.832Z" fill="#263238"/>
<path d="M200.754 59.6596C200.446 59.6935 200.191 60.177 200.286 60.8577C200.382 61.5384 201.007 60.7992 201.044 60.5836C201.081 60.368 201.343 59.6011 200.754 59.6596Z" fill="white" stroke="#263238" stroke-width="0.932567" stroke-linecap="round" stroke-linejoin="round"/>
<path d="M201.432 60.676C201.35 60.6748 201.269 60.692 201.194 60.7264C201.119 60.7608 201.054 60.8115 201.001 60.8748C200.949 60.938 200.911 61.0123 200.892 61.0919C200.872 61.1716 200.87 61.2547 200.887 61.3351C200.945 61.9973 201.075 61.8433 201.075 61.8433C201.078 62.1162 201.133 62.386 201.238 62.638C201.392 62.9306 201.799 62.4871 201.799 62.2222C201.799 61.9573 201.755 60.5651 201.432 60.676Z" fill="white" stroke="#263238" stroke-width="0.932567" stroke-linecap="round" stroke-linejoin="round"/>
<path d="M201.078 61.831C201.078 61.831 201.611 61.6739 201.737 61.2859L201.078 61.831Z" fill="white"/>
<path d="M201.078 61.831C201.078 61.831 201.611 61.6739 201.737 61.2859" stroke="#263238" stroke-width="0.932567" stroke-linecap="round" stroke-linejoin="round"/>
<path d="M196.449 64.6307C196.552 64.2045 196.56 63.7608 196.473 63.331C196.214 62.139 196.926 61.4398 197.579 60.4881C198.232 59.5364 198.54 60.3311 198.306 60.8947C198.073 61.3751 197.794 61.8311 197.471 62.256C197.887 62.8137 198.123 63.4855 198.146 64.181C198.146 64.4059 198.146 65.0773 198.146 65.0773" fill="white"/>
<path d="M196.449 64.6307C196.552 64.2045 196.56 63.7608 196.473 63.331C196.214 62.139 196.926 61.4398 197.579 60.4881C198.232 59.5364 198.54 60.3311 198.306 60.8947C198.073 61.3751 197.794 61.8311 197.471 62.256C197.887 62.8137 198.123 63.4855 198.146 64.181C198.146 64.4059 198.146 65.0773 198.146 65.0773" stroke="#263238" stroke-width="0.932567" stroke-linecap="round" stroke-linejoin="round"/>
<path d="M188.188 57.1864C189.26 56.9615 189.589 56.6874 189.589 56.6874C188.786 53.4503 191.668 42.5625 182.582 42.0605C173.496 41.5584 178.578 56.9862 178.578 56.9862L179.567 57.1124L179.059 54.0109L180.242 57.1894C183.74 57.5683 185.983 57.4974 187.393 57.3188C187.202 55.9199 187.182 54.5029 187.335 53.0992C187.513 54.4817 187.798 55.8482 188.188 57.1864Z" fill="#263238"/>
<path d="M182.579 42.2545C182.226 41.9041 181.766 41.6831 181.271 41.6272C180.777 41.5713 180.279 41.6838 179.857 41.9465" stroke="#263238" stroke-width="0.932567" stroke-linecap="round" stroke-linejoin="round"/>
<path d="M189.5 59.1607V59.0621C189.482 59.1052 189.463 59.136 189.5 59.1607Z" fill="white" stroke="#263238" stroke-width="0.932567" stroke-linecap="round" stroke-linejoin="round"/>
<path d="M196.079 65.5701L191.767 69.5741L191.847 63.5743C191.861 62.6682 191.646 61.7731 191.222 60.9724C190.798 60.1717 190.178 59.4912 189.42 58.9943L189.583 74.7855C193.818 75.0534 197.591 66.7436 197.591 66.7436C197.438 66.4514 197.223 66.1955 196.962 65.9931C196.701 65.7907 196.4 65.6465 196.079 65.5701Z" fill="white"/>
<mask id="mask3_12_411" style="mask-type:luminance" maskUnits="userSpaceOnUse" x="189" y="58" width="9" height="17">
<path d="M196.079 65.5701L191.767 69.5741L191.847 63.5743C191.861 62.6682 191.646 61.7731 191.222 60.9724C190.798 60.1717 190.178 59.4912 189.42 58.9943L189.583 74.7855C193.818 75.0534 197.591 66.7436 197.591 66.7436C197.438 66.4514 197.223 66.1955 196.962 65.9931C196.701 65.7907 196.4 65.6465 196.079 65.5701Z" fill="white"/>
</mask>
<g mask="url(#mask3_12_411)">
<path opacity="0.1" d="M191.105 72.8482C190.464 72.9067 190.319 71.6808 190.329 70.4889C190.149 70.9374 190.03 71.4075 189.974 71.8872C189.919 73.2455 189.919 74.5914 189.941 75.7434C194.764 73.5566 194.822 71.6069 196.06 69.6172C195.272 70.6182 192.34 72.7342 191.105 72.8482Z" fill="black"/>
</g>
<path d="M196.079 65.5701L191.767 69.5741L191.847 63.5743C191.861 62.6682 191.646 61.7731 191.222 60.9724C190.798 60.1717 190.178 59.4912 189.42 58.9943L189.583 74.7855C193.818 75.0534 197.591 66.7436 197.591 66.7436C197.438 66.4514 197.223 66.1955 196.962 65.9931C196.701 65.7907 196.4 65.6465 196.079 65.5701Z" stroke="#263238" stroke-width="0.932567" stroke-linecap="round" stroke-linejoin="round"/>
<path d="M195.164 66.0876L196.11 65.1913L198.183 66.6142L197.579 67.6183L195.164 66.0876Z" fill="#657EFF" stroke="#263238" stroke-width="0.932567" stroke-linecap="round" stroke-linejoin="round"/>
<path d="M191.123 66.528C189.386 74.228 190.249 79.2885 190.249 79.2885C190.249 79.2885 186.057 82.2607 177.245 79.7412C177.245 79.7412 178.846 75.7588 178.415 72.7219C178.153 70.8523 176.398 64.1318 176.398 64.1318C176.398 64.1318 175.566 61.1935 175.948 58.8219C176.684 58.3445 178.261 57.7685 181.049 57.5652C181.095 57.4093 181.127 57.2495 181.144 57.0878C181.233 56.3046 181.252 55.5152 181.203 54.7285C181.163 53.8045 181.086 53.0684 181.086 53.0684H184.449C184.449 53.0684 184.492 53.9185 184.6 54.9164C184.658 55.5047 184.742 56.1484 184.846 56.7028C184.898 56.9803 184.965 57.2548 185.046 57.5252C188.404 58.0303 189.666 58.905 189.91 59.6658C191.052 63.0969 191.493 64.8833 191.123 66.528Z" fill="white" stroke="#263238" stroke-width="0.932567" stroke-linecap="round" stroke-linejoin="round"/>
<path d="M184.609 55.4585C184.335 56.0745 183.993 56.5611 182.807 56.555C181.926 56.555 181.132 55.7757 181.042 55.477C181.138 54.8025 181.042 54.553 181.002 53.7891C182.135 53.7572 183.269 53.8231 184.39 53.9863C184.438 54.4804 184.511 54.9718 184.609 55.4585Z" fill="#263238"/>
<path d="M186.845 48.8642C186.845 48.4084 186.845 48.1281 186.845 48.1281C186.596 46.9331 185.117 46.8715 184.437 46.8745C183.719 46.8977 183.004 46.773 182.336 46.508C182.555 47.031 182.917 47.4815 183.38 47.8078C180.848 47.2441 180.651 45.9074 180.747 45.1867C179.847 48.3314 178.68 48.4638 178.68 48.4638C178.68 48.4638 178.68 48.7441 178.732 49.1969C178.43 49.2662 178.163 49.4425 177.98 49.6932C177.797 49.9439 177.711 50.2522 177.738 50.5613C177.734 50.8943 177.861 51.2154 178.091 51.4559C178.322 51.6965 178.637 51.8375 178.97 51.8487C179.036 51.8458 179.102 51.8365 179.167 51.821C179.703 53.9031 180.802 56.1669 183.054 56.0776C185.305 55.9883 186.223 53.6413 186.586 51.5223C186.653 51.5284 186.72 51.5284 186.787 51.5223C187.12 51.4888 187.427 51.3245 187.64 51.0653C187.853 50.8062 187.955 50.4733 187.923 50.1393C187.924 49.8334 187.816 49.537 187.619 49.3033C187.421 49.0697 187.147 48.914 186.845 48.8642Z" fill="white" stroke="#263238" stroke-width="0.932567" stroke-linecap="round" stroke-linejoin="round"/>
<path d="M182.336 52.3908L182.724 52.6711C182.773 52.7076 182.832 52.7273 182.893 52.7273C182.954 52.7273 183.014 52.7076 183.063 52.6711L183.42 52.397" stroke="#263238" stroke-width="0.932567" stroke-linecap="round" stroke-linejoin="round"/>
<path d="M183.814 50.6383C183.814 50.6383 184.295 50.0038 185.253 50.4504" stroke="#263238" stroke-width="0.932567" stroke-linecap="round" stroke-linejoin="round"/>
<path d="M181.72 50.6383C181.72 50.6383 181.243 50.0038 180.282 50.4504" stroke="#263238" stroke-width="0.932567" stroke-linecap="round" stroke-linejoin="round"/>
<path d="M183.833 53.5089C183.566 53.7203 183.239 53.8417 182.898 53.8555C182.558 53.8693 182.222 53.7749 181.939 53.5859" stroke="#263238" stroke-width="0.932567" stroke-linecap="round" stroke-linejoin="round"/>
<path d="M187.902 106.836C187.792 107.174 187.664 107.506 187.52 107.831" stroke="white" stroke-width="0.932567" stroke-linecap="round" stroke-linejoin="round"/>
<path d="M183.405 84.392L184.409 85.2914C185.305 86.0935 185.894 87.1824 186.075 88.3714C186.934 93.8384 188.314 99.4594 188.145 105.398" stroke="white" stroke-width="0.932567" stroke-linecap="round" stroke-linejoin="round"/>
<path d="M187.206 84.5522L185.613 86.8283L185.813 86.548" stroke="white" stroke-width="0.932567" stroke-linecap="round" stroke-linejoin="round"/>
<path d="M180.913 75.42L181.369 75.8881" stroke="#263238" stroke-width="0.932567" stroke-linecap="round" stroke-linejoin="round"/>
<path d="M177.614 68.9674C178.094 70.9321 178.947 72.7861 180.128 74.4282" stroke="#263238" stroke-width="0.932567" stroke-linecap="round" stroke-linejoin="round"/>
<path d="M177.703 48.1393L177.361 48.153L177.41 49.3687L177.752 49.3549L177.703 48.1393Z" fill="white" stroke="#263238" stroke-width="0.932567" stroke-linecap="round" stroke-linejoin="round"/>
<path d="M188.129 47.7005L187.787 47.7143L187.836 48.9299L188.178 48.9162L188.129 47.7005Z" fill="white" stroke="#263238" stroke-width="0.932567" stroke-linecap="round" stroke-linejoin="round"/>
<path d="M182.53 42.621C181.079 42.68 179.708 43.2989 178.704 44.3476C177.7 45.3963 177.142 46.7933 177.146 48.2451C177.147 48.2724 177.152 48.2992 177.163 48.3242C177.174 48.3491 177.19 48.3716 177.21 48.3902C177.23 48.4089 177.253 48.4234 177.279 48.4329C177.304 48.4423 177.331 48.4466 177.359 48.4453H177.719C177.772 48.4429 177.822 48.42 177.858 48.3815C177.894 48.343 177.914 48.2918 177.913 48.239C177.922 46.9935 178.41 45.7991 179.276 44.9039C180.142 44.0087 181.319 43.4813 182.564 43.4314C183.808 43.3814 185.024 43.8127 185.959 44.6357C186.894 45.4587 187.476 46.6101 187.584 47.8509C187.587 47.9035 187.611 47.9527 187.65 47.9878C187.69 48.023 187.741 48.0413 187.794 48.0388H188.154C188.181 48.038 188.208 48.0318 188.232 48.0204C188.257 48.009 188.279 47.9927 188.297 47.9726C188.315 47.9524 188.329 47.9288 188.338 47.9031C188.347 47.8774 188.35 47.8502 188.348 47.8232C188.244 46.37 187.579 45.0143 186.493 44.0433C185.407 43.0722 183.986 42.5621 182.53 42.621Z" fill="#657EFF" stroke="#263238" stroke-width="0.932567" stroke-linecap="round" stroke-linejoin="round"/>
<path d="M178.332 48.8827H178.252C178.02 48.8922 177.792 48.9473 177.581 49.045C177.37 49.1426 177.181 49.2808 177.023 49.4517C176.705 49.7968 176.537 50.2541 176.556 50.723C176.576 51.1919 176.78 51.6339 177.125 51.9519C177.471 52.2699 177.928 52.4377 178.397 52.4185H178.474L178.332 48.8827Z" fill="#657EFF" stroke="#263238" stroke-width="0.932567" stroke-linecap="round" stroke-linejoin="round"/>
<path d="M178.809 50.629C178.862 51.9411 178.954 52.785 178.501 52.8128C178.049 52.8405 177.858 51.9842 177.805 50.6568C177.753 49.3293 177.873 48.5008 178.326 48.47C178.779 48.4392 178.757 49.317 178.809 50.629Z" fill="white" stroke="#263238" stroke-width="0.932567" stroke-linecap="round" stroke-linejoin="round"/>
<path d="M187.233 48.5254H187.313C187.545 48.5161 187.777 48.5526 187.995 48.6329C188.213 48.7131 188.413 48.8355 188.584 48.9931C188.755 49.1507 188.893 49.3404 188.99 49.5513C189.088 49.7623 189.143 49.9903 189.152 50.2225C189.161 50.4547 189.125 50.6864 189.045 50.9044C188.964 51.1225 188.842 51.3226 188.684 51.4933C188.527 51.6641 188.337 51.8021 188.126 51.8996C187.915 51.997 187.687 52.0519 187.455 52.0612H187.375L187.233 48.5254Z" fill="#657EFF" stroke="#263238" stroke-width="0.932567" stroke-linecap="round" stroke-linejoin="round"/>
<path d="M186.882 50.3057C186.934 51.6177 186.913 52.4617 187.366 52.4617C187.818 52.4617 187.938 51.5839 187.886 50.2718C187.834 48.9597 187.643 48.1158 187.193 48.1312C186.743 48.1466 186.83 48.9936 186.882 50.3057Z" fill="white" stroke="#263238" stroke-width="0.932567" stroke-linecap="round" stroke-linejoin="round"/>
<path d="M179.616 49.474C179.616 49.474 180.79 48.5038 181.902 49.3816" stroke="#263238" stroke-width="0.932567" stroke-linecap="round" stroke-linejoin="round"/>
<path d="M186.057 49.28C186.057 49.28 184.825 48.4084 183.771 49.3724" stroke="#263238" stroke-width="0.932567" stroke-linecap="round" stroke-linejoin="round"/>
<path d="M180.605 57.1371C180.605 57.1371 181.307 58.8988 183.913 59.2931C183.913 59.2931 182.872 61.4491 181.449 60.6021C179.746 59.5918 179.419 57.4944 179.419 57.4944L180.605 57.1371Z" fill="#657EFF" stroke="#263238" stroke-width="0.932567" stroke-linecap="round" stroke-linejoin="round"/>
<path d="M185.379 57.3558C185.389 57.8248 185.233 58.2822 184.939 58.6477C184.645 59.0133 184.231 59.2636 183.771 59.3547C183.771 59.3547 185.037 61.4306 186.075 60.2787C187.113 59.1268 186.306 57.5591 186.306 57.5591L185.379 57.3558Z" fill="#657EFF" stroke="#263238" stroke-width="0.932567" stroke-linecap="round" stroke-linejoin="round"/>
<path d="M184.8 63.4696C184.8 63.5305 184.782 63.59 184.748 63.6407C184.714 63.6913 184.666 63.7308 184.61 63.7541C184.554 63.7774 184.492 63.7835 184.432 63.7716C184.372 63.7598 184.317 63.7304 184.274 63.6873C184.231 63.6443 184.202 63.5894 184.19 63.5296C184.178 63.4699 184.184 63.408 184.207 63.3517C184.231 63.2954 184.27 63.2473 184.321 63.2135C184.372 63.1796 184.431 63.1616 184.492 63.1616C184.574 63.1616 184.652 63.194 184.71 63.2518C184.768 63.3095 184.8 63.3879 184.8 63.4696Z" fill="#657EFF" stroke="#263238" stroke-width="0.932567" stroke-linecap="round" stroke-linejoin="round"/>
<path d="M185.219 69.5341C185.219 69.595 185.201 69.6546 185.167 69.7052C185.133 69.7559 185.085 69.7954 185.029 69.8187C184.972 69.842 184.911 69.8481 184.851 69.8362C184.791 69.8243 184.736 69.795 184.693 69.7519C184.65 69.7088 184.621 69.6539 184.609 69.5942C184.597 69.5344 184.603 69.4725 184.626 69.4162C184.65 69.36 184.689 69.3119 184.74 69.278C184.79 69.2442 184.85 69.2261 184.911 69.2261C184.993 69.2261 185.071 69.2586 185.129 69.3163C185.186 69.3741 185.219 69.4524 185.219 69.5341Z" fill="#657EFF" stroke="#263238" stroke-width="0.932567" stroke-linecap="round" stroke-linejoin="round"/>
<path d="M185.613 75.7434C185.613 75.8043 185.595 75.8638 185.561 75.9145C185.527 75.9651 185.479 76.0046 185.423 76.0279C185.367 76.0512 185.305 76.0573 185.245 76.0454C185.185 76.0336 185.13 76.0042 185.087 75.9612C185.044 75.9181 185.015 75.8632 185.003 75.8035C184.991 75.7437 184.997 75.6818 185.021 75.6255C185.044 75.5692 185.083 75.5211 185.134 75.4873C185.185 75.4534 185.244 75.4354 185.305 75.4354C185.387 75.4354 185.465 75.4678 185.523 75.5256C185.581 75.5833 185.613 75.6617 185.613 75.7434Z" fill="#657EFF" stroke="#263238" stroke-width="0.932567" stroke-linecap="round" stroke-linejoin="round"/>
<path d="M212.754 34.4498H150.347C150.058 34.4498 149.823 34.6842 149.823 34.9734V36.0976C149.823 36.3868 150.058 36.6212 150.347 36.6212H212.754C213.043 36.6212 213.278 36.3868 213.278 36.0976V34.9734C213.278 34.6842 213.043 34.4498 212.754 34.4498Z" fill="white"/>
<path d="M212.649 36.6212H150.452" stroke="#263238" stroke-width="0.932567" stroke-linecap="round" stroke-linejoin="round"/>
<path d="M150.452 34.4498H212.649" stroke="#263238" stroke-width="0.932567" stroke-linecap="round" stroke-linejoin="round"/>
<path d="M169.813 49.0613C169.813 49.0613 167.241 48.701 167.102 49.3909C166.964 50.0808 167.041 51.1865 167.484 51.5469C168.322 52.2306 168.168 53.5088 168.168 53.5088L170.324 53.2994L170.379 52.2214C170.49 51.8697 170.688 51.5518 170.955 51.2974C171.732 50.5674 171.424 49.7574 171.291 48.781C171.159 47.8047 170.515 48.239 170.463 48.7441C170.447 49.1945 170.484 49.6452 170.573 50.087L169.813 49.0613Z" fill="white" stroke="#263238" stroke-width="0.932567" stroke-linecap="round" stroke-linejoin="round"/>
<path d="M170.416 50.01C170.416 50.01 169.8 50.1363 169.314 51.0079L170.416 50.01Z" fill="white"/>
<path d="M170.416 50.01C170.416 50.01 169.8 50.1363 169.314 51.0079" stroke="#263238" stroke-width="0.932567" stroke-linecap="round" stroke-linejoin="round"/>
<path d="M170.416 50.2379H167.299C167.083 50.2444 166.869 50.1992 166.674 50.106C166.479 50.0128 166.309 49.8742 166.178 49.702C166.067 49.5455 166.007 49.3581 166.007 49.166C166.007 48.9739 166.067 48.7866 166.178 48.6301L167.737 46.3417C167.871 46.1717 168.043 46.0345 168.238 45.9401C168.433 45.8457 168.647 45.7967 168.864 45.7967C169.081 45.7967 169.295 45.8457 169.49 45.9401C169.685 46.0345 169.857 46.1717 169.991 46.3417L171.553 48.6301C171.664 48.7866 171.724 48.9739 171.724 49.166C171.724 49.3581 171.664 49.5455 171.553 49.702C171.421 49.8768 171.249 50.0169 171.051 50.1103C170.853 50.2037 170.635 50.2475 170.416 50.2379ZM166.72 48.8827C166.662 48.9644 166.63 49.0624 166.63 49.163C166.63 49.2635 166.662 49.3616 166.72 49.4432C166.788 49.5324 166.877 49.604 166.978 49.6522C167.079 49.7005 167.19 49.7238 167.302 49.7204H170.416C170.528 49.7241 170.64 49.7008 170.741 49.6526C170.842 49.6044 170.931 49.5326 170.998 49.4432C171.058 49.3617 171.089 49.2636 171.089 49.163C171.089 49.0623 171.058 48.9642 170.998 48.8827L169.44 46.5973C169.372 46.506 169.283 46.4325 169.181 46.3831C169.078 46.3337 168.965 46.31 168.852 46.314C168.738 46.3097 168.626 46.3333 168.524 46.3827C168.422 46.4321 168.333 46.5058 168.267 46.5973L166.705 48.8858L166.72 48.8827Z" fill="#263238"/>
<path d="M167.925 49.0921C168.085 49.9052 167.986 50.1948 167.617 50.1516C167.247 50.1085 166.874 49.1106 167.386 48.8827C167.897 48.6548 168.31 48.4792 168.31 48.4792C168.473 48.3907 168.656 48.3415 168.842 48.3357C169.028 48.3298 169.212 48.3673 169.381 48.4453C170.115 48.1897 170.244 48.7225 170.244 48.7225C170.244 48.7225 170.774 50.2625 170.333 50.3149C169.893 50.3672 169.529 49.0305 169.529 49.0305C169.529 49.0305 170.081 50.4966 169.576 50.5212C169.07 50.5459 168.778 49.0983 168.778 49.0983C168.778 49.0983 169.107 50.3703 168.63 50.4134C168.153 50.4566 167.925 49.0921 167.925 49.0921Z" fill="white" stroke="#263238" stroke-width="0.932567" stroke-linecap="round" stroke-linejoin="round"/>
<path d="M169.089 36.0391H168.584V46.1507H169.089V36.0391Z" fill="white" stroke="#263238" stroke-width="0.932567" stroke-linecap="round" stroke-linejoin="round"/>
<path d="M169.369 45.9936L169.04 46.4772C169.018 46.5047 168.99 46.527 168.959 46.5423C168.927 46.5576 168.893 46.5656 168.858 46.5656C168.823 46.5656 168.788 46.5576 168.757 46.5423C168.725 46.527 168.698 46.5047 168.676 46.4772L168.35 45.9936C168.27 45.8797 168.371 45.738 168.528 45.738H169.187C169.348 45.738 169.446 45.892 169.369 45.9936Z" fill="white" stroke="#263238" stroke-width="0.932567" stroke-linecap="round" stroke-linejoin="round"/>
<path d="M169.129 42.5995H168.59C168.442 42.5995 168.322 42.7195 168.322 42.8674V45.1097C168.322 45.2577 168.442 45.3776 168.59 45.3776H169.129C169.277 45.3776 169.397 45.2577 169.397 45.1097V42.8674C169.397 42.7195 169.277 42.5995 169.129 42.5995Z" fill="white" stroke="#263238" stroke-width="0.932567" stroke-linecap="round" stroke-linejoin="round"/>
<path d="M169.129 34.1018H168.59C168.442 34.1018 168.322 34.2217 168.322 34.3697V36.612C168.322 36.76 168.442 36.8799 168.59 36.8799H169.129C169.277 36.8799 169.397 36.76 169.397 36.612V34.3697C169.397 34.2217 169.277 34.1018 169.129 34.1018Z" fill="white" stroke="#263238" stroke-width="0.932567" stroke-linecap="round" stroke-linejoin="round"/>
<path d="M163.089 50.2379H159.972C159.756 50.2444 159.542 50.1992 159.347 50.106C159.151 50.0128 158.982 49.8742 158.851 49.702C158.74 49.5455 158.68 49.3581 158.68 49.166C158.68 48.9739 158.74 48.7866 158.851 48.6301L160.409 46.3417C160.544 46.1717 160.716 46.0344 160.912 45.94C161.107 45.8457 161.321 45.7966 161.538 45.7966C161.755 45.7966 161.97 45.8457 162.165 45.94C162.361 46.0344 162.532 46.1717 162.667 46.3417L164.226 48.6301C164.337 48.7866 164.397 48.9739 164.397 49.166C164.397 49.3581 164.337 49.5455 164.226 49.702C164.094 49.8768 163.922 50.017 163.724 50.1103C163.526 50.2037 163.308 50.2475 163.089 50.2379ZM159.393 48.8827C159.334 48.9644 159.303 49.0624 159.303 49.163C159.303 49.2635 159.334 49.3616 159.393 49.4432C159.461 49.5324 159.549 49.604 159.651 49.6523C159.752 49.7005 159.863 49.7238 159.975 49.7204H163.092C163.205 49.7238 163.316 49.7005 163.418 49.6523C163.52 49.6041 163.609 49.5324 163.677 49.4432C163.736 49.3616 163.768 49.2635 163.768 49.163C163.768 49.0624 163.736 48.9644 163.677 48.8827L162.119 46.5973C162.051 46.506 161.962 46.4325 161.86 46.3831C161.757 46.3337 161.644 46.31 161.531 46.314C161.417 46.3097 161.305 46.3333 161.203 46.3828C161.101 46.4322 161.012 46.5058 160.945 46.5973L159.384 48.8858L159.393 48.8827Z" fill="#263238"/>
<path d="M161.762 36.0391H161.256V46.1507H161.762V36.0391Z" fill="white" stroke="#263238" stroke-width="0.932567" stroke-linecap="round" stroke-linejoin="round"/>
<path d="M162.042 45.9936L161.7 46.4772C161.678 46.5047 161.651 46.527 161.619 46.5423C161.588 46.5576 161.553 46.5656 161.518 46.5656C161.483 46.5656 161.449 46.5576 161.417 46.5423C161.386 46.527 161.358 46.5047 161.337 46.4772L161.01 45.9936C160.93 45.8797 161.032 45.738 161.189 45.738H161.848C162.008 45.738 162.119 45.892 162.042 45.9936Z" fill="white" stroke="#263238" stroke-width="0.932567" stroke-linecap="round" stroke-linejoin="round"/>
<path d="M161.802 42.5995H161.263C161.115 42.5995 160.995 42.7195 160.995 42.8674V45.1097C160.995 45.2577 161.115 45.3776 161.263 45.3776H161.802C161.95 45.3776 162.07 45.2577 162.07 45.1097V42.8674C162.07 42.7195 161.95 42.5995 161.802 42.5995Z" fill="white" stroke="#263238" stroke-width="0.932567" stroke-linecap="round" stroke-linejoin="round"/>
<path d="M161.802 34.1018H161.263C161.115 34.1018 160.995 34.2217 160.995 34.3697V36.612C160.995 36.76 161.115 36.8799 161.263 36.8799H161.802C161.95 36.8799 162.07 36.76 162.07 36.612V34.3697C162.07 34.2217 161.95 34.1018 161.802 34.1018Z" fill="white" stroke="#263238" stroke-width="0.932567" stroke-linecap="round" stroke-linejoin="round"/>
<path d="M194.844 50.2379H191.727C191.511 50.245 191.296 50.2 191.101 50.1067C190.906 50.0134 190.736 49.8746 190.606 49.702C190.494 49.5455 190.434 49.3581 190.434 49.166C190.434 48.9739 190.494 48.7866 190.606 48.6301L192.164 46.3417C192.299 46.1717 192.47 46.0345 192.665 45.9401C192.861 45.8457 193.075 45.7967 193.292 45.7967C193.508 45.7967 193.722 45.8457 193.918 45.9401C194.113 46.0345 194.284 46.1717 194.419 46.3417L195.977 48.6301C196.089 48.7866 196.149 48.9739 196.149 49.166C196.149 49.3581 196.089 49.5455 195.977 49.702C195.846 49.8764 195.674 50.0162 195.477 50.1096C195.279 50.2029 195.062 50.247 194.844 50.2379ZM191.148 48.8827C191.089 48.9642 191.057 49.0623 191.057 49.163C191.057 49.2636 191.089 49.3617 191.148 49.4432C191.216 49.5326 191.304 49.6044 191.405 49.6526C191.506 49.7008 191.618 49.7241 191.73 49.7204H194.847C194.959 49.7241 195.07 49.7008 195.172 49.6526C195.273 49.6044 195.361 49.5326 195.429 49.4432C195.488 49.3617 195.52 49.2636 195.52 49.163C195.52 49.0623 195.488 48.9642 195.429 48.8827L193.871 46.5973C193.8 46.5088 193.711 46.4373 193.609 46.3881C193.507 46.339 193.395 46.3135 193.282 46.3135C193.169 46.3135 193.058 46.339 192.956 46.3881C192.854 46.4373 192.764 46.5088 192.694 46.5973L191.136 48.8858L191.148 48.8827Z" fill="#263238"/>
<path d="M193.513 36.0391H193.008V46.1507H193.513V36.0391Z" fill="white" stroke="#263238" stroke-width="0.932567" stroke-linecap="round" stroke-linejoin="round"/>
<path d="M193.794 45.9936L193.467 46.4772C193.445 46.5047 193.418 46.527 193.386 46.5423C193.355 46.5576 193.32 46.5656 193.285 46.5656C193.25 46.5656 193.216 46.5576 193.184 46.5423C193.153 46.527 193.125 46.5047 193.104 46.4772L192.777 45.9936C192.697 45.8797 192.799 45.738 192.956 45.738H193.615C193.772 45.738 193.874 45.892 193.794 45.9936Z" fill="white" stroke="#263238" stroke-width="0.932567" stroke-linecap="round" stroke-linejoin="round"/>
<path d="M193.556 42.5995H193.017C192.869 42.5995 192.75 42.7195 192.75 42.8674V45.1097C192.75 45.2577 192.869 45.3776 193.017 45.3776H193.556C193.704 45.3776 193.824 45.2577 193.824 45.1097V42.8674C193.824 42.7195 193.704 42.5995 193.556 42.5995Z" fill="white" stroke="#263238" stroke-width="0.932567" stroke-linecap="round" stroke-linejoin="round"/>
<path d="M193.556 34.1018H193.017C192.869 34.1018 192.75 34.2217 192.75 34.3697V36.612C192.75 36.76 192.869 36.8799 193.017 36.8799H193.556C193.704 36.8799 193.824 36.76 193.824 36.612V34.3697C193.824 34.2217 193.704 34.1018 193.556 34.1018Z" fill="white" stroke="#263238" stroke-width="0.932567" stroke-linecap="round" stroke-linejoin="round"/>
<path d="M201.826 50.2379H198.709C198.493 50.2444 198.279 50.1992 198.084 50.106C197.889 50.0128 197.719 49.8742 197.588 49.702C197.477 49.5455 197.417 49.3581 197.417 49.166C197.417 48.9739 197.477 48.7866 197.588 48.6301L199.147 46.3417C199.282 46.1717 199.453 46.0344 199.649 45.94C199.844 45.8457 200.058 45.7966 200.275 45.7966C200.493 45.7966 200.707 45.8457 200.902 45.94C201.098 46.0344 201.269 46.1717 201.404 46.3417L202.963 48.6301C203.074 48.7866 203.134 48.9739 203.134 49.166C203.134 49.3581 203.074 49.5455 202.963 49.702C202.831 49.8768 202.659 50.017 202.461 50.1103C202.263 50.2037 202.045 50.2475 201.826 50.2379ZM198.13 48.8827C198.072 48.9644 198.04 49.0624 198.04 49.163C198.04 49.2635 198.072 49.3616 198.13 49.4432C198.198 49.5324 198.287 49.604 198.388 49.6523C198.489 49.7005 198.6 49.7238 198.712 49.7204H201.829C201.942 49.7238 202.054 49.7005 202.155 49.6523C202.257 49.6041 202.346 49.5324 202.415 49.4432C202.473 49.3616 202.505 49.2635 202.505 49.163C202.505 49.0624 202.473 48.9644 202.415 48.8827L200.856 46.5973C200.788 46.506 200.699 46.4325 200.597 46.3831C200.494 46.3337 200.381 46.31 200.268 46.314C200.154 46.3097 200.042 46.3333 199.94 46.3828C199.838 46.4322 199.749 46.5058 199.683 46.5973L198.121 48.8858L198.13 48.8827Z" fill="#263238"/>
<path d="M200.499 36.0391H199.994V46.1507H200.499V36.0391Z" fill="white" stroke="#263238" stroke-width="0.932567" stroke-linecap="round" stroke-linejoin="round"/>
<path d="M200.779 45.9936L200.449 46.4772C200.428 46.5047 200.4 46.527 200.369 46.5423C200.337 46.5576 200.303 46.5656 200.268 46.5656C200.233 46.5656 200.198 46.5576 200.167 46.5423C200.135 46.527 200.108 46.5047 200.086 46.4772L199.76 45.9936C199.679 45.8797 199.781 45.738 199.938 45.738H200.597C200.757 45.738 200.856 45.892 200.779 45.9936Z" fill="white" stroke="#263238" stroke-width="0.932567" stroke-linecap="round" stroke-linejoin="round"/>
<path d="M200.539 42.5995H200C199.852 42.5995 199.732 42.7195 199.732 42.8674V45.1097C199.732 45.2577 199.852 45.3776 200 45.3776H200.539C200.687 45.3776 200.807 45.2577 200.807 45.1097V42.8674C200.807 42.7195 200.687 42.5995 200.539 42.5995Z" fill="white" stroke="#263238" stroke-width="0.932567" stroke-linecap="round" stroke-linejoin="round"/>
<path d="M200.539 34.1018H200C199.852 34.1018 199.732 34.2217 199.732 34.3697V36.612C199.732 36.76 199.852 36.8799 200 36.8799H200.539C200.687 36.8799 200.807 36.76 200.807 36.612V34.3697C200.807 34.2217 200.687 34.1018 200.539 34.1018Z" fill="white" stroke="#263238" stroke-width="0.932567" stroke-linecap="round" stroke-linejoin="round"/>
<path d="M170.657 52.8128L170.82 54.1279L167.469 54.285L167.749 52.9668L170.657 52.8128Z" fill="#657EFF" stroke="#263238" stroke-width="0.932567" stroke-linecap="round" stroke-linejoin="round"/>
<path d="M176.339 63.8669C176.339 63.8669 170.521 69.2168 169.178 69.3C168.849 69.3216 168.562 69.5279 168.285 69.34C167.669 68.9212 166.779 68.0341 166.908 64.4305C166.976 62.4593 168.168 54.245 168.168 54.245L170.324 54.1495L170.848 63.3895C172.696 61.4737 175.908 58.8188 175.911 58.8188C176.915 62.0281 176.339 63.8669 176.339 63.8669Z" fill="white" stroke="#263238" stroke-width="0.932567" stroke-linecap="round" stroke-linejoin="round"/>
<path d="M191.012 71.3051C191.157 70.6662 191.433 70.0643 191.822 69.5372L191.012 71.3051Z" fill="white"/>
<path d="M191.012 71.3051C191.157 70.6662 191.433 70.0643 191.822 69.5372" stroke="#263238" stroke-width="0.932567" stroke-linecap="round" stroke-linejoin="round"/>
<path d="M170.188 65.564C170.413 65.4623 170.949 64.4614 170.838 62.752" stroke="#263238" stroke-width="0.932567" stroke-linecap="round" stroke-linejoin="round"/>
<path d="M172.255 43.6221V39.9415C172.256 39.7636 172.327 39.5933 172.453 39.4676C172.578 39.3418 172.749 39.2708 172.927 39.27H178.705C178.882 39.2708 179.053 39.3418 179.179 39.4676C179.304 39.5933 179.375 39.7636 179.376 39.9415V43.6221C179.376 43.8001 179.305 43.9709 179.179 44.0968C179.053 44.2228 178.883 44.2935 178.705 44.2935H176.693L176.854 45.6949H175.816V47.0193L174.584 44.8633H175.591L175.486 44.2966H172.923C172.835 44.2962 172.748 44.2784 172.667 44.2443C172.585 44.2102 172.512 44.1604 172.45 44.0977C172.388 44.0351 172.338 43.9609 172.305 43.8792C172.272 43.7976 172.255 43.7102 172.255 43.6221Z" fill="white" stroke="#263238" stroke-width="0.932567" stroke-linecap="round" stroke-linejoin="round"/>
<path d="M177.263 40.5297H173.358" stroke="#263238" stroke-width="0.932567" stroke-linecap="round" stroke-linejoin="round"/>
<path d="M178.273 41.5739H173.358" stroke="#263238" stroke-width="0.932567" stroke-linecap="round" stroke-linejoin="round"/>
<path d="M177.516 42.6149H173.358" stroke="#263238" stroke-width="0.932567" stroke-linecap="round" stroke-linejoin="round"/>
<path d="M43.7483 134.719C51.6905 134.719 58.1288 133.772 58.1288 132.603C58.1288 131.435 51.6905 130.487 43.7483 130.487C35.8062 130.487 29.3678 131.435 29.3678 132.603C29.3678 133.772 35.8062 134.719 43.7483 134.719Z" fill="#657EFF"/>
<path d="M42.4885 98.8834C56.3197 98.8834 67.532 87.6711 67.532 73.8399C67.532 60.0088 56.3197 48.7964 42.4885 48.7964C28.6574 48.7964 17.4451 60.0088 17.4451 73.8399C17.4451 87.6711 28.6574 98.8834 42.4885 98.8834Z" fill="#657EFF"/>
<path d="M30.9386 90.2163C30.9386 90.2163 31.5761 93.9123 29.4232 98.0672H56.3455C56.3455 98.0672 55.1135 96.1299 53.823 90.2163H30.9386Z" fill="white" stroke="#263238" stroke-width="0.87381" stroke-linecap="round" stroke-linejoin="round"/>
<path d="M37.077 91.0694C35.6033 91.1875 34.1909 91.7101 32.9952 92.5796C31.7996 93.4491 30.8673 94.6319 30.301 95.9974C30.0114 96.6997 29.7096 97.4112 29.4232 98.0764C27.7846 101.868 29.3338 107.384 33.5226 107.384H52.7295C56.5272 107.384 57.5651 102.576 56.6565 98.9543C56.0713 96.6258 54.8917 94.2881 52.8774 92.6495C50.1854 90.4473 42.3191 90.6506 37.077 91.0694Z" fill="#263238" stroke="#263238" stroke-width="0.87381" stroke-linecap="round" stroke-linejoin="round"/>
<path d="M18.7387 87.0008C18.7387 87.0008 15.2952 89.0828 15.1813 90.2163H19.404L21.0826 89.012L20.5158 90.2224H21.8002C21.8002 90.2224 23.1646 89.1629 23.2386 87.9894L23.1 87.0008L20.636 85.9043L18.7387 87.0008Z" fill="white" stroke="#263238" stroke-width="0.87381" stroke-linecap="round" stroke-linejoin="round"/>
<path d="M59.0744 79.3531C59.0744 79.3531 58.5231 75.728 57.3126 70.5074C56.1022 65.2868 53.7367 64.8771 53.7367 64.8771H53.7152C50.6352 63.5527 42.6272 62.8382 42.6272 62.8382H42.2576C42.2576 62.8382 34.2311 63.5527 31.1696 64.8771H31.148C31.148 64.8771 28.761 65.296 27.5506 70.5074C26.3401 75.7187 25.7857 79.3531 25.7857 79.3531C25.7857 79.3531 23.5989 79.9445 19.6627 84.8971C19.0447 85.6825 18.5187 86.5361 18.095 87.4412C18.095 87.4412 21.1195 86.4464 23.2386 87.971C23.2386 87.971 30.1809 85.0265 30.5289 81.9218C30.5289 81.811 30.5567 81.6878 30.5721 81.5553C30.7692 86.2677 30.9386 90.204 30.9386 90.204H53.9215C53.9215 90.204 54.094 86.2677 54.2911 81.5553C54.2911 81.6878 54.3188 81.811 54.3312 81.9218C54.6823 85.0265 62.3669 88.5069 62.3669 88.5069C64.4736 85.2667 67.532 87.0562 67.532 87.0562L59.0744 79.3531Z" fill="white"/>
<mask id="mask4_12_411" style="mask-type:luminance" maskUnits="userSpaceOnUse" x="18" y="62" width="50" height="29">
<path d="M59.0744 79.3531C59.0744 79.3531 58.5231 75.728 57.3126 70.5074C56.1022 65.2868 53.7367 64.8771 53.7367 64.8771H53.7152C50.6352 63.5527 42.6272 62.8382 42.6272 62.8382H42.2576C42.2576 62.8382 34.2311 63.5527 31.1696 64.8771H31.148C31.148 64.8771 28.761 65.296 27.5506 70.5074C26.3401 75.7187 25.7857 79.3531 25.7857 79.3531C25.7857 79.3531 23.5989 79.9445 19.6627 84.8971C19.0447 85.6825 18.5187 86.5361 18.095 87.4412C18.095 87.4412 21.1195 86.4464 23.2386 87.971C23.2386 87.971 30.1809 85.0265 30.5289 81.9218C30.5289 81.811 30.5567 81.6878 30.5721 81.5553C30.7692 86.2677 30.9386 90.204 30.9386 90.204H53.9215C53.9215 90.204 54.094 86.2677 54.2911 81.5553C54.2911 81.6878 54.3188 81.811 54.3312 81.9218C54.6823 85.0265 62.3669 88.5069 62.3669 88.5069C64.4736 85.2667 67.532 87.0562 67.532 87.0562L59.0744 79.3531Z" fill="white"/>
</mask>
<g mask="url(#mask4_12_411)">
<path opacity="0.3" d="M30.5289 81.928C30.5289 81.8356 30.5535 81.7309 30.5658 81.62L30.0638 70.7137C30.0638 70.7137 28.6778 70.9971 29.0751 74.345C29.4724 77.693 30.3071 77.117 29.842 78.4076C29.377 79.6981 27.5721 78.2197 26.9746 79.3316C26.377 80.4434 30.3133 80.2063 28.687 83.0707C27.0608 85.9351 23.2385 87.9987 23.2385 87.9987C23.2385 87.9987 30.1839 85.0388 30.5289 81.928Z" fill="black"/>
<g opacity="0.3">
<path d="M54.439 81.928C54.439 81.8356 55.3445 81.9958 54.439 81.928L54.7131 72.5925C54.7131 72.5925 54.6453 77.1078 55.1289 78.4076C55.6124 79.7073 57.3988 78.2197 57.9933 79.3316C58.5877 80.4434 54.6546 80.2063 56.2839 83.0707C57.9132 85.9351 61.7293 87.9987 61.7293 87.9987C61.7293 87.9987 54.7901 85.0388 54.439 81.928Z" fill="black"/>
</g>
<path opacity="0.3" d="M54.0878 84.0532C53.9369 87.586 53.8229 90.2132 53.8229 90.2132H33.1592C47.0192 90.2132 54.1032 84.0532 54.1032 84.0532H54.0878Z" fill="black"/>
</g>
<path d="M59.0744 79.3531C59.0744 79.3531 58.5231 75.728 57.3126 70.5074C56.1022 65.2868 53.7367 64.8771 53.7367 64.8771H53.7152C50.6352 63.5527 42.6272 62.8382 42.6272 62.8382H42.2576C42.2576 62.8382 34.2311 63.5527 31.1696 64.8771H31.148C31.148 64.8771 28.761 65.296 27.5506 70.5074C26.3401 75.7187 25.7857 79.3531 25.7857 79.3531C25.7857 79.3531 23.5989 79.9445 19.6627 84.8971C19.0447 85.6825 18.5187 86.5361 18.095 87.4412C18.095 87.4412 21.1195 86.4464 23.2386 87.971C23.2386 87.971 30.1809 85.0265 30.5289 81.9218C30.5289 81.811 30.5567 81.6878 30.5721 81.5553C30.7692 86.2677 30.9386 90.204 30.9386 90.204H53.9215C53.9215 90.204 54.094 86.2677 54.2911 81.5553C54.2911 81.6878 54.3188 81.811 54.3312 81.9218C54.6823 85.0265 62.3669 88.5069 62.3669 88.5069C64.4736 85.2667 67.532 87.0562 67.532 87.0562L59.0744 79.3531Z" stroke="#263238" stroke-width="0.87381" stroke-linecap="round" stroke-linejoin="round"/>
<path d="M26.5219 79.3316C27.6301 79.2759 28.7164 79.6549 29.5495 80.388" stroke="#263238" stroke-width="0.87381" stroke-linecap="round" stroke-linejoin="round"/>
<path d="M28.6871 71.0402C28.6871 71.0402 30.1101 71.3482 30.4366 78.2659L30.0085 69.186" stroke="#263238" stroke-width="0.87381" stroke-linecap="round" stroke-linejoin="round"/>
<path d="M30.4551 79.2269L30.5198 80.6282" stroke="#263238" stroke-width="0.87381" stroke-linecap="round" stroke-linejoin="round"/>
<path d="M58.3414 79.3316C57.2352 79.2717 56.1492 79.6451 55.3137 80.3726" stroke="#263238" stroke-width="0.87381" stroke-linecap="round" stroke-linejoin="round"/>
<path d="M54.7686 71.0402C54.7952 70.4242 54.824 69.8082 54.8548 69.1922" stroke="#263238" stroke-width="0.87381" stroke-linecap="round" stroke-linejoin="round"/>
<path d="M46.7451 63.3371C46.3724 65.2036 44.5675 65.8781 42.3931 65.8781C40.2186 65.8781 38.4199 65.2067 38.041 63.3464H38.1273C38.3525 63.3157 38.5632 63.2174 38.7314 63.0645C38.8997 62.9117 39.0176 62.7114 39.0697 62.4901C39.0999 62.4019 39.1155 62.3093 39.1159 62.216V60.0261H45.7687V62.216C45.7679 62.3529 45.793 62.4888 45.8427 62.6164C45.9144 62.8066 46.0361 62.9739 46.1949 63.1007C46.3537 63.2276 46.5438 63.3092 46.7451 63.3371Z" fill="white"/>
<mask id="mask5_12_411" style="mask-type:luminance" maskUnits="userSpaceOnUse" x="38" y="60" width="9" height="6">
<path d="M46.7451 63.3371C46.3724 65.2036 44.5675 65.8781 42.3931 65.8781C40.2186 65.8781 38.4199 65.2067 38.041 63.3464H38.1273C38.3525 63.3157 38.5632 63.2174 38.7314 63.0645C38.8997 62.9117 39.0176 62.7114 39.0697 62.4901C39.0999 62.4019 39.1155 62.3093 39.1159 62.216V60.0261H45.7687V62.216C45.7679 62.3529 45.793 62.4888 45.8427 62.6164C45.9144 62.8066 46.0361 62.9739 46.1949 63.1007C46.3537 63.2276 46.5438 63.3092 46.7451 63.3371Z" fill="white"/>
</mask>
<g mask="url(#mask5_12_411)">
<path d="M45.7132 61.6647C44.6106 62.7488 43.3817 63.4234 42.1959 63.4757C40.9639 63.5312 39.5348 62.5209 38.9526 61.5292C38.9767 61.443 38.9881 61.3537 38.9865 61.2643V60.5928L45.6393 60.6637V61.2643C45.6393 61.406 45.8087 61.5723 45.7132 61.6647Z" fill="#263238"/>
</g>
<path d="M46.7451 63.3371C46.3724 65.2036 44.5675 65.8781 42.3931 65.8781C40.2186 65.8781 38.4199 65.2067 38.041 63.3464H38.1273C38.3525 63.3157 38.5632 63.2174 38.7314 63.0645C38.8997 62.9117 39.0176 62.7114 39.0697 62.4901C39.0999 62.4019 39.1155 62.3093 39.1159 62.216V60.0261H45.7687V62.216C45.7679 62.3529 45.793 62.4888 45.8427 62.6164C45.9144 62.8066 46.0361 62.9739 46.1949 63.1007C46.3537 63.2276 46.5438 63.3092 46.7451 63.3371Z" stroke="#263238" stroke-width="0.87381" stroke-linecap="round" stroke-linejoin="round"/>
<path d="M37.5328 55.323C37.5328 55.323 35.2259 52.7142 35.5277 49.1198C35.8296 45.5255 38.7802 45.5255 38.7802 45.5255C38.7802 45.5255 42.3376 42.387 46.3077 44.352C50.2778 46.317 50.0037 53.13 47.0654 54.824L37.5328 55.323Z" fill="#263238"/>
<path d="M47.703 53.5674C47.7338 52.9698 47.7307 52.6002 47.7307 52.6002C47.4659 51.011 45.5224 50.8508 44.6292 50.8231C40.887 50.6968 39.9014 48.4022 39.9014 48.4022C37.6314 47.7215 36.9877 52.6002 36.9877 52.6002C36.9877 52.6002 36.9877 52.9698 37.0185 53.5674C36.6175 53.6439 36.2575 53.8621 36.0041 54.1822C35.7508 54.5023 35.6211 54.9028 35.6387 55.3106C35.6387 56.2839 36.3409 57.0693 37.2095 57.0693C37.2973 57.0689 37.3849 57.0607 37.4713 57.0447L37.8778 59.3362C37.9548 59.8506 38.4384 61.0672 38.8727 61.3567C39.7967 61.9727 41.2597 62.8505 42.3592 62.8505C43.3079 62.8505 44.6384 62.0682 45.6209 61.5353C46.1692 61.2273 46.7729 60.0477 46.8252 59.4286L47.0809 57.1124C47.2252 57.1056 47.3692 57.0912 47.5121 57.0693C48.3775 57.0693 49.0829 56.2839 49.0829 55.3106C49.1005 54.9028 48.9707 54.5023 48.7174 54.1822C48.464 53.8621 48.104 53.6439 47.703 53.5674Z" fill="white" stroke="#263238" stroke-width="0.87381" stroke-linecap="round" stroke-linejoin="round"/>
<path d="M36.2424 52.089H35.8358V53.5366H36.2424V52.089Z" fill="white" stroke="#263238" stroke-width="0.87381" stroke-linecap="round" stroke-linejoin="round"/>
<path d="M48.664 52.089H48.2574V53.5366H48.664V52.089Z" fill="white" stroke="#263238" stroke-width="0.87381" stroke-linecap="round" stroke-linejoin="round"/>
<path d="M42.2484 45.7657C40.5193 45.7654 38.8575 46.4357 37.6127 47.6358C36.3679 48.8358 35.637 50.4719 35.574 52.1998C35.5728 52.232 35.5781 52.2641 35.5896 52.2942C35.6012 52.3242 35.6187 52.3516 35.6412 52.3747C35.6637 52.3977 35.6906 52.416 35.7204 52.4283C35.7501 52.4406 35.7821 52.4467 35.8143 52.4462H36.2455C36.3081 52.4463 36.3683 52.4218 36.4132 52.3781C36.4581 52.3343 36.4841 52.2748 36.4857 52.2122C36.5543 50.7299 37.1913 49.331 38.2646 48.3063C39.3378 47.2816 40.7645 46.7098 42.2484 46.7098C43.7322 46.7098 45.159 47.2816 46.2322 48.3063C47.3054 49.331 47.9425 50.7299 48.0111 52.2122C48.0135 52.2751 48.0402 52.3346 48.0855 52.3783C48.1309 52.4219 48.1914 52.4463 48.2544 52.4462H48.6825C48.7148 52.4467 48.7469 52.4406 48.7768 52.4283C48.8068 52.416 48.8339 52.3978 48.8566 52.3748C48.8793 52.3518 48.8972 52.3245 48.9091 52.2944C48.921 52.2643 48.9267 52.2322 48.9258 52.1998C48.8621 50.4716 48.1306 48.8355 46.8852 47.6356C45.6399 46.4356 43.9778 45.7653 42.2484 45.7657Z" fill="white" stroke="#263238" stroke-width="0.87381" stroke-linecap="round" stroke-linejoin="round"/>
<path d="M36.9353 53.0161H36.8429C36.2977 53.0369 35.7818 53.2681 35.4034 53.6612C35.0251 54.0543 34.8137 54.5787 34.8137 55.1243C34.8137 55.6699 35.0251 56.1943 35.4034 56.5874C35.7818 56.9805 36.2977 57.2117 36.8429 57.2326H36.9353V53.0161Z" fill="#263238" stroke="#263238" stroke-width="0.87381" stroke-miterlimit="10"/>
<path d="M37.4374 55.132C37.4374 56.6936 37.5051 57.71 36.9661 57.71C36.4271 57.71 36.2423 56.6936 36.2423 55.132C36.2423 53.5704 36.4271 52.551 36.9661 52.551C37.5051 52.551 37.4374 53.555 37.4374 55.132Z" fill="white" stroke="#263238" stroke-width="0.87381" stroke-linecap="round" stroke-linejoin="round"/>
<path d="M47.5645 53.0161H47.6569C48.2021 53.0369 48.718 53.2681 49.0963 53.6612C49.4747 54.0543 49.6861 54.5787 49.6861 55.1243C49.6861 55.6699 49.4747 56.1943 49.0963 56.5874C48.718 56.9805 48.2021 57.2117 47.6569 57.2326H47.5645V53.0161Z" fill="#263238" stroke="#263238" stroke-width="0.87381" stroke-miterlimit="10"/>
<path d="M47.0593 55.132C47.0593 56.6936 46.9946 57.71 47.5336 57.71C48.0726 57.71 48.2574 56.6936 48.2574 55.132C48.2574 53.5704 48.0726 52.551 47.5336 52.551C46.9946 52.551 47.0593 53.555 47.0593 55.132Z" fill="white" stroke="#263238" stroke-width="0.87381" stroke-linecap="round" stroke-linejoin="round"/>
<path d="M38.6448 55.5108C38.6448 55.5108 39.5226 56.5919 41.1673 55.7388" stroke="#263238" stroke-width="0.87381" stroke-linecap="round" stroke-linejoin="round"/>
<path d="M41.1672 59.7151C41.5303 59.9788 41.9675 60.1208 42.4162 60.1208C42.8649 60.1208 43.3021 59.9788 43.6651 59.7151" stroke="#263238" stroke-width="0.75" stroke-linecap="round" stroke-linejoin="round"/>
<path d="M38.4014 54.0602C38.4014 54.0602 39.9937 52.8466 41.4105 54.0602" stroke="#263238" stroke-width="0.87381" stroke-linecap="round" stroke-linejoin="round"/>
<path d="M46.2216 54.1002C46.2216 54.1002 44.6292 52.8682 43.2124 54.1002" stroke="#263238" stroke-width="0.87381" stroke-linecap="round" stroke-linejoin="round"/>
<path d="M43.5727 58.0149C43.5727 58.0149 43.7144 58.8034 42.2699 58.7849C41.9157 58.7849 41.2719 58.5323 41.2504 58.0149" stroke="#263238" stroke-width="0.75" stroke-linecap="round" stroke-linejoin="round"/>
<path d="M38.9897 55.7973C39.1222 56.0591 39.4209 56.3609 40.0893 56.3763C40.7577 56.3917 40.8747 56.1268 40.887 55.8681C40.5892 56.0126 40.2604 56.0818 39.9295 56.0694C39.5987 56.0571 39.276 55.9636 38.9897 55.7973Z" fill="#263238"/>
<path d="M45.9905 55.5108C45.9905 55.5108 45.1127 56.5919 43.468 55.7388" stroke="#263238" stroke-width="0.87381" stroke-linecap="round" stroke-linejoin="round"/>
<path d="M45.6456 55.7973C45.5131 56.0591 45.2144 56.3609 44.546 56.3763C43.8777 56.3917 43.7606 56.1268 43.7483 55.8681C44.0461 56.0129 44.3749 56.0822 44.7058 56.0698C45.0367 56.0575 45.3594 55.9639 45.6456 55.7973Z" fill="#263238"/>
<path d="M39.5379 44.0255C39.5379 44.0255 38.7279 44.4783 38.8172 45.7657C38.8172 45.7657 38.5338 44.8972 37.4928 45.276" stroke="#263238" stroke-width="0.87381" stroke-linecap="round" stroke-linejoin="round"/>
<path d="M42.43 66.836C43.4916 66.8358 44.5272 66.5075 45.395 65.896C46.2629 65.2846 46.9205 64.4199 47.278 63.4203C46.9977 63.3772 46.7205 63.3402 46.4525 63.3033C46.0304 63.9906 45.4392 64.5583 44.7353 64.9521C44.0313 65.3459 43.2382 65.5526 42.4316 65.5526C41.625 65.5526 40.8319 65.3459 40.1279 64.9521C39.424 64.5583 38.8327 63.9906 38.4106 63.3033C38.1427 63.3402 37.8655 63.3772 37.5852 63.4203C37.9425 64.4194 38.5997 65.2837 39.4669 65.8951C40.3341 66.5065 41.369 66.8351 42.43 66.836Z" fill="#263238" stroke="#263238" stroke-width="0.87381" stroke-linecap="round" stroke-linejoin="round"/>
<path d="M54.2911 81.5676C54.4267 78.5657 54.5632 75.5627 54.7008 72.5586" stroke="#263238" stroke-width="0.87381" stroke-linecap="round" stroke-linejoin="round"/>
<path d="M54.3928 50.8847V47.5675C54.3928 47.4042 54.3279 47.2475 54.2124 47.132C54.0968 47.0164 53.9401 46.9515 53.7768 46.9515H48.5839C48.4205 46.9515 48.2638 47.0164 48.1483 47.132C48.0328 47.2475 47.9679 47.4042 47.9679 47.5675V50.8847C47.9679 51.0481 48.0328 51.2048 48.1483 51.3203C48.2638 51.4358 48.4205 51.5007 48.5839 51.5007H50.3949L50.2502 52.7635H51.1742V53.9555L52.2799 52.012H51.3713L51.4668 51.5007H53.7737C53.8548 51.5011 53.9353 51.4855 54.0104 51.4547C54.0855 51.4239 54.1537 51.3786 54.2113 51.3214C54.2688 51.2641 54.3144 51.1961 54.3456 51.1211C54.3767 51.0462 54.3928 50.9659 54.3928 50.8847Z" fill="white" stroke="#263238" stroke-width="0.87381" stroke-linecap="round" stroke-linejoin="round"/>
<path d="M48.9719 48.1004H52.4924" stroke="#263238" stroke-width="0.87381" stroke-linecap="round" stroke-linejoin="round"/>
<path d="M48.9719 49.0398H53.3979" stroke="#263238" stroke-width="0.87381" stroke-linecap="round" stroke-linejoin="round"/>
<path d="M48.9719 49.9792H52.7172" stroke="#263238" stroke-width="0.87381" stroke-linecap="round" stroke-linejoin="round"/>
<path d="M70.3472 88.6116C70.3472 89.591 68.8072 90.204 66.9161 90.204C65.025 90.204 63.485 89.588 63.485 88.6116C63.485 87.6352 65.025 86.8344 66.9161 86.8344C68.8072 86.8344 70.3472 87.6291 70.3472 88.6116Z" fill="white" stroke="#263238" stroke-width="0.87381" stroke-linecap="round" stroke-linejoin="round"/>
<path d="M64.6953 89.8498C64.7877 89.8282 64.8617 89.3108 64.027 88.9258C63.4479 88.6609 63.4325 88.3806 63.7652 88.0356C64.0978 87.6907 64.6645 87.4012 65.1019 87.5274C65.8134 87.7307 66.2846 89.2122 66.6019 88.8919C67.0793 88.7687 66.5033 87.4104 65.6501 86.9638C67.1901 87.3457 67.2641 89.1198 67.9725 88.9781C68.5145 88.8734 67.5782 87.1117 66.7682 86.5911C67.2873 86.833 67.7413 87.1952 68.0926 87.6476C68.6069 88.396 68.6655 88.6486 69.0166 88.5408C69.4724 88.396 68.3852 86.7513 68.2497 86.5726C68.9334 86.8437 69.0628 87.4166 69.2722 87.6476C69.4817 87.8786 69.5802 88.2636 69.8697 88.1126C70.1593 87.9617 69.8913 87.4258 69.6973 87.1116C68.7733 85.6178 67.2333 85.3684 65.7672 85.5532C64.6091 85.701 63.2785 86.1876 62.5732 87.1116C62.3938 87.3419 62.2883 87.6212 62.2707 87.9126C62.2531 88.204 62.3242 88.4939 62.4747 88.7441C62.7211 89.2646 63.6019 90.0962 64.6953 89.8498Z" fill="white" stroke="#263238" stroke-width="0.87381" stroke-linecap="round" stroke-linejoin="round"/>
<path d="M71.2465 90.2163H14.5653C14.3969 90.2163 14.2604 90.3528 14.2604 90.5212V91.0109C14.2604 91.1793 14.3969 91.3158 14.5653 91.3158H71.2465C71.4149 91.3158 71.5515 91.1793 71.5515 91.0109V90.5212C71.5515 90.3528 71.4149 90.2163 71.2465 90.2163Z" fill="#BFBFBF" stroke="#263238" stroke-width="0.87381" stroke-miterlimit="10"/>
<path d="M16.2285 90.2163L12.0582 77.5421C12.0425 77.4927 12.0384 77.4404 12.0463 77.3892C12.0541 77.338 12.0738 77.2893 12.1036 77.2469C12.1334 77.2046 12.1726 77.1697 12.2182 77.145C12.2638 77.1203 12.3144 77.1066 12.3662 77.1047H25.5393L30.2302 90.2163H16.2285Z" fill="#263238"/>
<path d="M25.8997 77.1047L30.2117 89.4802H41.7617V89.9144C41.7617 89.9961 41.7292 90.0745 41.6715 90.1322C41.6137 90.19 41.5354 90.2224 41.4537 90.2224H29.4725L25.3237 77.616C25.3053 77.5594 25.3005 77.4992 25.3097 77.4404C25.3189 77.3816 25.3418 77.3258 25.3766 77.2775C25.4114 77.2292 25.4571 77.1898 25.51 77.1624C25.5629 77.1351 25.6215 77.1206 25.681 77.1201L25.8997 77.1047Z" fill="white" stroke="#263238" stroke-width="0.87381" stroke-linecap="round" stroke-linejoin="round"/>
<path d="M19.7828 83.6621C19.7421 83.4467 19.6418 83.2472 19.4933 83.0861C19.5578 83.0099 19.6386 82.9493 19.7298 82.9087C19.821 82.8682 19.9202 82.8488 20.02 82.852C20.2528 82.8619 20.476 82.9476 20.6555 83.0961C20.8351 83.2445 20.9613 83.4476 21.0148 83.6744C21.0433 83.7726 21.048 83.8762 21.0284 83.9766C21.0089 84.0769 20.9657 84.1712 20.9025 84.2516C20.8393 84.332 20.7578 84.3961 20.6649 84.4388C20.5719 84.4814 20.4702 84.5013 20.368 84.4967C20.1318 84.4913 19.905 84.403 19.7274 84.2472C19.8162 84.0654 19.8359 83.8574 19.7828 83.6621Z" fill="white"/>
<path d="M46.471 90.2163H50.6814C51.2423 89.8057 51.6968 89.2668 52.007 88.6448C52.3173 88.0227 52.4742 87.3355 52.4647 86.6404V84.66C52.4647 84.5847 52.4499 84.5102 52.4211 84.4407C52.3923 84.3712 52.3501 84.3081 52.2969 84.2549C52.2437 84.2017 52.1806 84.1595 52.1111 84.1307C52.0416 84.1019 51.9671 84.0871 51.8918 84.0871H45.276C45.2009 84.0871 45.1266 84.1019 45.0572 84.1308C44.9879 84.1596 44.925 84.2018 44.872 84.2551C44.8191 84.3083 44.7771 84.3715 44.7487 84.441C44.7202 84.5105 44.7058 84.5849 44.7062 84.66V86.6404C44.6944 87.3339 44.8483 88.0202 45.1553 88.6422C45.4623 89.2642 45.9134 89.8039 46.471 90.2163Z" fill="white" stroke="#263238" stroke-width="0.87381" stroke-linecap="round" stroke-linejoin="round"/>
<path d="M53.6597 84.931C53.4823 84.8193 53.2789 84.7555 53.0695 84.7458C52.86 84.7361 52.6517 84.7808 52.4646 84.8756V85.5901C52.6471 85.5596 52.8344 85.5968 52.9913 85.6948C53.5858 86.0398 53.4595 86.7451 53.0437 87.4628C52.8535 87.8695 52.5265 88.1966 52.1197 88.3868C51.9981 88.6831 51.8442 88.9651 51.6608 89.2276C52.4523 89.4001 53.1761 88.7286 53.7428 87.7492C54.4081 86.5973 54.6083 85.4792 53.6597 84.931Z" fill="white" stroke="#263238" stroke-width="0.87381" stroke-linecap="round" stroke-linejoin="round"/>
<path d="M48.664 80.967C48.8171 80.4682 48.8929 79.9488 48.8889 79.427C48.8889 76.5318 46.1661 76.19 46.1661 72.9005" stroke="#263238" stroke-width="0.87381" stroke-linecap="round" stroke-linejoin="round"/>
<path d="M46.7328 83.5204C47.226 83.2132 47.6523 82.8099 47.9864 82.3346" stroke="#263238" stroke-width="0.87381" stroke-linecap="round" stroke-linejoin="round"/>
<path d="M48.4268 75.6602C48.2746 75.3775 48.2113 75.0555 48.2451 74.7362" stroke="#263238" stroke-width="0.87381" stroke-linecap="round" stroke-linejoin="round"/>
<path d="M50.549 79.7258C50.4104 78.8203 49.8898 77.9702 49.3755 77.1971" stroke="#263238" stroke-width="0.87381" stroke-linecap="round" stroke-linejoin="round"/>
<path d="M48.9719 83.5542C48.9719 83.5542 49.8713 83.1754 50.3641 81.466" stroke="#263238" stroke-width="0.87381" stroke-linecap="round" stroke-linejoin="round"/>
<path d="M54.4728 107.375H31.4098C29.7258 107.375 28.3606 108.74 28.3606 110.424V125.67C28.3606 127.354 29.7258 128.719 31.4098 128.719H54.4728C56.1569 128.719 57.522 127.354 57.522 125.67V110.424C57.522 108.74 56.1569 107.375 54.4728 107.375Z" fill="white" stroke="#263238" stroke-width="0.87381" stroke-miterlimit="10"/>
<path d="M35.651 122.06L35.999 128.15L36.0391 128.202C36.3147 128.572 36.6738 128.871 37.0872 129.076C37.5006 129.281 37.9566 129.385 38.4178 129.38C38.8791 129.374 39.3326 129.26 39.7414 129.047C40.1502 128.833 40.5026 128.525 40.77 128.15L40.8993 122.06H35.651Z" fill="white" stroke="#263238" stroke-width="0.87381" stroke-linecap="round" stroke-linejoin="round"/>
<path d="M42.0512 134.1C39.7148 134.51 37.3251 134.51 34.9887 134.1C34.7706 133.884 34.5831 133.64 34.4313 133.373C34.1951 132.953 34.0617 132.483 34.0419 132.001C34.0221 131.519 34.1165 131.04 34.3173 130.601L35.7249 128.091L41.3027 128.153L42.5594 130.444C42.8609 130.988 42.9909 131.61 42.932 132.229C42.8732 132.848 42.6284 133.435 42.2298 133.912C42.1736 133.978 42.114 134.041 42.0512 134.1Z" fill="#BFBFBF" stroke="#263238" stroke-width="0.87381" stroke-miterlimit="10"/>
<path d="M40.6807 130.94C41.0257 131.092 41.3548 131.278 41.6632 131.494L40.6807 130.94Z" fill="#BFBFBF"/>
<path d="M40.6807 130.94C41.0257 131.092 41.3548 131.278 41.6632 131.494" stroke="#263238" stroke-width="0.87381" stroke-miterlimit="10"/>
<path d="M35.4199 131.494C36.0321 131.075 36.7214 130.782 37.4479 130.631C38.1743 130.481 38.9235 130.476 39.6518 130.617" fill="#BFBFBF"/>
<path d="M35.4199 131.494C36.0321 131.075 36.7214 130.782 37.4479 130.631C38.1743 130.481 38.9235 130.476 39.6518 130.617" stroke="#263238" stroke-width="0.87381" stroke-miterlimit="10"/>
<path d="M32.648 96.9307L35.112 125.168H41.4845C41.4845 125.168 42.1159 107.92 42.5163 96.7213C42.5425 96.0569 42.434 95.3942 42.1973 94.7729C41.9606 94.1516 41.6007 93.5846 41.1391 93.106C40.6776 92.6275 40.124 92.2473 39.5116 91.9884C38.8993 91.7294 38.2409 91.597 37.576 91.5992C36.8935 91.5969 36.2179 91.7364 35.5921 92.0089C34.9663 92.2814 34.4039 92.681 33.9406 93.1822C33.4773 93.6834 33.1232 94.2754 32.9007 94.9207C32.6782 95.566 32.5921 96.2504 32.648 96.9307Z" fill="#263238"/>
<path d="M38.9897 91.7994C38.5257 91.6632 38.0442 91.5957 37.5606 91.5992C36.8794 91.599 36.2055 91.7401 35.5815 92.0136C34.9575 92.287 34.397 92.6869 33.9354 93.1879C33.4738 93.6889 33.121 94.2801 32.8994 94.9244C32.6778 95.5686 32.5922 96.2517 32.648 96.9307L33.5227 107.375" stroke="white" stroke-width="0.87381" stroke-linecap="round" stroke-linejoin="round"/>
<path d="M41.6508 93.7244C41.3984 93.3658 41.1013 93.0408 40.7668 92.7573C40.7668 92.7573 40.3818 92.4493 40.2094 92.3507" stroke="white" stroke-width="0.87381" stroke-linecap="round" stroke-linejoin="round"/>
<path d="M42.0944 107.375C42.2206 103.879 42.4178 99.7889 42.5256 96.7212C42.555 95.9596 42.4074 95.2016 42.0944 94.5067" stroke="white" stroke-width="0.87381" stroke-linecap="round" stroke-linejoin="round"/>
<path d="M46.0183 122.06L46.3663 128.15L46.4064 128.202C46.682 128.572 47.0411 128.871 47.4545 129.076C47.8679 129.281 48.3239 129.385 48.7852 129.38C49.2464 129.374 49.6999 129.26 50.1087 129.047C50.5175 128.833 50.8699 128.525 51.1373 128.15L51.2666 122.06H46.0183Z" fill="white" stroke="#263238" stroke-width="0.87381" stroke-linecap="round" stroke-linejoin="round"/>
<path d="M52.4185 134.1C50.0821 134.51 47.6924 134.51 45.356 134.1C45.1384 133.885 44.9518 133.64 44.8016 133.373C44.5643 132.953 44.4299 132.483 44.4096 132.001C44.3892 131.519 44.4835 131.04 44.6846 130.601L46.0952 128.091L51.67 128.153L52.9267 130.444C53.2282 130.988 53.3581 131.61 53.2993 132.229C53.2405 132.848 52.9957 133.435 52.5971 133.912C52.5409 133.978 52.4812 134.041 52.4185 134.1Z" fill="#BFBFBF" stroke="#263238" stroke-width="0.87381" stroke-miterlimit="10"/>
<path d="M51.0479 130.94C51.3932 131.091 51.7224 131.277 52.0304 131.494L51.0479 130.94Z" fill="#BFBFBF"/>
<path d="M51.0479 130.94C51.3932 131.091 51.7224 131.277 52.0304 131.494" stroke="#263238" stroke-width="0.87381" stroke-miterlimit="10"/>
<path d="M45.7935 131.494C46.4057 131.076 47.095 130.782 47.8215 130.632C48.5479 130.481 49.297 130.476 50.0254 130.617" fill="#BFBFBF"/>
<path d="M45.7935 131.494C46.4057 131.076 47.095 130.782 47.8215 130.632C48.5479 130.481 49.297 130.476 50.0254 130.617" stroke="#263238" stroke-width="0.87381" stroke-miterlimit="10"/>
<path d="M43.0245 96.9307L45.4885 125.168H51.861C51.861 125.168 52.4924 107.92 52.8959 96.7212C52.92 96.0554 52.8092 95.3915 52.5702 94.7695C52.3312 94.1476 51.969 93.5803 51.5052 93.1019C51.0415 92.6234 50.4858 92.2437 49.8715 91.9855C49.2573 91.7272 48.5972 91.5959 47.9309 91.5992C47.2502 91.5999 46.577 91.7416 45.9537 92.0154C45.3305 92.2892 44.7707 92.6892 44.3098 93.1901C43.8488 93.691 43.4966 94.282 43.2754 94.9258C43.0542 95.5696 42.9687 96.2522 43.0245 96.9307Z" fill="#263238"/>
<path d="M49.9637 92.0242C49.324 91.7398 48.631 91.5949 47.9309 91.5992C47.2502 91.5999 46.577 91.7416 45.9537 92.0154C45.3305 92.2892 44.7707 92.6892 44.3098 93.1901C43.8488 93.691 43.4966 94.282 43.2754 94.9258C43.0542 95.5696 42.9687 96.2522 43.0245 96.9307L43.9485 107.375" stroke="white" stroke-width="0.87381" stroke-linecap="round" stroke-linejoin="round"/>
<path d="M52.0181 93.7244C51.7673 93.3645 51.4701 93.0393 51.1342 92.7573" stroke="white" stroke-width="0.87381" stroke-linecap="round" stroke-linejoin="round"/>
<path d="M52.7296 107.375C52.8558 103.879 52.785 99.7889 52.8959 96.7212C52.9208 96.0474 52.8076 95.3755 52.5632 94.747" stroke="white" stroke-width="0.87381" stroke-linecap="round" stroke-linejoin="round"/>
<path d="M128.205 48.8704V35.728C128.205 35.0925 127.953 34.483 127.503 34.0336C127.054 33.5842 126.444 33.3318 125.809 33.3318H105.191C104.556 33.3318 103.946 33.5842 103.497 34.0336C103.048 34.483 102.795 35.0925 102.795 35.728V48.8704C102.795 49.5059 103.048 50.1154 103.497 50.5648C103.946 51.0141 104.556 51.2666 105.191 51.2666H112.371L111.804 56.2685H115.5V60.984L119.886 53.284H116.289L116.667 51.2635H125.809C126.444 51.2635 127.053 51.0115 127.502 50.5628C127.951 50.114 128.204 49.5053 128.205 48.8704Z" fill="white" stroke="#263238" stroke-width="1.02547" stroke-linecap="round" stroke-linejoin="round"/>
<path d="M106.731 37.8286H120.671" stroke="#263238" stroke-width="1.02547" stroke-linecap="round" stroke-linejoin="round"/>
<path d="M106.731 41.5523H124.269" stroke="#263238" stroke-width="1.02547" stroke-linecap="round" stroke-linejoin="round"/>
<path d="M106.731 45.276H121.571" stroke="#263238" stroke-width="1.02547" stroke-linecap="round" stroke-linejoin="round"/>
<path d="M143.953 105.145L156.409 109.297L153.319 112.389L159.085 118.155L146.63 114.003L149.719 110.911L143.953 105.145Z" fill="#657EFF" stroke="#263238" stroke-width="1.02547" stroke-linecap="round" stroke-linejoin="round"/>
<path d="M87.047 105.145L74.5914 109.297L77.6807 112.389L71.9149 118.155L84.3704 114.003L81.2812 110.911L87.047 105.145Z" fill="#657EFF" stroke="#263238" stroke-width="1.02547" stroke-linecap="round" stroke-linejoin="round"/>
<path d="M115.152 9.89911L109.278 21.6462H113.652V29.8021L119.523 18.0549H115.152V9.89911Z" fill="#657EFF" stroke="#263238" stroke-width="1.02547" stroke-linecap="round" stroke-linejoin="round"/>
</svg>
