<svg width="227" height="227" viewBox="0 0 227 227" fill="none" xmlns="http://www.w3.org/2000/svg">
<path d="M204.255 180.914H189.218V181.028H204.255V180.914Z" fill="#EBEBEB"/>
<path d="M150.374 182.149H146.429V182.263H150.374V182.149Z" fill="#EBEBEB"/>
<path d="M188.764 176.701H180.052V176.815H188.764V176.701Z" fill="#EBEBEB"/>
<path d="M43.4251 177.464H23.8168V177.578H43.4251V177.464Z" fill="#EBEBEB"/>
<path d="M50.344 177.464H47.4702V177.578H50.344V177.464Z" fill="#EBEBEB"/>
<path d="M102.218 179.38H59.6874V179.493H102.218V179.38Z" fill="#EBEBEB"/>
<path d="M108.234 153.361H20.5662C19.8787 153.361 19.2193 153.088 18.7332 152.602C18.247 152.116 17.9739 151.456 17.9739 150.769V27.5396C17.9799 26.8561 18.2556 26.2025 18.7411 25.7212C19.2266 25.24 19.8826 24.97 20.5662 24.97H108.234C108.574 24.97 108.911 25.0371 109.226 25.1673C109.54 25.2976 109.826 25.4886 110.067 25.7293C110.307 25.97 110.498 26.2558 110.629 26.5703C110.759 26.8848 110.826 27.2219 110.826 27.5623V150.769C110.826 151.109 110.759 151.446 110.629 151.761C110.498 152.075 110.307 152.361 110.067 152.602C109.826 152.843 109.54 153.034 109.226 153.164C108.911 153.294 108.574 153.361 108.234 153.361ZM20.5662 25.0608C19.9092 25.062 19.2794 25.3235 18.8147 25.7882C18.3501 26.2528 18.0886 26.8826 18.0874 27.5396V150.769C18.0886 151.426 18.3501 152.056 18.8147 152.52C19.2794 152.985 19.9092 153.246 20.5662 153.248H108.234C108.891 153.246 109.52 152.985 109.985 152.52C110.45 152.056 110.711 151.426 110.712 150.769V27.5396C110.711 26.8826 110.45 26.2528 109.985 25.7882C109.52 25.3235 108.891 25.062 108.234 25.0608H20.5662Z" fill="#EBEBEB"/>
<path d="M206.434 153.361H118.766C118.079 153.361 117.42 153.088 116.933 152.602C116.447 152.116 116.174 151.456 116.174 150.769V27.5396C116.18 26.8561 116.456 26.2025 116.941 25.7212C117.427 25.24 118.083 24.97 118.766 24.97H206.434C207.121 24.97 207.781 25.2431 208.267 25.7293C208.753 26.2154 209.026 26.8748 209.026 27.5623V150.769C209.026 151.456 208.753 152.116 208.267 152.602C207.781 153.088 207.121 153.361 206.434 153.361ZM118.766 25.0608C118.109 25.062 117.48 25.3235 117.015 25.7882C116.55 26.2528 116.289 26.8826 116.288 27.5396V150.769C116.289 151.426 116.55 152.056 117.015 152.52C117.48 152.985 118.109 153.246 118.766 153.248H206.434C207.091 153.246 207.721 152.985 208.185 152.52C208.65 152.056 208.911 151.426 208.913 150.769V27.5396C208.911 26.8826 208.65 26.2528 208.185 25.7882C207.721 25.3235 207.091 25.062 206.434 25.0608H118.766Z" fill="#EBEBEB"/>
<path d="M227 173.61H0V173.723H227V173.61Z" fill="#EBEBEB"/>
<path d="M54.1758 142.896C53.7945 138.511 49.318 136.872 44.0108 137.335C38.7035 137.798 34.5857 140.191 34.958 144.576L54.1758 142.896Z" fill="#F0F0F0"/>
<path d="M43.8383 135.333C46.2989 135.115 47.0844 133.036 46.871 130.575C46.6576 128.114 45.509 126.203 43.0574 126.416C40.6058 126.63 39.8113 128.714 40.0247 131.174C40.238 133.635 41.3776 135.546 43.8383 135.333Z" fill="#F0F0F0"/>
<path d="M154.405 49.486C154.448 49.9727 154.346 50.4613 154.111 50.8899C153.877 51.3185 153.52 51.6678 153.087 51.8937C152.654 52.1196 152.163 52.2119 151.677 52.1589C151.192 52.1059 150.733 51.91 150.358 51.596C149.984 51.282 149.711 50.864 149.574 50.3949C149.437 49.9258 149.443 49.4267 149.59 48.9607C149.737 48.4947 150.019 48.0828 150.4 47.777C150.781 47.4713 151.245 47.2856 151.731 47.2432C152.383 47.1866 153.031 47.3909 153.532 47.8114C154.034 48.2319 154.348 48.8342 154.405 49.486Z" fill="#F5F5F5"/>
<path d="M168.057 48.2784C168.099 48.7641 167.997 49.2514 167.762 49.6787C167.527 50.106 167.171 50.4541 166.738 50.679C166.305 50.9038 165.816 50.9953 165.331 50.942C164.847 50.8886 164.389 50.6927 164.015 50.3791C163.642 50.0654 163.37 49.6482 163.234 49.18C163.098 48.7118 163.104 48.2138 163.251 47.7489C163.397 47.284 163.679 46.8731 164.059 46.5681C164.44 46.2631 164.902 46.0778 165.388 46.0356C166.039 45.9802 166.685 46.1851 167.186 46.6055C167.686 47.0259 167.999 47.6274 168.057 48.2784Z" fill="#F5F5F5"/>
<path d="M181.713 47.0843C181.757 47.5711 181.654 48.0596 181.42 48.4882C181.185 48.9168 180.828 49.2662 180.395 49.492C179.962 49.7179 179.471 49.8102 178.985 49.7572C178.5 49.7042 178.041 49.5084 177.666 49.1944C177.292 48.8803 177.019 48.4623 176.882 47.9932C176.746 47.5241 176.751 47.025 176.898 46.559C177.045 46.093 177.327 45.6811 177.708 45.3754C178.089 45.0697 178.553 44.8839 179.039 44.8416C179.691 44.7849 180.339 44.9892 180.84 45.4097C181.342 45.8302 181.656 46.4325 181.713 47.0843Z" fill="#F5F5F5"/>
<path d="M155.622 63.3875C155.665 63.8742 155.563 64.3628 155.328 64.7914C155.094 65.22 154.737 65.5693 154.304 65.7952C153.87 66.0211 153.38 66.1134 152.894 66.0604C152.408 66.0074 151.949 65.8115 151.575 65.4975C151.2 65.1835 150.928 64.7655 150.791 64.2964C150.654 63.8273 150.66 63.3282 150.807 62.8622C150.954 62.3962 151.236 61.9843 151.617 61.6785C151.998 61.3728 152.461 61.187 152.948 61.1447C153.6 61.088 154.248 61.2924 154.749 61.7129C155.25 62.1334 155.564 62.7357 155.622 63.3875Z" fill="#F5F5F5"/>
<path d="M169.274 62.198C169.316 62.6837 169.213 63.1711 168.978 63.5984C168.744 64.0257 168.387 64.3738 167.955 64.5986C167.522 64.8235 167.033 64.915 166.548 64.8616C166.063 64.8082 165.605 64.6123 165.232 64.2987C164.859 63.9851 164.587 63.5678 164.451 63.0996C164.315 62.6315 164.32 62.1335 164.467 61.6685C164.614 61.2036 164.896 60.7927 165.276 60.4878C165.656 60.1828 166.119 59.9975 166.604 59.9552C166.927 59.9272 167.252 59.963 167.561 60.0605C167.869 60.158 168.156 60.3154 168.404 60.5237C168.652 60.732 168.856 60.987 169.005 61.2743C169.155 61.5616 169.246 61.8755 169.274 62.198Z" fill="#F5F5F5"/>
<path d="M182.93 60.9994C182.973 61.4862 182.871 61.9747 182.636 62.4033C182.402 62.8319 182.045 63.1812 181.612 63.4071C181.179 63.633 180.688 63.7253 180.202 63.6723C179.716 63.6193 179.257 63.4235 178.883 63.1095C178.509 62.7955 178.236 62.3774 178.099 61.9083C177.962 61.4392 177.968 60.9401 178.115 60.4741C178.262 60.0081 178.544 59.5962 178.925 59.2905C179.306 58.9848 179.769 58.799 180.256 58.7567C180.908 58.7 181.556 58.9043 182.057 59.3248C182.559 59.7453 182.873 60.3476 182.93 60.9994Z" fill="#F5F5F5"/>
<path d="M156.839 77.3071C156.881 77.7929 156.778 78.2802 156.543 78.7075C156.309 79.1348 155.952 79.4829 155.52 79.7077C155.087 79.9326 154.598 80.0241 154.113 79.9707C153.628 79.9173 153.17 79.7214 152.797 79.4078C152.424 79.0942 152.152 78.6769 152.016 78.2088C151.88 77.7406 151.885 77.2426 152.032 76.7777C152.179 76.3128 152.46 75.9018 152.841 75.5969C153.221 75.2919 153.684 75.1066 154.169 75.0644C154.492 75.0357 154.817 75.071 155.126 75.1683C155.435 75.2656 155.722 75.423 155.97 75.6314C156.218 75.8397 156.422 76.095 156.571 76.3826C156.721 76.6702 156.811 76.9844 156.839 77.3071Z" fill="#F5F5F5"/>
<path d="M170.495 76.1086C170.538 76.5953 170.436 77.0839 170.201 77.5125C169.967 77.941 169.61 78.2904 169.177 78.5163C168.743 78.7422 168.253 78.8345 167.767 78.7815C167.281 78.7285 166.822 78.5326 166.448 78.2186C166.074 77.9046 165.801 77.4866 165.664 77.0175C165.527 76.5484 165.533 76.0492 165.68 75.5832C165.827 75.1172 166.109 74.7053 166.49 74.3996C166.871 74.0939 167.334 73.9081 167.821 73.8658C168.473 73.8091 169.121 74.0135 169.622 74.434C170.123 74.8545 170.437 75.4567 170.495 76.1086Z" fill="#F5F5F5"/>
<path d="M184.147 74.91C184.19 75.3967 184.088 75.8853 183.853 76.3139C183.618 76.7425 183.262 77.0918 182.829 77.3177C182.395 77.5436 181.905 77.6359 181.419 77.5829C180.933 77.5299 180.474 77.334 180.1 77.02C179.725 76.706 179.452 76.288 179.316 75.8189C179.179 75.3498 179.184 74.8507 179.331 74.3847C179.478 73.9187 179.76 73.5068 180.142 73.2011C180.523 72.8953 180.986 72.7096 181.473 72.6672C182.125 72.6106 182.773 72.8149 183.274 73.2354C183.775 73.6559 184.089 74.2582 184.147 74.91Z" fill="#F5F5F5"/>
<path d="M181.196 75.7181L153.148 78.1697L178.018 47.9515L152.544 50.1806C152.473 50.1875 152.401 50.18 152.333 50.1587C152.265 50.1374 152.201 50.1027 152.147 50.0566C152.092 50.0105 152.048 49.9539 152.015 49.8902C151.983 49.8265 151.963 49.757 151.958 49.6858C151.946 49.5431 151.99 49.4012 152.082 49.2914C152.174 49.1816 152.306 49.1128 152.449 49.1001L180.501 46.6485L155.627 76.8667L181.11 74.6376C181.253 74.6262 181.396 74.6717 181.506 74.7643C181.616 74.8568 181.686 74.9891 181.7 75.1325C181.705 75.204 181.697 75.276 181.674 75.3443C181.652 75.4125 181.617 75.4756 181.57 75.5301C181.523 75.5845 181.466 75.6291 181.402 75.6614C181.337 75.6937 181.268 75.7129 181.196 75.7181Z" fill="#E6E6E6"/>
<path d="M181.627 129.667C181.584 129.535 181.503 129.418 181.394 129.332C181.285 129.245 181.153 129.193 181.014 129.181C179.795 129.125 178.64 128.615 177.777 127.751C176.656 126.621 175.998 124.909 175.889 122.875C175.878 122.692 175.798 122.519 175.665 122.392C175.532 122.266 175.355 122.195 175.171 122.194C175.072 122.195 174.974 122.215 174.883 122.255C174.791 122.294 174.709 122.352 174.641 122.424C174.573 122.496 174.52 122.581 174.485 122.674C174.451 122.767 174.436 122.867 174.44 122.966C174.568 125.354 175.376 127.397 176.751 128.773C177.829 129.852 179.258 130.507 180.778 130.62H180.883C181.002 130.629 181.122 130.609 181.231 130.561C181.341 130.512 181.437 130.437 181.51 130.343C181.584 130.249 181.633 130.138 181.654 130.02C181.674 129.902 181.665 129.781 181.627 129.667Z" fill="#F0F0F0"/>
<path d="M180.174 138.379C174.159 137.853 169.819 133.753 168.448 127.352C168.426 127.255 168.424 127.156 168.441 127.059C168.459 126.962 168.496 126.869 168.55 126.787C168.605 126.705 168.675 126.634 168.757 126.58C168.839 126.526 168.932 126.489 169.029 126.471C169.212 126.438 169.402 126.477 169.557 126.581C169.713 126.684 169.823 126.843 169.864 127.025C171.094 132.777 174.953 136.463 180.306 136.931C186.172 137.444 192.469 133.585 193.599 123.86C193.619 123.671 193.712 123.496 193.859 123.375C194.006 123.253 194.195 123.195 194.385 123.211C194.481 123.219 194.574 123.246 194.66 123.291C194.745 123.336 194.821 123.397 194.883 123.471C194.944 123.546 194.99 123.632 195.017 123.725C195.045 123.817 195.054 123.914 195.043 124.01C193.958 133.181 187.929 139.056 180.174 138.379Z" fill="#F0F0F0"/>
<path d="M168.824 120.973C168.728 120.965 168.635 120.938 168.549 120.893C168.464 120.848 168.388 120.787 168.326 120.712C168.265 120.638 168.219 120.552 168.192 120.459C168.164 120.367 168.156 120.27 168.166 120.174C169.247 111.003 175.276 105.124 183.026 105.805C189.836 106.399 194.398 111.484 195.111 119.143C195.118 119.239 195.107 119.336 195.076 119.428C195.046 119.519 194.998 119.604 194.934 119.676C194.871 119.749 194.794 119.808 194.707 119.851C194.62 119.893 194.526 119.918 194.43 119.924C194.241 119.933 194.055 119.868 193.913 119.742C193.77 119.617 193.682 119.441 193.667 119.252C193.009 112.351 188.937 107.78 182.903 107.253C177.06 106.74 170.736 110.594 169.61 120.31C169.602 120.405 169.575 120.498 169.531 120.583C169.488 120.667 169.427 120.743 169.355 120.804C169.282 120.866 169.197 120.912 169.106 120.941C169.015 120.97 168.92 120.981 168.824 120.973Z" fill="#F0F0F0"/>
<path d="M180.47 134.488C179.391 134.402 178.334 134.138 177.341 133.708C177.249 133.667 177.166 133.608 177.097 133.533C177.029 133.459 176.977 133.371 176.944 133.276C176.911 133.18 176.898 133.079 176.906 132.978C176.915 132.877 176.944 132.779 176.992 132.691C177.077 132.535 177.217 132.416 177.385 132.357C177.552 132.298 177.736 132.304 177.9 132.373C178.846 132.779 179.858 133.013 180.887 133.063C185.332 133.317 190.026 130.166 190.489 122.557C190.771 117.867 189.164 114.081 186.167 112.27C186.012 112.176 185.898 112.027 185.846 111.853C185.795 111.68 185.811 111.493 185.89 111.33C185.935 111.24 185.999 111.16 186.076 111.095C186.153 111.031 186.243 110.983 186.34 110.954C186.436 110.926 186.538 110.917 186.638 110.93C186.738 110.942 186.834 110.975 186.921 111.026C190.394 113.123 192.255 117.382 191.938 122.644C191.484 129.98 186.916 134.865 180.801 134.516L180.47 134.488Z" fill="#F0F0F0"/>
<path d="M174.005 129.962C173.921 130.019 173.827 130.057 173.727 130.076C173.628 130.094 173.526 130.092 173.428 130.07C173.329 130.047 173.237 130.005 173.156 129.945C173.074 129.885 173.006 129.809 172.956 129.721C171.61 127.219 171.019 124.381 171.253 121.549C171.68 114.526 175.889 109.745 181.605 109.664C181.705 109.662 181.805 109.68 181.898 109.719C181.991 109.757 182.075 109.815 182.145 109.887C182.215 109.959 182.269 110.046 182.304 110.14C182.34 110.234 182.355 110.335 182.349 110.435C182.338 110.617 182.259 110.788 182.128 110.914C181.996 111.04 181.823 111.112 181.641 111.116C177.4 111.198 173.142 114.403 172.706 121.636C172.486 124.191 173.013 126.756 174.222 129.018C174.313 129.175 174.342 129.36 174.301 129.537C174.261 129.714 174.155 129.869 174.005 129.971V129.962Z" fill="#F0F0F0"/>
<path d="M183.929 129.39C183.86 129.229 183.852 129.048 183.906 128.881C183.961 128.714 184.074 128.572 184.224 128.482C186.135 127.333 187.307 124.923 187.325 122.013C187.325 119.683 186.667 117.713 185.423 116.465C184.94 115.986 184.364 115.611 183.731 115.363C183.098 115.114 182.42 114.998 181.741 115.021C179.503 115.021 177.687 116.251 176.683 118.412C176.606 118.577 176.469 118.706 176.301 118.774C176.133 118.842 175.945 118.844 175.775 118.78C175.681 118.745 175.594 118.691 175.521 118.62C175.449 118.55 175.391 118.466 175.353 118.372C175.315 118.279 175.296 118.179 175.298 118.078C175.301 117.977 175.324 117.877 175.367 117.786C176.611 115.139 178.94 113.573 181.723 113.568C182.594 113.546 183.462 113.7 184.272 114.021C185.083 114.343 185.82 114.825 186.44 115.439C187.961 116.964 188.787 119.302 188.769 122.026C188.741 125.454 187.298 128.332 184.946 129.744C184.857 129.793 184.759 129.822 184.658 129.831C184.557 129.839 184.455 129.826 184.359 129.793C184.263 129.759 184.175 129.706 184.101 129.637C184.027 129.567 183.969 129.483 183.929 129.39Z" fill="#F0F0F0"/>
<path d="M178.699 124.028C178.602 124.068 178.498 124.086 178.393 124.081C178.288 124.077 178.186 124.05 178.093 124.002C178 123.954 177.918 123.886 177.853 123.804C177.789 123.722 177.743 123.626 177.718 123.524C177.668 123.329 177.632 123.125 177.6 122.916C177.187 120.192 178.649 117.836 180.996 117.413C181.543 117.295 182.109 117.305 182.651 117.445C183.193 117.584 183.694 117.849 184.115 118.217C184.194 118.287 184.256 118.374 184.297 118.472C184.338 118.57 184.356 118.675 184.35 118.781C184.344 118.886 184.315 118.989 184.264 119.082C184.213 119.174 184.142 119.254 184.056 119.316L184.011 119.348C183.875 119.442 183.71 119.487 183.545 119.475C183.379 119.462 183.223 119.393 183.103 119.279C182.848 119.064 182.547 118.912 182.223 118.833C181.899 118.754 181.562 118.751 181.237 118.825C179.448 119.148 178.767 121.009 179.021 122.68C179.048 122.843 179.076 123.002 179.117 123.134C179.16 123.305 179.141 123.486 179.062 123.644C178.982 123.801 178.849 123.925 178.685 123.992L178.699 124.028Z" fill="#F0F0F0"/>
<path d="M181.101 126.825C180.986 126.814 180.876 126.773 180.782 126.708C180.687 126.643 180.611 126.554 180.56 126.451C180.509 126.348 180.485 126.233 180.491 126.118C180.496 126.004 180.531 125.892 180.592 125.794L180.656 125.694C180.721 125.59 180.813 125.506 180.923 125.451C181.033 125.396 181.155 125.372 181.278 125.381C181.505 125.394 181.734 125.381 181.959 125.34C183.52 125.059 184.229 123.606 184.229 122.126C184.224 121.948 184.284 121.775 184.398 121.638C184.511 121.501 184.671 121.41 184.846 121.381C184.947 121.366 185.05 121.372 185.148 121.399C185.246 121.426 185.338 121.473 185.417 121.538C185.495 121.603 185.56 121.683 185.605 121.774C185.651 121.865 185.677 121.965 185.681 122.067C185.722 124.437 184.319 126.394 182.217 126.77C181.849 126.839 181.474 126.857 181.101 126.825Z" fill="#F0F0F0"/>
<path d="M181.423 124.142C181.056 124.111 180.709 123.966 180.428 123.727C180.148 123.489 179.95 123.169 179.861 122.812C179.836 122.711 179.834 122.605 179.858 122.504C179.881 122.403 179.928 122.308 179.995 122.229C180.062 122.15 180.147 122.087 180.243 122.047C180.339 122.007 180.443 121.991 180.547 121.999H180.715C180.842 122.012 180.962 122.062 181.061 122.143C181.161 122.223 181.234 122.331 181.273 122.453C181.289 122.516 181.324 122.573 181.374 122.615C181.423 122.658 181.485 122.683 181.55 122.689C181.9 122.721 181.959 122.235 181.968 122.117C181.989 121.94 181.956 121.761 181.872 121.604C181.747 121.452 181.682 121.26 181.691 121.064C181.702 120.919 181.757 120.782 181.847 120.669C181.937 120.555 182.059 120.472 182.197 120.428C182.335 120.385 182.483 120.384 182.622 120.425C182.76 120.466 182.884 120.548 182.976 120.66C183.33 121.107 183.493 121.677 183.43 122.244C183.312 123.438 182.472 124.233 181.423 124.142Z" fill="#F0F0F0"/>
<path d="M167.767 107.893C167.672 107.885 167.579 107.858 167.495 107.815C167.41 107.771 167.335 107.71 167.274 107.637C167.213 107.564 167.167 107.48 167.138 107.389C167.11 107.298 167.1 107.203 167.108 107.108L167.658 100.811L173.955 101.365C174.05 101.373 174.142 101.399 174.227 101.443C174.311 101.487 174.386 101.547 174.447 101.62C174.509 101.693 174.555 101.778 174.583 101.869C174.612 101.959 174.622 102.055 174.613 102.15C174.605 102.245 174.578 102.338 174.534 102.423C174.491 102.507 174.431 102.583 174.358 102.644C174.285 102.706 174.2 102.752 174.109 102.781C174.018 102.81 173.923 102.821 173.828 102.813L168.979 102.386L168.557 107.235C168.548 107.33 168.521 107.422 168.476 107.507C168.432 107.592 168.372 107.667 168.298 107.728C168.225 107.789 168.14 107.835 168.049 107.863C167.958 107.892 167.862 107.902 167.767 107.893Z" fill="#F0F0F0"/>
<path d="M197.699 110.513C197.604 110.505 197.512 110.478 197.427 110.434C197.342 110.39 197.267 110.33 197.206 110.257C197.145 110.184 197.099 110.1 197.07 110.009C197.042 109.918 197.032 109.822 197.041 109.727L197.463 104.879L192.614 104.456C192.519 104.448 192.426 104.421 192.342 104.376C192.257 104.332 192.182 104.271 192.121 104.198C192.06 104.125 192.014 104.04 191.985 103.949C191.957 103.857 191.947 103.761 191.956 103.666C191.964 103.571 191.99 103.479 192.034 103.394C192.078 103.31 192.138 103.235 192.211 103.174C192.284 103.112 192.369 103.066 192.46 103.038C192.551 103.009 192.646 102.999 192.741 103.008L199.038 103.557L198.489 109.868C198.468 110.058 198.374 110.232 198.226 110.352C198.078 110.473 197.889 110.531 197.699 110.513Z" fill="#F0F0F0"/>
<path d="M195.47 144.372L189.173 143.823C189.078 143.814 188.985 143.787 188.9 143.743C188.816 143.698 188.741 143.638 188.68 143.564C188.619 143.491 188.572 143.406 188.544 143.315C188.516 143.224 188.506 143.128 188.514 143.033C188.522 142.938 188.549 142.845 188.593 142.761C188.637 142.676 188.697 142.601 188.77 142.54C188.843 142.479 188.927 142.433 189.018 142.404C189.109 142.376 189.205 142.366 189.3 142.374L194.149 142.797L194.571 137.952C194.579 137.857 194.606 137.764 194.65 137.679C194.694 137.594 194.754 137.518 194.828 137.457C194.901 137.395 194.986 137.348 195.078 137.32C195.169 137.291 195.265 137.281 195.361 137.29C195.456 137.298 195.548 137.324 195.633 137.368C195.717 137.412 195.792 137.472 195.853 137.545C195.915 137.618 195.961 137.703 195.989 137.794C196.018 137.885 196.028 137.98 196.019 138.075L195.47 144.372Z" fill="#F0F0F0"/>
<path d="M170.386 142.166L164.089 141.612L164.639 135.319C164.657 135.127 164.75 134.95 164.898 134.826C165.046 134.702 165.236 134.641 165.429 134.656C165.524 134.665 165.616 134.692 165.701 134.737C165.785 134.781 165.86 134.841 165.922 134.915C165.983 134.988 166.029 135.073 166.057 135.164C166.085 135.255 166.096 135.351 166.087 135.446L165.665 140.286L170.509 140.713C170.604 140.721 170.697 140.747 170.781 140.791C170.866 140.835 170.941 140.895 171.003 140.968C171.065 141.041 171.111 141.125 171.14 141.216C171.169 141.307 171.18 141.403 171.172 141.498C171.155 141.691 171.064 141.869 170.917 141.994C170.769 142.119 170.579 142.181 170.386 142.166Z" fill="#F0F0F0"/>
<path d="M33.9274 128.541C33.8091 128.55 33.692 128.512 33.6012 128.436C33.5104 128.359 33.4531 128.251 33.4416 128.132L33.1057 124.264L36.9737 123.924C37.092 123.915 37.2091 123.953 37.2999 124.029C37.3907 124.106 37.448 124.214 37.4595 124.332C37.4671 124.45 37.4288 124.566 37.3525 124.656C37.2763 124.746 37.1681 124.802 37.0509 124.814L34.0727 125.077L34.3315 128.055C34.3404 128.173 34.3032 128.289 34.2278 128.38C34.1524 128.471 34.0446 128.528 33.9274 128.541Z" fill="#E0E0E0"/>
<path d="M52.3326 126.929C52.215 126.938 52.0985 126.901 52.0078 126.826C51.9172 126.75 51.8594 126.642 51.8468 126.525L51.588 123.542L48.6052 123.806C48.4869 123.815 48.3698 123.777 48.279 123.7C48.1883 123.624 48.131 123.515 48.1194 123.397C48.1106 123.279 48.1484 123.162 48.2247 123.071C48.3011 122.98 48.41 122.923 48.528 122.911L52.3961 122.575L52.7366 126.444C52.7456 126.561 52.7084 126.678 52.633 126.768C52.5575 126.859 52.4498 126.917 52.3326 126.929Z" fill="#E0E0E0"/>
<path d="M54.2394 143.596L50.3668 143.936C50.2484 143.945 50.1314 143.907 50.0406 143.831C49.9498 143.755 49.8925 143.646 49.881 143.528C49.8721 143.409 49.9099 143.292 49.9863 143.201C50.0626 143.111 50.1715 143.053 50.2896 143.042L53.2678 142.783L53.009 139.805C53.0001 139.687 53.0373 139.571 53.1127 139.48C53.1881 139.389 53.2958 139.332 53.4131 139.319C53.5307 139.31 53.6471 139.347 53.7378 139.423C53.8285 139.498 53.8862 139.606 53.8989 139.723L54.2394 143.596Z" fill="#E0E0E0"/>
<path d="M38.8124 144.944L34.958 145.28L34.6175 141.407C34.6098 141.29 34.6482 141.174 34.7244 141.084C34.8007 140.994 34.9088 140.938 35.0261 140.926C35.1429 140.918 35.2582 140.956 35.3479 141.031C35.4376 141.107 35.4947 141.214 35.5073 141.33L35.7706 144.313L38.7489 144.05C38.8672 144.041 38.9842 144.079 39.075 144.155C39.1658 144.231 39.2231 144.34 39.2347 144.458C39.239 144.518 39.2315 144.578 39.2126 144.635C39.1937 144.691 39.1637 144.744 39.1245 144.789C39.0853 144.834 39.0375 144.871 38.9839 144.898C38.9304 144.924 38.8721 144.94 38.8124 144.944Z" fill="#E0E0E0"/>
<path d="M52.0193 64.014L37.228 65.2852L36.9238 61.8212C36.9016 60.1679 37.5053 58.5674 38.6139 57.3407C39.7224 56.114 41.2538 55.3518 42.9008 55.207C44.5479 55.0623 46.1888 55.5456 47.4943 56.5601C48.7998 57.5747 49.6735 59.0453 49.94 60.6771L50.1125 62.6929L52.2509 62.5067L52.0738 60.491C51.9742 59.354 51.6517 58.2478 51.1246 57.2355C50.5976 56.2232 49.8762 55.3246 49.0019 54.5911C48.1275 53.8575 47.1173 53.3034 46.0288 52.9603C44.9402 52.6171 43.7948 52.4918 42.6578 52.5914C40.3617 52.7924 38.2394 53.8974 36.7579 55.6633C36.0244 56.5376 35.4702 57.5479 35.1271 58.6364C34.784 59.7249 34.6587 60.8704 34.7582 62.0073L35.0624 65.494C34.2202 65.6589 33.4686 66.1293 32.9524 66.8149C32.4361 67.5005 32.1915 68.3528 32.2658 69.2078L33.3236 81.3023C33.3613 81.7588 33.4889 82.2033 33.6989 82.6104C33.9089 83.0174 34.1972 83.379 34.5474 83.6743C34.8975 83.9696 35.3025 84.1928 35.7392 84.3311C36.1758 84.4694 36.6355 84.5201 37.0918 84.4803L53.6764 83.0321C54.1329 82.9943 54.5774 82.8668 54.9845 82.6568C55.3915 82.4468 55.7531 82.1584 56.0484 81.8083C56.3437 81.4582 56.5669 81.0531 56.7052 80.6165C56.8435 80.1798 56.8943 79.7202 56.8544 79.2639L55.7966 67.1693C55.7561 66.714 55.6262 66.2711 55.4144 65.866C55.2026 65.4609 54.913 65.1016 54.5621 64.8085C54.2113 64.5155 53.8062 64.2945 53.3698 64.1581C52.9335 64.0218 52.4746 63.9728 52.0193 64.014ZM45.7269 73.3346L46.0901 77.4978C46.1145 77.6654 46.1045 77.8361 46.0606 77.9997C46.0168 78.1632 45.94 78.3161 45.8349 78.4489C45.7299 78.5817 45.5989 78.6917 45.4499 78.7721C45.3008 78.8525 45.137 78.9017 44.9683 78.9165C44.7996 78.9314 44.6297 78.9117 44.4689 78.8585C44.3081 78.8054 44.1599 78.72 44.0333 78.6076C43.9066 78.4952 43.8043 78.3581 43.7325 78.2047C43.6607 78.0514 43.621 77.885 43.6158 77.7157L43.2526 73.548C42.8781 73.318 42.5856 72.9757 42.417 72.5698C42.2483 72.164 42.212 71.7152 42.3132 71.2875C42.4144 70.8598 42.648 70.4749 42.9806 70.1877C43.3133 69.9004 43.7281 69.7255 44.166 69.6877C44.6039 69.6499 45.0426 69.7513 45.4195 69.9773C45.7965 70.2034 46.0925 70.5426 46.2654 70.9467C46.4384 71.3507 46.4794 71.7991 46.3827 72.2278C46.286 72.6566 46.0565 73.0439 45.7269 73.3346Z" fill="#EBEBEB"/>
<path d="M77.3797 71.0011L75.8861 68.554C75.1332 68.6612 74.3689 68.6612 73.6161 68.554L72.1179 70.992L71.8319 70.9148C70.861 70.659 69.9293 70.2726 69.0625 69.7662L68.8082 69.6209L69.4393 66.9695C69.4515 66.9181 69.4738 66.8696 69.5049 66.8269C69.5361 66.7841 69.5753 66.748 69.6205 66.7205C69.6657 66.6931 69.7159 66.6749 69.7682 66.6669C69.8204 66.659 69.8738 66.6616 69.9251 66.6744C70.028 66.6992 70.1168 66.7638 70.1722 66.854C70.2275 66.9442 70.2447 67.0527 70.2202 67.1557L69.7208 69.2214C70.3659 69.5729 71.0461 69.8559 71.7501 70.0658L73.212 67.6778L73.4799 67.7232C74.328 67.8594 75.1924 67.8594 76.0404 67.7232L76.3038 67.6778L77.7656 70.0658C78.4703 69.8575 79.1506 69.5744 79.795 69.2214L79.1458 66.4974L79.3637 66.3385C79.9551 65.912 80.4852 65.4063 80.9391 64.8357C81.0022 64.7535 81.0947 64.6991 81.1972 64.6838C81.2997 64.6686 81.4042 64.6937 81.4884 64.754C81.5326 64.7846 81.57 64.824 81.5984 64.8696C81.6269 64.9151 81.6457 64.9661 81.6538 65.0192C81.6619 65.0723 81.659 65.1265 81.6454 65.1785C81.6318 65.2305 81.6077 65.2791 81.5747 65.3215C81.1286 65.8849 80.6147 66.3911 80.0447 66.8288L80.7121 69.6118L80.4533 69.7571C79.5876 70.2627 78.6576 70.6491 77.6885 70.9057L77.3797 71.0011ZM68.1999 65.6711C68.0773 65.5303 67.9547 65.3805 67.8367 65.2171L65.0536 65.8845L64.9038 65.6302C64.4011 64.7615 64.0149 63.8304 63.7552 62.8608L63.6826 62.5748L66.1205 61.0766C66.0133 60.3237 66.0133 59.5595 66.1205 58.8066L63.6826 57.313L63.7552 57.0224C64.015 56.0543 64.4012 55.1247 64.9038 54.2575L65.0536 53.9988L67.8367 54.6661C68.3013 54.0581 68.8448 53.5146 69.4529 53.0499L68.949 50.9433C68.9244 50.8404 68.9416 50.7319 68.997 50.6417C69.0523 50.5514 69.1412 50.4869 69.2441 50.4621C69.2947 50.45 69.3473 50.448 69.3988 50.4563C69.4502 50.4646 69.4995 50.483 69.5438 50.5104C69.5882 50.5378 69.6266 50.5738 69.657 50.6161C69.6873 50.6585 69.709 50.7064 69.7208 50.7572L70.3518 53.3813L70.1339 53.5357C69.4344 54.0389 68.8212 54.6522 68.3179 55.3517L68.159 55.5696L65.435 54.9204C65.0819 55.5648 64.7989 56.2451 64.5906 56.9498L66.9741 58.4116L66.9332 58.675C66.7816 59.5217 66.7816 60.3887 66.9332 61.2355L66.9741 61.5034L64.5906 62.9653C64.7997 63.6681 65.0827 64.3469 65.435 64.9901L68.159 64.3409L68.3179 64.5588C68.459 64.7646 68.6105 64.9631 68.7719 65.1535C68.8418 65.227 68.8809 65.3245 68.8809 65.4259C68.8809 65.5274 68.8418 65.6249 68.7719 65.6983C68.7332 65.7354 68.6874 65.7641 68.6372 65.7829C68.587 65.8017 68.5335 65.81 68.48 65.8075C68.4265 65.8049 68.3741 65.7915 68.3259 65.7681C68.2778 65.7446 68.2349 65.7116 68.1999 65.6711ZM84.4258 65.8936L83.3998 65.6484C83.2969 65.6236 83.208 65.559 83.1527 65.4688C83.0974 65.3786 83.0801 65.2701 83.1047 65.1671C83.1294 65.0642 83.194 64.9754 83.2843 64.9201C83.3745 64.8647 83.483 64.8475 83.5859 64.8721L84.0399 64.9765C84.3907 64.3331 84.6722 63.6544 84.8798 62.9516L82.4963 61.4898L82.5417 61.2219C82.6933 60.3751 82.6933 59.5081 82.5417 58.6613L82.4963 58.398L84.8798 56.9361C84.6731 56.2316 84.3915 55.5513 84.0399 54.9068L81.3159 55.556L81.1616 55.3381C80.6571 54.6396 80.044 54.0265 79.3456 53.5221L79.1276 53.3677L79.7769 50.6437C79.1323 50.2921 78.452 50.0105 77.7475 49.8038L76.272 52.21L76.0087 52.1646C75.1606 52.0284 74.2962 52.0284 73.4481 52.1646L73.1802 52.21L71.732 49.8129L71.4596 49.8946C71.3626 49.9266 71.257 49.9193 71.1653 49.8743C71.0737 49.8293 71.0033 49.7502 70.9693 49.654C70.9505 49.6042 70.9419 49.5513 70.9439 49.4981C70.9458 49.445 70.9584 49.3928 70.9808 49.3446C71.0032 49.2964 71.035 49.2532 71.0744 49.2174C71.1137 49.1817 71.1598 49.1541 71.2099 49.1364C71.4096 49.0729 71.6139 49.0138 71.8137 48.9594L72.0997 48.8822L73.5979 51.3247C74.3504 51.2128 75.1154 51.2128 75.8679 51.3247L77.3616 48.8822L77.6521 48.9594C78.6206 49.2179 79.5504 49.6042 80.417 50.108L80.6758 50.2578L80.0084 53.0408C80.6173 53.5045 81.161 54.0481 81.6246 54.6571L84.4077 53.9897L84.5575 54.2485C85.062 55.1147 85.4483 56.0446 85.7061 57.0133L85.7833 57.3039L83.3408 58.7975C83.4539 59.55 83.4539 60.3151 83.3408 61.0675L85.7833 62.5657L85.7061 62.8518C85.4483 63.8219 85.062 64.7533 84.5575 65.6211L84.4258 65.8936ZM74.6285 63.8324C73.6392 63.7932 72.7011 63.3827 72.001 62.6826C71.3009 61.9825 70.8904 61.0444 70.8512 60.0551C70.8242 59.0821 71.1625 58.1342 71.7994 57.3982C72.4363 56.6621 73.3257 56.1911 74.2925 56.0781C74.3493 56.071 74.4068 56.0761 74.4614 56.0929C74.5161 56.1097 74.5665 56.1379 74.6094 56.1757C74.6523 56.2135 74.6867 56.2599 74.7104 56.3119C74.734 56.364 74.7463 56.4204 74.7465 56.4776C74.7461 56.5742 74.7102 56.6672 74.6458 56.7391C74.5814 56.8111 74.4929 56.8569 74.397 56.868C73.7242 56.9448 73.0952 57.2402 72.6067 57.709C72.1181 58.1779 71.7969 58.7941 71.6925 59.4631C71.5881 60.1321 71.7062 60.817 72.0287 61.4123C72.3512 62.0077 72.8602 62.4808 73.4776 62.7589C74.095 63.0369 74.7866 63.1046 75.4462 62.9516C76.1058 62.7985 76.6969 62.4331 77.1287 61.9116C77.5605 61.39 77.8092 60.7411 77.8365 60.0645C77.8638 59.388 77.6682 58.7211 77.2799 58.1665C77.2238 58.0879 77.1992 57.9911 77.211 57.8953C77.2228 57.7995 77.27 57.7116 77.3434 57.6489C77.3858 57.6113 77.4357 57.5831 77.4898 57.5662C77.5439 57.5493 77.6009 57.5442 77.6572 57.551C77.7134 57.5579 77.7676 57.5767 77.816 57.6061C77.8645 57.6355 77.9061 57.6748 77.9382 57.7216C78.3511 58.3124 78.5917 59.0064 78.6328 59.7261C78.674 60.4458 78.5141 61.1628 78.1712 61.7968C77.8283 62.4309 77.3157 62.9571 76.6909 63.3165C76.0661 63.676 75.3536 63.8546 74.633 63.8324H74.6285Z" fill="#F0F0F0"/>
<path d="M49.1727 104.234L48.2057 102.658C47.7166 102.731 47.2194 102.731 46.7302 102.658L45.7632 104.234L45.5771 104.184C44.9503 104.019 44.3487 103.77 43.7883 103.444L43.6249 103.349L44.0335 101.632C44.0496 101.567 44.0911 101.51 44.1488 101.474C44.2065 101.438 44.276 101.427 44.3422 101.442C44.3753 101.45 44.4065 101.464 44.4341 101.484C44.4616 101.504 44.4849 101.53 44.5026 101.559C44.5203 101.588 44.5321 101.62 44.5373 101.654C44.5425 101.688 44.541 101.722 44.5329 101.755L44.2151 103.09C44.6316 103.318 45.0715 103.501 45.5271 103.635L46.4714 102.096L46.6394 102.123C47.1881 102.214 47.7479 102.214 48.2965 102.123L48.4645 102.096L49.4134 103.635C49.8665 103.498 50.3046 103.315 50.7209 103.09L50.3032 101.337L50.4439 101.233C50.8256 100.959 51.1678 100.633 51.4609 100.266C51.5008 100.212 51.5604 100.176 51.6267 100.166C51.6931 100.155 51.7608 100.172 51.815 100.211C51.8429 100.231 51.8666 100.256 51.8846 100.286C51.9027 100.315 51.9148 100.347 51.9203 100.381C51.9258 100.414 51.9246 100.449 51.9166 100.482C51.9087 100.516 51.8942 100.547 51.874 100.575C51.5848 100.939 51.2525 101.267 50.8843 101.551L51.3383 103.367L51.1703 103.462C50.6103 103.789 50.0086 104.038 49.3816 104.202L49.1727 104.234ZM43.2435 100.788L43.0074 100.502L41.1914 100.929L41.0961 100.765C40.7762 100.203 40.5335 99.5994 40.3742 98.972L40.3243 98.7859L41.8997 97.8189C41.827 97.3297 41.827 96.8325 41.8997 96.3434L40.3243 95.3763L40.3742 95.1902C40.5388 94.5632 40.7877 93.9614 41.1142 93.4014L41.2096 93.2335L43.0256 93.6875C43.3176 93.2899 43.6577 92.9301 44.038 92.616L43.7157 91.254C43.7076 91.2212 43.7061 91.1871 43.7114 91.1538C43.7166 91.1204 43.7285 91.0884 43.7462 91.0596C43.764 91.0309 43.7873 91.006 43.8148 90.9864C43.8423 90.9667 43.8734 90.9528 43.9063 90.9453C43.9725 90.9302 44.042 90.9418 44.0997 90.9775C44.1575 91.0131 44.1989 91.0701 44.2151 91.136L44.6237 92.8294L44.4784 92.9338C44.0285 93.2566 43.6343 93.6507 43.3116 94.1006L43.2072 94.2413L41.4547 93.8237C41.2293 94.2399 41.0467 94.678 40.9099 95.1312L42.449 96.0755L42.4218 96.248C42.3749 96.521 42.3506 96.7973 42.3491 97.0743C42.3506 97.3528 42.3749 97.6306 42.4218 97.9051L42.449 98.0731L40.9099 99.0174C41.0459 99.4724 41.2285 99.912 41.4547 100.329L43.2072 99.9073L43.3116 100.048C43.4054 100.182 43.507 100.311 43.6158 100.434C43.6605 100.481 43.6854 100.544 43.6854 100.609C43.6854 100.674 43.6605 100.736 43.6158 100.783C43.5923 100.809 43.5637 100.83 43.5319 100.844C43.5 100.859 43.4656 100.866 43.4306 100.867C43.3957 100.867 43.3611 100.86 43.3289 100.847C43.2967 100.833 43.2676 100.813 43.2435 100.788ZM53.7264 100.929L53.0635 100.774C53.0304 100.766 52.9992 100.752 52.9716 100.732C52.9441 100.712 52.9208 100.686 52.9031 100.657C52.8854 100.628 52.8736 100.596 52.8684 100.562C52.8632 100.529 52.8647 100.494 52.8728 100.461C52.8803 100.428 52.8943 100.397 52.9139 100.37C52.9335 100.342 52.9584 100.319 52.9872 100.301C53.0159 100.283 53.0479 100.271 53.0813 100.266C53.1147 100.261 53.1488 100.262 53.1816 100.27L53.4676 100.339C53.6958 99.922 53.8784 99.4821 54.0124 99.0265L52.4733 98.0822L52.5006 97.9142C52.5474 97.6397 52.5717 97.3618 52.5732 97.0834C52.5717 96.8064 52.5474 96.5301 52.5006 96.2571L52.4733 96.0846L54.0124 95.1403C53.8775 94.6864 53.6949 94.2481 53.4676 93.8327L51.7151 94.2504L51.6107 94.1097C51.288 93.6598 50.8939 93.2656 50.4439 92.9429L50.3032 92.8385L50.7209 91.086C50.3055 90.8587 49.8672 90.6761 49.4134 90.5412L48.4645 92.0803L48.2965 92.0531C47.7479 91.9623 47.1881 91.9623 46.6394 92.0531L46.4714 92.0803L45.5271 90.5412L45.3501 90.5957C45.2868 90.616 45.2182 90.6107 45.1588 90.581C45.0994 90.5513 45.054 90.4996 45.0323 90.4368C45.02 90.405 45.0143 90.371 45.0155 90.3369C45.0167 90.3028 45.0247 90.2693 45.0391 90.2384C45.0536 90.2074 45.074 90.1797 45.0994 90.1569C45.1247 90.134 45.1544 90.1165 45.1866 90.1054L45.5771 89.9874L45.7632 89.942L46.7302 91.5173C47.2194 91.4447 47.7166 91.4447 48.2057 91.5173L49.1727 89.942L49.3589 89.9874C49.9854 90.1555 50.5869 90.4058 51.1476 90.7319L51.3156 90.8273L50.8616 92.6433C51.2525 92.9456 51.6034 93.2965 51.9058 93.6875L53.7218 93.2335L53.8172 93.4014C54.1437 93.9614 54.3926 94.5632 54.5572 95.1902L54.6071 95.3763L53.0317 96.3434C53.1044 96.8325 53.1044 97.3297 53.0317 97.8189L54.6071 98.7859L54.5572 98.972C54.3918 99.5988 54.1429 100.2 53.8172 100.761L53.7264 100.929ZM47.3976 99.5985C46.7807 99.5562 46.201 99.2881 45.7692 98.8455C45.3375 98.4029 45.0839 97.8167 45.0569 97.1989C45.03 96.5812 45.2315 95.9751 45.6231 95.4965C46.0147 95.018 46.5688 94.7004 47.1797 94.6045C47.2161 94.6007 47.2529 94.6046 47.2878 94.6158C47.3226 94.6271 47.3547 94.6454 47.3821 94.6698C47.4094 94.6942 47.4314 94.7239 47.4466 94.7573C47.4617 94.7906 47.4698 94.8267 47.4702 94.8633C47.4706 94.9263 47.4476 94.9871 47.4057 95.0341C47.3637 95.0811 47.3058 95.1108 47.2432 95.1176C46.8603 95.1614 46.4982 95.315 46.2006 95.56C45.9031 95.8049 45.6827 96.1308 45.5662 96.4982C45.4496 96.8655 45.4418 97.2588 45.5438 97.6305C45.6457 98.0022 45.853 98.3365 46.1407 98.5931C46.4283 98.8496 46.784 99.0174 47.1649 99.0764C47.5459 99.1353 47.9357 99.0827 48.2874 98.925C48.6391 98.7674 48.9377 98.5113 49.1471 98.1878C49.3566 97.8642 49.468 97.487 49.4678 97.1015C49.4687 96.6917 49.3418 96.2918 49.1046 95.9575C49.07 95.9059 49.055 95.8436 49.0625 95.7819C49.07 95.7202 49.0995 95.6633 49.1455 95.6215C49.1728 95.5969 49.2051 95.5785 49.2402 95.5673C49.2752 95.5562 49.3122 95.5527 49.3487 95.557C49.3852 95.5613 49.4204 95.5733 49.4519 95.5922C49.4834 95.6112 49.5105 95.6366 49.5314 95.6669C49.7969 96.0489 49.9513 96.497 49.9774 96.9615C50.0035 97.426 49.9002 97.8886 49.6791 98.2979C49.4579 98.7073 49.1276 99.0472 48.7249 99.28C48.3221 99.5128 47.8626 99.6294 47.3976 99.6167V99.5985Z" fill="#E6E6E6"/>
<path d="M113.5 193.863C162.115 193.863 201.526 191.562 201.526 188.723C201.526 185.885 162.115 183.584 113.5 183.584C64.8845 183.584 25.4739 185.885 25.4739 188.723C25.4739 191.562 64.8845 193.863 113.5 193.863Z" fill="#F5F5F5"/>
<path d="M165.006 66.2068H150.224L139.782 185.722H154.564C156.639 185.682 158.627 184.884 160.154 183.479C161.682 182.074 162.642 180.159 162.854 178.095L171.975 73.8295C172.081 72.858 171.979 71.8751 171.675 70.9462C171.372 70.0174 170.873 69.1639 170.214 68.4427C169.555 67.7214 168.749 67.149 167.851 66.7634C166.953 66.3779 165.983 66.1882 165.006 66.2068Z" fill="#4887FA"/>
<path d="M161.992 66.207H111.961C109.886 66.2458 107.897 67.0424 106.369 68.4466C104.841 69.8508 103.88 71.7655 103.666 73.8296L94.5455 178.095C94.4404 179.066 94.543 180.048 94.8464 180.976C95.1498 181.904 95.647 182.757 96.3052 183.478C96.9634 184.2 97.7674 184.773 98.6639 185.16C99.5604 185.547 100.529 185.738 101.505 185.722H151.532C153.604 185.678 155.588 184.879 157.112 183.474C158.636 182.07 159.595 180.157 159.808 178.095L168.929 73.8296C169.034 72.8608 168.933 71.8807 168.631 70.9541C168.329 70.0275 167.834 69.1756 167.178 68.4549C166.522 67.7342 165.721 67.1611 164.827 66.7735C163.932 66.386 162.966 66.1929 161.992 66.207Z" fill="#4887FA"/>
<path opacity="0.3" d="M161.992 66.207H111.961C109.886 66.2458 107.897 67.0424 106.369 68.4466C104.841 69.8508 103.88 71.7655 103.666 73.8296L94.5455 178.095C94.4404 179.066 94.543 180.048 94.8464 180.976C95.1498 181.904 95.647 182.757 96.3052 183.478C96.9634 184.2 97.7674 184.773 98.6639 185.16C99.5604 185.547 100.529 185.738 101.505 185.722H151.532C153.604 185.678 155.588 184.879 157.112 183.474C158.636 182.07 159.595 180.157 159.808 178.095L168.929 73.8296C169.034 72.8608 168.933 71.8807 168.631 70.9541C168.329 70.0275 167.834 69.1756 167.178 68.4549C166.522 67.7342 165.721 67.1611 164.827 66.7735C163.932 66.386 162.966 66.1929 161.992 66.207Z" fill="white"/>
<path opacity="0.4" d="M161.778 68.6493H148.585C148.192 68.6526 147.808 68.7737 147.485 68.9971C147.161 69.2204 146.912 69.5358 146.769 69.9024C146.249 71.2489 145.339 72.4098 144.156 73.237C142.973 74.0642 141.57 74.5202 140.127 74.5468H132.346C130.986 74.5742 129.66 74.1267 128.595 73.2815C127.53 72.4362 126.793 71.246 126.512 69.916C126.436 69.5561 126.238 69.2339 125.95 69.0051C125.662 68.7762 125.304 68.6552 124.936 68.663H111.748C110.337 68.6879 108.985 69.2288 107.947 70.1834C106.909 71.138 106.256 72.44 106.113 73.8431L96.988 178.109C96.9149 178.769 96.9835 179.437 97.1891 180.069C97.3947 180.7 97.7326 181.281 98.1803 181.771C98.628 182.262 99.1752 182.652 99.7853 182.914C100.395 183.177 101.055 183.306 101.719 183.293H151.749C153.16 183.267 154.512 182.725 155.55 181.77C156.588 180.815 157.241 179.512 157.384 178.109L166.504 73.8431C166.579 73.1826 166.511 72.5138 166.307 71.8815C166.102 71.2491 165.765 70.6677 165.317 70.1761C164.87 69.6845 164.323 69.294 163.713 69.0307C163.102 68.7674 162.443 68.6374 161.778 68.6493Z" fill="white"/>
<path d="M149.311 125.304H114.299C114.058 125.308 113.82 125.261 113.599 125.165C113.378 125.07 113.179 124.929 113.017 124.751C112.855 124.573 112.732 124.363 112.657 124.134C112.583 123.906 112.557 123.664 112.583 123.424L112.76 121.418C112.812 120.909 113.049 120.437 113.425 120.091C113.801 119.744 114.292 119.548 114.803 119.538H149.82C150.061 119.534 150.299 119.581 150.52 119.677C150.741 119.772 150.94 119.913 151.102 120.091C151.264 120.269 151.387 120.479 151.462 120.708C151.536 120.936 151.562 121.178 151.536 121.418L151.364 123.424C151.31 123.934 151.072 124.407 150.694 124.754C150.316 125.1 149.824 125.296 149.311 125.304Z" fill="white"/>
<path d="M148.558 133.93H113.541C113.3 133.934 113.062 133.887 112.841 133.791C112.62 133.696 112.422 133.555 112.26 133.377C112.098 133.199 111.976 132.989 111.902 132.76C111.828 132.531 111.803 132.289 111.829 132.05L112.002 130.044C112.055 129.535 112.292 129.064 112.668 128.718C113.044 128.372 113.534 128.175 114.045 128.164H149.062C149.302 128.16 149.541 128.207 149.762 128.303C149.983 128.398 150.181 128.539 150.344 128.717C150.506 128.895 150.629 129.105 150.703 129.334C150.778 129.562 150.804 129.804 150.778 130.044L150.601 132.05C150.548 132.559 150.311 133.03 149.935 133.377C149.559 133.723 149.069 133.919 148.558 133.93Z" fill="white"/>
<path opacity="0.1" d="M138.674 70.6015C138.617 71.1665 138.354 71.6907 137.935 72.0748C137.517 72.4588 136.972 72.6761 136.404 72.6854C136.137 72.6902 135.873 72.6381 135.627 72.5326C135.382 72.427 135.162 72.2705 134.982 72.0733C134.802 71.8762 134.666 71.6429 134.584 71.3892C134.501 71.1354 134.473 70.8669 134.502 70.6015C134.56 70.0365 134.823 69.5123 135.241 69.1283C135.659 68.7442 136.204 68.527 136.772 68.5177C137.039 68.5129 137.304 68.565 137.549 68.6705C137.794 68.776 138.014 68.9326 138.194 69.1297C138.374 69.3269 138.51 69.5601 138.593 69.8139C138.676 70.0677 138.703 70.3362 138.674 70.6015Z" fill="black"/>
<path opacity="0.1" d="M137.73 70.6015C137.698 70.91 137.554 71.196 137.326 71.4059C137.098 71.6158 136.801 71.735 136.491 71.7411C136.345 71.7439 136.2 71.7156 136.066 71.6579C135.931 71.6003 135.811 71.5146 135.713 71.4068C135.614 71.2989 135.54 71.1713 135.495 71.0324C135.45 70.8935 135.435 70.7466 135.451 70.6015C135.482 70.2927 135.625 70.0061 135.854 69.796C136.082 69.586 136.38 69.4671 136.69 69.462C136.836 69.4599 136.981 69.4887 137.114 69.5466C137.248 69.6045 137.368 69.6902 137.467 69.7979C137.565 69.9056 137.639 70.0329 137.684 70.1714C137.73 70.31 137.745 70.4566 137.73 70.6015Z" fill="black"/>
<g opacity="0.8">
<path d="M155.618 74.0792C155.539 74.0803 155.461 74.0647 155.39 74.0335C155.318 74.0024 155.253 73.9563 155.2 73.8984C155.148 73.8404 155.108 73.772 155.083 73.6975C155.059 73.623 155.051 73.5442 155.059 73.4663L155.159 72.3494C155.176 72.1844 155.252 72.0312 155.375 71.9191C155.497 71.8069 155.656 71.7436 155.822 71.7411C155.9 71.7401 155.977 71.7555 156.049 71.7864C156.12 71.8173 156.184 71.8629 156.237 71.9204C156.29 71.9778 156.33 72.0457 156.354 72.1196C156.379 72.1936 156.388 72.2719 156.38 72.3494L156.28 73.4663C156.264 73.6318 156.187 73.7854 156.065 73.8983C155.943 74.0112 155.784 74.0756 155.618 74.0792Z" fill="white"/>
<path d="M160.503 74.0792C160.424 74.0803 160.346 74.0647 160.275 74.0335C160.203 74.0024 160.138 73.9563 160.085 73.8984C160.033 73.8404 159.993 73.772 159.968 73.6975C159.944 73.623 159.936 73.5442 159.944 73.4663L160.176 70.8467C160.192 70.6817 160.269 70.5285 160.391 70.4163C160.514 70.3042 160.673 70.2408 160.839 70.2383C160.916 70.2373 160.994 70.2528 161.065 70.2836C161.137 70.3145 161.201 70.3602 161.254 70.4176C161.307 70.475 161.346 70.5429 161.371 70.6169C161.396 70.6908 161.405 70.7691 161.397 70.8467L161.165 73.4663C161.149 73.6317 161.072 73.7854 160.95 73.8983C160.828 74.0112 160.669 74.0756 160.503 74.0792Z" fill="white"/>
<path d="M158.06 74.0792C157.982 74.0803 157.904 74.0647 157.832 74.0335C157.76 74.0024 157.696 73.9563 157.643 73.8984C157.59 73.8404 157.55 73.772 157.526 73.6975C157.502 73.623 157.493 73.5442 157.502 73.4663L157.665 71.6003C157.682 71.4341 157.759 71.2798 157.882 71.1668C158.005 71.0538 158.165 70.9899 158.332 70.9874C158.411 70.9863 158.488 71.0018 158.56 71.033C158.632 71.0642 158.696 71.1104 158.748 71.1684C158.801 71.2264 158.84 71.295 158.864 71.3694C158.888 71.4439 158.895 71.5227 158.886 71.6003L158.723 73.4663C158.706 73.6317 158.63 73.7854 158.508 73.8983C158.386 74.0112 158.226 74.0756 158.06 74.0792Z" fill="white"/>
</g>
<g opacity="0.8">
<path d="M113.791 74.0792H110.721C110.677 74.0802 110.633 74.0716 110.593 74.0542C110.552 74.0367 110.516 74.0108 110.486 73.9781C110.457 73.9454 110.434 73.9067 110.421 73.8646C110.407 73.8225 110.403 73.778 110.408 73.7342L110.549 72.0861C110.559 71.9926 110.603 71.9059 110.672 71.8423C110.741 71.7788 110.832 71.7428 110.926 71.7411H113.995C114.039 71.7401 114.083 71.7487 114.123 71.7661C114.164 71.7836 114.2 71.8095 114.23 71.8422C114.26 71.8749 114.282 71.9136 114.296 71.9557C114.309 71.9978 114.313 72.0423 114.308 72.0861L114.163 73.7342C114.155 73.8277 114.112 73.9149 114.043 73.9788C113.975 74.0426 113.884 74.0784 113.791 74.0792Z" fill="white"/>
<path d="M115.212 73.6297C115.167 73.6306 115.123 73.6221 115.082 73.6047C115.042 73.5872 115.005 73.5614 114.975 73.5288C114.945 73.4961 114.922 73.4575 114.908 73.4155C114.894 73.3734 114.889 73.3288 114.894 73.2847L114.962 72.5311C114.971 72.4371 115.014 72.3498 115.084 72.2861C115.154 72.2224 115.244 72.1867 115.339 72.186C115.383 72.1851 115.427 72.1936 115.467 72.211C115.508 72.2285 115.544 72.2544 115.574 72.2871C115.604 72.3199 115.626 72.3586 115.639 72.4006C115.653 72.4427 115.657 72.4872 115.652 72.5311L115.588 73.2847C115.578 73.3783 115.535 73.465 115.465 73.5285C115.396 73.5921 115.306 73.628 115.212 73.6297Z" fill="white"/>
</g>
<path d="M143.542 112.107C149.652 106.258 150.261 96.9801 144.903 91.3834C139.545 85.7866 130.25 85.9907 124.14 91.839C118.031 97.6874 117.422 106.966 122.779 112.562C128.137 118.159 137.433 117.955 143.542 112.107Z" fill="white"/>
<path d="M133.894 101.415C130.044 101.415 126.789 102.881 126.512 106.063L126.203 109.6H140.154L140.463 106.063C140.74 102.881 137.748 101.415 133.894 101.415Z" fill="#4887FA"/>
<path d="M134.021 99.9572C135.81 99.9572 136.636 98.5089 136.79 96.7202C136.945 94.9314 136.377 93.4832 134.588 93.4832C132.8 93.4832 131.978 94.9359 131.819 96.7202C131.66 98.5044 132.232 99.9572 134.021 99.9572Z" fill="#4887FA"/>
<path d="M147.713 122.299C146.765 122.299 145.961 122.662 145.897 123.447L145.82 124.323H149.266L149.343 123.447C149.407 122.662 148.667 122.299 147.713 122.299Z" fill="#4887FA"/>
<path d="M147.745 121.94C148.199 121.94 148.39 121.581 148.431 121.141C148.472 120.7 148.326 120.342 147.886 120.342C147.446 120.342 147.241 120.7 147.2 121.141C147.16 121.581 147.305 121.94 147.745 121.94Z" fill="#4887FA"/>
<path d="M137.108 142.556H123.488C123.119 142.563 122.752 142.491 122.413 142.345C122.074 142.199 121.769 141.982 121.52 141.709C121.271 141.437 121.083 141.114 120.968 140.763C120.853 140.412 120.815 140.04 120.855 139.673C120.936 138.892 121.299 138.168 121.877 137.637C122.455 137.106 123.207 136.805 123.992 136.79H137.612C137.981 136.784 138.347 136.857 138.686 137.003C139.025 137.149 139.329 137.366 139.578 137.638C139.827 137.911 140.015 138.233 140.13 138.584C140.245 138.935 140.284 139.306 140.245 139.673C140.165 140.454 139.802 141.179 139.224 141.71C138.646 142.241 137.893 142.542 137.108 142.556Z" fill="#4887FA"/>
<path d="M135.46 174.708H120.882C120.491 174.719 120.102 174.645 119.742 174.492C119.382 174.339 119.059 174.11 118.796 173.821C118.532 173.532 118.334 173.189 118.214 172.817C118.095 172.444 118.057 172.05 118.104 171.662L119.034 161.029C119.117 160.204 119.5 159.439 120.11 158.877C120.72 158.316 121.515 157.998 122.344 157.983H136.926C137.316 157.976 137.703 158.052 138.062 158.207C138.42 158.361 138.741 158.59 139.004 158.878C139.267 159.166 139.465 159.507 139.586 159.878C139.707 160.249 139.747 160.641 139.705 161.029L138.774 171.662C138.689 172.487 138.305 173.252 137.694 173.813C137.084 174.374 136.289 174.693 135.46 174.708Z" fill="#4887FA"/>
<g opacity="0.6">
<path d="M130.965 163.712C130.989 163.48 130.963 163.246 130.89 163.025C130.816 162.803 130.697 162.6 130.539 162.428C130.381 162.257 130.188 162.12 129.974 162.029C129.759 161.937 129.528 161.892 129.295 161.896C128.798 161.904 128.321 162.092 127.954 162.427C127.587 162.761 127.355 163.219 127.302 163.712C127.273 163.989 127.314 164.268 127.421 164.524C127.528 164.78 127.698 165.005 127.915 165.179L127.597 168.843C127.581 168.981 127.595 169.122 127.639 169.255C127.682 169.388 127.753 169.51 127.847 169.613C127.941 169.716 128.056 169.798 128.184 169.853C128.313 169.908 128.451 169.935 128.591 169.932C128.887 169.926 129.17 169.812 129.388 169.611C129.605 169.41 129.742 169.137 129.771 168.843L130.094 165.179C130.337 165.013 130.541 164.795 130.692 164.542C130.842 164.289 130.936 164.006 130.965 163.712Z" fill="white"/>
</g>
<path d="M137.053 160.198H135.174L135.628 154.937C135.707 154.206 135.63 153.468 135.402 152.769C135.174 152.071 134.8 151.429 134.305 150.886C133.81 150.344 133.205 149.913 132.531 149.621C131.856 149.33 131.128 149.186 130.393 149.198C128.832 149.229 127.336 149.829 126.187 150.886C125.038 151.943 124.316 153.384 124.155 154.937L123.701 160.198H121.822L122.276 154.937C122.487 152.876 123.446 150.963 124.971 149.561C126.495 148.158 128.481 147.362 130.552 147.323C131.527 147.306 132.494 147.497 133.39 147.883C134.285 148.269 135.088 148.841 135.746 149.561C136.403 150.281 136.9 151.133 137.203 152.06C137.506 152.987 137.608 153.967 137.503 154.937L137.053 160.198Z" fill="#4887FA"/>
<path d="M147.945 130.357L148.004 129.844C148.016 129.725 148.003 129.605 147.966 129.491C147.928 129.378 147.867 129.274 147.786 129.185C147.706 129.097 147.608 129.027 147.498 128.979C147.388 128.931 147.27 128.908 147.15 128.909C146.896 128.914 146.652 129.012 146.465 129.184C146.278 129.356 146.16 129.591 146.133 129.844L146.088 130.348C145.986 130.351 145.889 130.391 145.815 130.46C145.74 130.529 145.694 130.624 145.684 130.725L145.566 132.087C145.56 132.134 145.564 132.183 145.579 132.228C145.594 132.274 145.618 132.316 145.65 132.352C145.683 132.387 145.722 132.415 145.767 132.433C145.811 132.452 145.859 132.461 145.906 132.459H147.777C147.878 132.457 147.975 132.418 148.05 132.35C148.124 132.281 148.171 132.188 148.181 132.087L148.299 130.725C148.303 130.677 148.297 130.628 148.28 130.583C148.264 130.537 148.238 130.496 148.205 130.461C148.171 130.426 148.131 130.399 148.086 130.381C148.041 130.363 147.993 130.355 147.945 130.357ZM147.096 129.149C147.186 129.148 147.275 129.166 147.358 129.202C147.441 129.238 147.515 129.291 147.576 129.357C147.637 129.423 147.683 129.502 147.711 129.587C147.74 129.673 147.75 129.763 147.741 129.853L147.695 130.357H146.288L146.333 129.853C146.353 129.663 146.441 129.487 146.582 129.357C146.722 129.228 146.905 129.154 147.096 129.149Z" fill="#4887FA"/>
<path d="M119.788 130.897L119.134 130.761C119.116 130.757 119.099 130.75 119.084 130.738C119.069 130.727 119.057 130.712 119.049 130.696C119.041 130.679 119.036 130.661 119.036 130.642C119.036 130.624 119.04 130.605 119.048 130.589L119.32 129.944C119.332 129.916 119.333 129.885 119.323 129.856C119.314 129.828 119.295 129.804 119.269 129.788C119.244 129.772 119.213 129.766 119.184 129.77C119.154 129.775 119.127 129.79 119.107 129.812L118.612 130.321C118.6 130.336 118.585 130.348 118.568 130.356C118.55 130.365 118.531 130.369 118.512 130.369C118.493 130.369 118.474 130.365 118.457 130.356C118.439 130.348 118.424 130.336 118.412 130.321L118.008 129.812C117.922 129.703 117.736 129.812 117.768 129.944L117.926 130.589C117.931 130.607 117.932 130.627 117.929 130.646C117.925 130.665 117.918 130.683 117.907 130.7C117.897 130.716 117.883 130.73 117.867 130.74C117.85 130.751 117.832 130.758 117.813 130.761L117.136 130.897C116.991 130.925 116.973 131.129 117.114 131.156L117.768 131.292C117.786 131.296 117.803 131.303 117.818 131.315C117.833 131.326 117.844 131.341 117.852 131.358C117.86 131.375 117.864 131.393 117.864 131.412C117.863 131.43 117.858 131.448 117.849 131.465L117.586 132.114C117.575 132.142 117.574 132.173 117.583 132.201C117.592 132.23 117.611 132.254 117.637 132.27C117.663 132.286 117.693 132.292 117.723 132.288C117.752 132.283 117.78 132.268 117.799 132.246L118.294 131.737C118.307 131.723 118.322 131.712 118.34 131.705C118.357 131.697 118.375 131.694 118.394 131.694C118.413 131.694 118.431 131.697 118.449 131.705C118.466 131.712 118.481 131.723 118.494 131.737L118.898 132.246C118.984 132.355 119.17 132.246 119.134 132.114L118.975 131.469C118.969 131.431 118.977 131.391 118.999 131.359C119.021 131.327 119.055 131.305 119.093 131.297L119.77 131.161C119.91 131.129 119.929 130.925 119.788 130.897Z" fill="#263238"/>
<path d="M124.083 130.897L123.429 130.761C123.411 130.757 123.394 130.75 123.379 130.738C123.364 130.727 123.352 130.712 123.344 130.696C123.336 130.679 123.331 130.661 123.331 130.642C123.331 130.624 123.335 130.605 123.343 130.589L123.615 129.944C123.626 129.916 123.628 129.885 123.618 129.856C123.609 129.828 123.59 129.804 123.564 129.788C123.539 129.772 123.508 129.766 123.478 129.77C123.449 129.775 123.422 129.79 123.402 129.812L122.907 130.321C122.895 130.336 122.88 130.348 122.862 130.356C122.845 130.365 122.826 130.369 122.807 130.369C122.788 130.369 122.769 130.365 122.751 130.356C122.734 130.348 122.719 130.336 122.707 130.321L122.303 129.812C122.217 129.703 122.031 129.812 122.067 129.944L122.226 130.589C122.23 130.608 122.23 130.627 122.226 130.646C122.222 130.666 122.214 130.684 122.203 130.7C122.192 130.716 122.178 130.73 122.162 130.74C122.145 130.751 122.127 130.758 122.108 130.761L121.431 130.897C121.286 130.925 121.268 131.129 121.409 131.156L122.062 131.292C122.081 131.296 122.098 131.304 122.112 131.315C122.127 131.326 122.139 131.341 122.147 131.358C122.156 131.374 122.16 131.392 122.16 131.411C122.161 131.43 122.157 131.448 122.149 131.465L121.876 132.109C121.865 132.137 121.864 132.168 121.873 132.197C121.883 132.225 121.902 132.25 121.927 132.266C121.953 132.281 121.983 132.288 122.013 132.283C122.043 132.279 122.07 132.264 122.09 132.241L122.585 131.733C122.597 131.719 122.613 131.708 122.63 131.7C122.647 131.693 122.666 131.689 122.684 131.689C122.703 131.689 122.722 131.693 122.739 131.7C122.756 131.708 122.772 131.719 122.784 131.733L123.188 132.241C123.275 132.35 123.461 132.241 123.429 132.109L123.27 131.465C123.266 131.446 123.266 131.427 123.269 131.408C123.273 131.389 123.28 131.371 123.291 131.355C123.301 131.339 123.315 131.325 123.331 131.314C123.347 131.304 123.365 131.296 123.384 131.292L124.06 131.156C124.205 131.129 124.223 130.925 124.083 130.897Z" fill="#263238"/>
<path d="M128.378 130.897L127.728 130.761C127.71 130.758 127.692 130.751 127.677 130.74C127.661 130.729 127.649 130.714 127.64 130.697C127.632 130.68 127.628 130.662 127.628 130.643C127.628 130.624 127.633 130.605 127.642 130.589L127.914 129.944C127.932 129.915 127.937 129.88 127.929 129.848C127.921 129.815 127.9 129.787 127.871 129.769C127.842 129.752 127.808 129.746 127.775 129.754C127.742 129.763 127.714 129.783 127.697 129.812L127.206 130.321C127.194 130.336 127.178 130.348 127.161 130.357C127.143 130.365 127.124 130.369 127.104 130.369C127.085 130.369 127.065 130.365 127.048 130.357C127.03 130.348 127.014 130.336 127.002 130.321L126.598 129.812C126.512 129.703 126.325 129.812 126.362 129.944L126.521 130.589C126.525 130.607 126.525 130.627 126.521 130.646C126.518 130.664 126.51 130.682 126.5 130.698C126.489 130.715 126.476 130.728 126.46 130.739C126.444 130.75 126.426 130.757 126.407 130.761L125.731 130.897C125.585 130.925 125.567 131.129 125.708 131.156L126.357 131.292C126.375 131.296 126.393 131.304 126.407 131.315C126.422 131.326 126.434 131.341 126.442 131.358C126.451 131.374 126.455 131.392 126.455 131.411C126.455 131.43 126.451 131.448 126.444 131.465L126.171 132.109C126.154 132.138 126.148 132.173 126.156 132.206C126.165 132.239 126.185 132.267 126.214 132.284C126.243 132.302 126.278 132.307 126.311 132.299C126.343 132.291 126.372 132.27 126.389 132.241L126.879 131.733C126.892 131.719 126.908 131.708 126.925 131.7C126.942 131.693 126.96 131.689 126.979 131.689C126.998 131.689 127.017 131.693 127.034 131.7C127.051 131.708 127.066 131.719 127.079 131.733L127.488 132.241C127.574 132.35 127.76 132.241 127.724 132.109L127.565 131.465C127.558 131.427 127.566 131.388 127.587 131.356C127.608 131.324 127.641 131.301 127.678 131.292L128.355 131.156C128.482 131.129 128.518 130.925 128.378 130.897Z" fill="#263238"/>
<path d="M132.677 130.897L132.023 130.761C132.005 130.757 131.988 130.75 131.973 130.738C131.958 130.727 131.946 130.712 131.938 130.696C131.93 130.679 131.925 130.661 131.925 130.642C131.925 130.624 131.929 130.605 131.937 130.589L132.209 129.944C132.221 129.916 132.222 129.885 132.212 129.856C132.203 129.828 132.184 129.804 132.158 129.788C132.133 129.772 132.102 129.766 132.073 129.77C132.043 129.775 132.016 129.79 131.996 129.812L131.501 130.321C131.489 130.336 131.474 130.348 131.457 130.356C131.439 130.365 131.42 130.369 131.401 130.369C131.382 130.369 131.363 130.365 131.346 130.356C131.328 130.348 131.313 130.336 131.301 130.321L130.897 129.812C130.811 129.703 130.625 129.812 130.657 129.944L130.816 130.589C130.82 130.607 130.821 130.627 130.818 130.646C130.814 130.665 130.807 130.683 130.796 130.7C130.786 130.716 130.772 130.73 130.756 130.74C130.739 130.751 130.721 130.758 130.702 130.761L130.026 130.897C129.88 130.925 129.862 131.129 130.026 131.156L130.679 131.292C130.698 131.296 130.715 131.303 130.73 131.315C130.744 131.326 130.756 131.341 130.764 131.358C130.772 131.375 130.776 131.393 130.775 131.412C130.775 131.43 130.77 131.448 130.761 131.465L130.493 132.109C130.482 132.137 130.481 132.168 130.49 132.197C130.499 132.225 130.519 132.25 130.544 132.266C130.57 132.281 130.6 132.288 130.63 132.283C130.66 132.279 130.687 132.264 130.707 132.241L131.201 131.733C131.214 131.719 131.23 131.708 131.247 131.7C131.264 131.693 131.283 131.689 131.301 131.689C131.32 131.689 131.339 131.693 131.356 131.7C131.373 131.708 131.388 131.719 131.401 131.733L131.805 132.241C131.891 132.35 132.078 132.241 132.041 132.109L131.882 131.465C131.876 131.426 131.884 131.387 131.906 131.355C131.928 131.322 131.962 131.3 132 131.292L132.677 131.156C132.799 131.129 132.818 130.925 132.677 130.897Z" fill="#263238"/>
<path d="M136.972 130.897L136.318 130.761C136.3 130.757 136.283 130.75 136.268 130.738C136.253 130.727 136.241 130.712 136.233 130.696C136.225 130.679 136.22 130.661 136.22 130.642C136.22 130.624 136.224 130.605 136.232 130.589L136.504 129.944C136.515 129.916 136.517 129.885 136.507 129.856C136.498 129.828 136.479 129.804 136.453 129.788C136.428 129.772 136.397 129.766 136.367 129.77C136.338 129.775 136.311 129.79 136.291 129.812L135.796 130.321C135.784 130.336 135.769 130.348 135.752 130.356C135.734 130.365 135.715 130.369 135.696 130.369C135.677 130.369 135.658 130.365 135.64 130.356C135.623 130.348 135.608 130.336 135.596 130.321L135.192 129.812C135.106 129.703 134.92 129.812 134.956 129.944L135.115 130.589C135.119 130.608 135.119 130.627 135.115 130.646C135.111 130.666 135.104 130.684 135.092 130.7C135.081 130.716 135.067 130.73 135.051 130.74C135.034 130.751 135.016 130.758 134.997 130.761L134.32 130.897C134.175 130.925 134.157 131.129 134.298 131.156L134.951 131.292C134.97 131.296 134.987 131.304 135.002 131.315C135.016 131.326 135.028 131.341 135.037 131.358C135.045 131.374 135.049 131.392 135.049 131.411C135.05 131.43 135.046 131.448 135.038 131.465L134.765 132.109C134.754 132.137 134.753 132.168 134.762 132.197C134.772 132.225 134.791 132.25 134.816 132.266C134.842 132.281 134.872 132.288 134.902 132.283C134.932 132.279 134.959 132.264 134.979 132.241L135.474 131.733C135.486 131.719 135.502 131.708 135.519 131.7C135.536 131.693 135.555 131.689 135.573 131.689C135.592 131.689 135.611 131.693 135.628 131.7C135.645 131.708 135.661 131.719 135.673 131.733L136.077 132.241C136.164 132.35 136.35 132.241 136.318 132.109L136.159 131.465C136.155 131.446 136.155 131.427 136.158 131.408C136.162 131.389 136.169 131.371 136.18 131.355C136.19 131.339 136.204 131.325 136.22 131.314C136.236 131.304 136.254 131.296 136.273 131.292L136.949 131.156C137.108 131.129 137.108 130.925 136.972 130.897Z" fill="#263238"/>
<path d="M141.267 130.897L140.613 130.761C140.595 130.758 140.577 130.75 140.563 130.739C140.548 130.727 140.536 130.712 140.528 130.696C140.52 130.679 140.516 130.66 140.517 130.642C140.517 130.623 140.522 130.605 140.531 130.589L140.804 129.944C140.812 129.93 140.818 129.914 140.82 129.897C140.823 129.881 140.822 129.864 140.818 129.848C140.814 129.831 140.807 129.816 140.797 129.803C140.787 129.789 140.775 129.778 140.76 129.769C140.746 129.76 140.73 129.755 140.714 129.752C140.697 129.75 140.68 129.75 140.664 129.754C140.648 129.758 140.633 129.766 140.619 129.776C140.606 129.785 140.594 129.798 140.586 129.812L140.095 130.321C140.083 130.336 140.067 130.348 140.05 130.357C140.032 130.365 140.013 130.369 139.993 130.369C139.974 130.369 139.954 130.365 139.937 130.357C139.919 130.348 139.903 130.336 139.891 130.321L139.487 129.812C139.401 129.703 139.215 129.812 139.251 129.944L139.41 130.589C139.414 130.607 139.414 130.627 139.41 130.646C139.407 130.664 139.4 130.682 139.389 130.699C139.378 130.715 139.365 130.728 139.349 130.739C139.333 130.75 139.315 130.757 139.296 130.761L138.62 130.897C138.474 130.925 138.456 131.129 138.597 131.156L139.246 131.292C139.264 131.296 139.282 131.304 139.296 131.315C139.311 131.326 139.323 131.341 139.331 131.358C139.34 131.374 139.344 131.392 139.344 131.411C139.345 131.43 139.34 131.448 139.333 131.465L139.06 132.109C139.043 132.138 139.037 132.173 139.046 132.206C139.054 132.239 139.074 132.267 139.103 132.284C139.132 132.302 139.167 132.307 139.2 132.299C139.232 132.291 139.261 132.27 139.278 132.241L139.768 131.733C139.781 131.719 139.797 131.708 139.814 131.7C139.831 131.693 139.85 131.689 139.868 131.689C139.887 131.689 139.906 131.693 139.923 131.7C139.94 131.708 139.955 131.719 139.968 131.733L140.372 132.241C140.393 132.265 140.422 132.281 140.453 132.286C140.485 132.292 140.517 132.286 140.545 132.271C140.573 132.256 140.595 132.231 140.607 132.202C140.619 132.173 140.621 132.14 140.613 132.109L140.454 131.465C140.447 131.427 140.455 131.388 140.476 131.356C140.497 131.324 140.53 131.301 140.567 131.292L141.244 131.156C141.389 131.129 141.407 130.925 141.267 130.897Z" fill="#263238"/>
<path d="M130.911 121.495H122.848C122.6 121.499 122.363 121.594 122.181 121.761C121.998 121.928 121.884 122.157 121.858 122.403C121.845 122.519 121.857 122.636 121.893 122.747C121.929 122.858 121.989 122.96 122.067 123.046C122.146 123.132 122.242 123.2 122.349 123.246C122.457 123.291 122.572 123.314 122.689 123.311H130.752C130.999 123.307 131.237 123.212 131.419 123.045C131.601 122.877 131.716 122.649 131.742 122.403C131.754 122.287 131.741 122.17 131.705 122.06C131.669 121.949 131.609 121.848 131.531 121.762C131.452 121.676 131.356 121.608 131.249 121.562C131.143 121.516 131.027 121.493 130.911 121.495Z" fill="#263238"/>
<path d="M139.101 121.495H134.42C134.173 121.499 133.937 121.594 133.755 121.762C133.573 121.929 133.46 122.157 133.435 122.403C133.422 122.518 133.434 122.635 133.47 122.746C133.506 122.856 133.565 122.958 133.643 123.044C133.721 123.13 133.817 123.198 133.923 123.244C134.03 123.29 134.145 123.313 134.261 123.311H138.924C139.171 123.307 139.408 123.212 139.589 123.044C139.771 122.877 139.885 122.649 139.909 122.403C139.922 122.289 139.911 122.174 139.876 122.064C139.841 121.955 139.784 121.854 139.707 121.769C139.631 121.683 139.538 121.615 139.433 121.567C139.329 121.52 139.216 121.495 139.101 121.495Z" fill="#263238"/>
<path d="M145.28 162.65C142.43 163.736 139.857 165.441 137.748 167.644C136.467 166.65 134.94 166.022 133.331 165.828L133.117 165.796L133.026 166.868L133.145 166.913C134.91 167.563 136.403 168.792 137.38 170.4L137.535 170.654L137.703 170.382C139.583 167.38 142.236 164.94 145.384 163.317L145.489 163.263L145.548 162.555L145.28 162.65Z" fill="#263238"/>
<path opacity="0.2" d="M104.711 73.262C104.132 74.2722 103.776 75.3944 103.666 76.5535L96.9063 153.833H117.827L122.031 137.721L120.646 121.604L124.85 105.491L123.488 89.379L127.692 73.262H104.711Z" fill="black"/>
<path d="M121.649 84.839L125.853 68.722H72.9487L68.7492 84.839L70.1294 100.951L65.9299 117.064L67.31 133.181L63.1105 149.293H116.011L120.215 133.181L118.83 117.064L123.034 100.951L121.649 84.839Z" fill="#4887FA"/>
<path opacity="0.7" d="M121.649 84.839L125.853 68.722H72.9487L68.7492 84.839L70.1294 100.951L65.9299 117.064L67.31 133.181L63.1105 149.293H116.011L120.215 133.181L118.83 117.064L123.034 100.951L121.649 84.839Z" fill="white"/>
<path opacity="0.5" d="M121.649 84.839H68.7492L72.9487 68.722H125.853L121.649 84.839Z" fill="white"/>
<path opacity="0.5" d="M118.83 117.064H65.9299L70.1294 100.951H123.034L118.83 117.064Z" fill="white"/>
<path opacity="0.5" d="M116.011 149.293H63.106L67.3101 133.181H120.215L116.011 149.293Z" fill="white"/>
<path opacity="0.2" d="M114.571 91.5718C114.029 91.7287 113.466 91.8051 112.901 91.7988C112.135 91.8327 111.372 91.6767 110.681 91.3448C110.556 91.2707 110.413 91.2315 110.268 91.2313C110.134 91.2331 110.003 91.2674 109.886 91.3312H109.859C109.656 91.445 109.439 91.532 109.214 91.59C108.706 91.7241 108.183 91.7897 107.657 91.7852C107.498 91.7852 107.344 91.7852 107.203 91.7852C106.795 91.759 106.392 91.6874 106 91.5718C105.942 91.5546 105.883 91.544 105.823 91.54C105.723 91.5319 105.623 91.5445 105.528 91.577C105.433 91.6096 105.346 91.6614 105.272 91.7292C105.199 91.797 105.14 91.8793 105.099 91.971C105.059 92.0626 105.038 92.1617 105.037 92.2619V92.7522H84.444C84.0657 92.7522 83.691 92.8268 83.3415 92.9717C82.992 93.1167 82.6745 93.3291 82.4071 93.5969C82.1398 93.8646 81.9279 94.1825 81.7835 94.5322C81.6391 94.8819 81.5651 95.2567 81.5657 95.6351V98.5362C81.5645 98.9149 81.6381 99.2902 81.7822 99.6404C81.9263 99.9907 82.1381 100.309 82.4055 100.577C82.6729 100.846 82.9906 101.058 83.3404 101.204C83.6903 101.349 84.0653 101.424 84.444 101.424H107.839H107.993C108.243 101.632 108.506 101.841 108.788 102.055C109.069 102.268 109.469 102.563 109.836 102.826C109.962 102.917 110.113 102.966 110.268 102.966C110.422 102.966 110.573 102.917 110.699 102.826C113.641 100.693 115.529 99.2217 115.529 95.1811V92.2755C115.531 92.1593 115.505 92.0444 115.453 91.9404C115.401 91.8364 115.325 91.7463 115.231 91.6775C115.138 91.6087 115.029 91.5632 114.914 91.5448C114.799 91.5265 114.682 91.5357 114.571 91.5718Z" fill="black"/>
<path d="M107.389 91.1587H83.9991C82.4069 91.1587 81.1162 92.4494 81.1162 94.0416V96.9426C81.1162 98.5348 82.4069 99.8255 83.9991 99.8255H107.389C108.981 99.8255 110.272 98.5348 110.272 96.9426V94.0416C110.272 92.4494 108.981 91.1587 107.389 91.1587Z" fill="#4887FA"/>
<path d="M112.451 90.2007C111.685 90.2335 110.923 90.0776 110.231 89.7467C110.108 89.6712 109.967 89.6313 109.823 89.6313C109.678 89.6313 109.537 89.6712 109.414 89.7467C108.721 90.0782 107.957 90.2341 107.189 90.2007C106.624 90.2067 106.062 90.1303 105.519 89.9737C105.409 89.9369 105.293 89.9267 105.179 89.944C105.065 89.9612 104.956 90.0054 104.863 90.0728C104.769 90.1403 104.693 90.2291 104.64 90.3318C104.588 90.4346 104.561 90.5484 104.561 90.6638V93.5694C104.561 97.6145 106.449 99.0855 109.391 101.219C109.517 101.31 109.668 101.359 109.823 101.359C109.978 101.359 110.128 101.31 110.254 101.219C113.196 99.0855 115.085 97.6145 115.085 93.5694V90.6638C115.084 90.5482 115.056 90.4344 115.003 90.3317C114.95 90.229 114.873 90.1403 114.779 90.073C114.686 90.0056 114.577 89.9615 114.463 89.9443C114.348 89.927 114.232 89.9371 114.122 89.9737C113.579 90.1306 113.016 90.2071 112.451 90.2007Z" fill="#4887FA"/>
<path opacity="0.3" d="M112.451 90.2007C111.685 90.2335 110.923 90.0776 110.231 89.7467C110.108 89.6712 109.967 89.6313 109.823 89.6313C109.678 89.6313 109.537 89.6712 109.414 89.7467C108.721 90.0782 107.957 90.2341 107.189 90.2007C106.624 90.2067 106.062 90.1303 105.519 89.9737C105.409 89.9369 105.293 89.9267 105.179 89.944C105.065 89.9612 104.956 90.0054 104.863 90.0728C104.769 90.1403 104.693 90.2291 104.64 90.3318C104.588 90.4346 104.561 90.5484 104.561 90.6638V93.5694C104.561 97.6145 106.449 99.0855 109.391 101.219C109.517 101.31 109.668 101.359 109.823 101.359C109.978 101.359 110.128 101.31 110.254 101.219C113.196 99.0855 115.085 97.6145 115.085 93.5694V90.6638C115.084 90.5482 115.056 90.4344 115.003 90.3317C114.95 90.229 114.873 90.1403 114.779 90.073C114.686 90.0056 114.577 89.9615 114.463 89.9443C114.348 89.927 114.232 89.9371 114.122 89.9737C113.579 90.1306 113.016 90.2071 112.451 90.2007Z" fill="white"/>
<path opacity="0.2" d="M109.414 89.7376C108.721 90.0691 107.957 90.225 107.189 90.1916C106.624 90.1973 106.062 90.1209 105.519 89.9646C105.409 89.9279 105.293 89.9177 105.179 89.9349C105.065 89.9521 104.956 89.9963 104.863 90.0638C104.769 90.1312 104.693 90.22 104.64 90.3228C104.588 90.4255 104.561 90.5393 104.561 90.6547V93.5603C104.561 97.6055 106.449 99.0764 109.391 101.21C109.523 101.306 109.683 101.355 109.845 101.351V89.6196C109.693 89.6166 109.543 89.6576 109.414 89.7376Z" fill="white"/>
<path d="M114.04 92.7794C112.271 93.4728 110.694 94.5833 109.446 96.0165C108.575 95.3746 107.554 94.9666 106.481 94.8315H106.34V95.5261L106.418 95.5534C107.611 95.9842 108.64 96.778 109.36 97.8234L109.473 97.9868L109.568 97.8098C110.612 95.8701 112.202 94.2791 114.14 93.2334L114.208 93.2017V92.7477L114.04 92.7794Z" fill="#263238"/>
<path d="M124.918 73.2574H122.911C122.653 73.2622 122.397 73.2119 122.16 73.1099C121.923 73.0078 121.71 72.8564 121.536 72.6656C121.362 72.4748 121.231 72.2491 121.151 72.0036C121.071 71.7581 121.044 71.4983 121.073 71.2417L121.25 69.235C121.304 68.6893 121.557 68.1825 121.961 67.8109C122.364 67.4393 122.89 67.2288 123.438 67.2192H125.445C125.703 67.2138 125.96 67.2636 126.198 67.3654C126.435 67.4672 126.649 67.6185 126.823 67.8094C126.998 68.0002 127.129 68.2261 127.21 68.472C127.29 68.7178 127.316 68.978 127.288 69.235L127.111 71.2417C127.05 71.7856 126.794 72.2891 126.391 72.6595C125.988 73.0299 125.465 73.2423 124.918 73.2574Z" fill="#4887FA"/>
<path d="M125.753 69.2305L125.318 68.7492L124.219 69.7571L123.302 68.7492L122.78 69.2305L123.701 70.2383L122.607 71.2462L123.043 71.7229L124.137 70.715L125.059 71.7229L125.576 71.2462L124.655 70.2383L125.753 69.2305Z" fill="white"/>
<path d="M80.072 90.5685C81.2342 91.8351 82.342 93.1472 83.4452 94.4683C84.5484 95.7894 85.6153 97.1378 86.6777 98.4907C86.7231 98.5498 86.7049 98.5271 86.714 98.5452C86.7231 98.5634 86.714 98.5679 86.714 98.5725C86.7219 98.5893 86.7327 98.6047 86.7458 98.6179C86.7845 98.6729 86.8337 98.7196 86.8906 98.7555C86.9475 98.7913 87.0109 98.8155 87.0772 98.8267C87.1284 98.8336 87.1803 98.8336 87.2316 98.8267C87.2588 98.8288 87.2861 98.8288 87.3133 98.8267H87.3542C87.3769 98.8267 87.3542 98.8267 87.4268 98.7995L88.5618 98.182C90.0872 97.3739 91.6263 96.5839 93.2153 95.8757L94.5455 97.5237C93.2652 98.6996 91.9305 100.175 90.5821 101.256L89.5651 102.055C89.502 102.106 89.4352 102.153 89.3654 102.195C89.2883 102.25 89.2079 102.3 89.1247 102.345C88.9604 102.44 88.7906 102.525 88.6163 102.599C88.2645 102.747 87.8953 102.849 87.5176 102.904C86.7538 103.016 85.9741 102.938 85.2476 102.677C84.878 102.545 84.5271 102.367 84.2034 102.145C84.04 102.036 83.8856 101.909 83.7494 101.787C83.6722 101.723 83.6087 101.651 83.536 101.582L83.3544 101.401C82.1513 100.166 80.9664 98.9221 79.8041 97.6554C78.6419 96.3887 77.4933 95.113 76.3946 93.7873L80.072 90.5685Z" fill="#B55B52"/>
<path d="M92.616 96.8745L93.6738 93.4741L96.4614 94.8633C96.4614 94.8633 96.0528 97.3421 94.028 97.7734L92.616 96.8745Z" fill="#B55B52"/>
<path d="M94.7861 92.5343L97.3013 93.2243L96.4569 94.8633L93.6693 93.474L94.7861 92.5343Z" fill="#B55B52"/>
<path d="M65.4169 91.4946C65.1172 92.9383 64.745 94.3684 64.3591 95.794C63.9732 97.2196 63.5509 98.6315 63.1106 100.043L62.9471 100.575L62.8654 100.838C62.8544 100.876 62.8392 100.912 62.82 100.947C62.7682 101.093 62.7391 101.246 62.7337 101.401C62.7242 101.731 62.8161 102.056 62.9971 102.332C63.0864 102.453 63.185 102.567 63.2922 102.672L63.669 103.085L64.4136 103.916C64.8993 104.479 65.3897 105.042 65.8527 105.632L64.2683 107.448C63.6145 107.076 62.988 106.672 62.3615 106.272L61.4308 105.655L60.9768 105.342C60.8224 105.233 60.6953 105.16 60.4456 104.956C59.5573 104.199 58.9444 103.169 58.7022 102.027C58.5804 101.445 58.5513 100.848 58.616 100.257C58.616 100.112 58.6614 99.9481 58.6841 99.8028L58.734 99.5304L58.8294 98.9856C59.0836 97.5283 59.356 96.0755 59.6602 94.6318C59.9644 93.188 60.2912 91.7489 60.6771 90.3279L65.4169 91.4946Z" fill="#B55B52"/>
<path d="M64.3 105.487L66.1705 104.529L66.9968 107.707C66.9968 107.707 65.4941 108.284 64.3318 107.544L64.3 105.487Z" fill="#B55B52"/>
<path d="M68.7583 103.507L68.8446 106.431L66.7516 107.798L66.0252 104.588L68.7583 103.507Z" fill="#B55B52"/>
<path d="M74.8827 76.4854C74.9281 76.7078 75.0871 76.8667 75.2323 76.8395C75.3776 76.8123 75.4639 76.6034 75.4185 76.3855C75.3731 76.1676 75.2142 76.0041 75.0689 76.0314C74.9236 76.0586 74.8373 76.272 74.8827 76.4854Z" fill="#263238"/>
<path d="M75.0644 76.8713C75.4731 77.5045 75.9665 78.0788 76.5308 78.5783C76.3994 78.7198 76.2387 78.8309 76.0599 78.9039C75.8811 78.9768 75.6886 79.0098 75.4957 79.0005L75.0644 76.8713Z" fill="#A02724"/>
<path d="M73.8068 75.4049C73.7807 75.4046 73.7551 75.3967 73.7333 75.3823C73.7115 75.3679 73.6943 75.3475 73.6838 75.3235C73.6732 75.2996 73.6698 75.2731 73.6739 75.2473C73.678 75.2215 73.6895 75.1974 73.7069 75.1779C73.8491 75.017 74.0272 74.8921 74.2268 74.8132C74.4264 74.7343 74.6419 74.7037 74.8556 74.7239C74.8731 74.7271 74.8899 74.7339 74.9049 74.7436C74.9199 74.7534 74.9328 74.766 74.9429 74.7807C74.9531 74.7955 74.9602 74.8121 74.9639 74.8296C74.9676 74.8471 74.9678 74.8652 74.9645 74.8828C74.9618 74.9002 74.9556 74.9169 74.9463 74.9318C74.937 74.9468 74.9248 74.9597 74.9104 74.9699C74.896 74.9801 74.8797 74.9872 74.8625 74.991C74.8453 74.9947 74.8275 74.995 74.8101 74.9917C74.6408 74.9755 74.47 75 74.3121 75.0632C74.1541 75.1264 74.0136 75.2264 73.9021 75.3549C73.8779 75.3832 73.8438 75.401 73.8068 75.4049Z" fill="#263238"/>
<path d="M68.3361 79.6497C68.8355 81.7336 69.3394 85.5518 67.5507 86.9365C67.5507 86.9365 68.2498 89.0521 72.9987 89.0521C78.2197 89.0521 75.4957 87.6901 75.4957 87.6901C72.6445 87.1362 72.7172 84.6619 73.2257 83.0411L68.3361 79.6497Z" fill="#B55B52"/>
<path d="M66.9922 87.3224C66.6835 86.7458 66.3385 86.0829 67.0467 85.8741C67.8276 85.6471 72.8352 85.2249 74.3107 85.6516C73.8567 86.4552 74.624 87.4676 74.624 87.4676L66.9922 87.3224Z" fill="#263238"/>
<path d="M71.1418 184.742H74.4151L74.742 178.15H71.4641L71.1418 184.742Z" fill="#B55B52"/>
<path d="M50.3531 183.834L53.6719 184.011L55.6876 177.514L52.3689 177.337L50.3531 183.834Z" fill="#B55B52"/>
<path d="M53.572 183.747L50.4439 183.071C50.3892 183.058 50.3318 183.065 50.2814 183.09C50.2309 183.115 50.1906 183.156 50.167 183.207L49.0819 185.563C49.0552 185.621 49.042 185.683 49.0432 185.746C49.0445 185.809 49.0602 185.871 49.0891 185.928C49.118 185.984 49.1594 186.032 49.2101 186.07C49.2608 186.108 49.3195 186.133 49.3816 186.145C50.4757 186.362 51.0205 186.412 52.3962 186.712C53.2406 186.894 55.1519 187.361 56.3187 187.62C57.4855 187.879 57.8895 186.753 57.4355 186.544C55.3925 185.613 54.539 184.792 53.9852 184.024C53.8857 183.885 53.7388 183.786 53.572 183.747Z" fill="#263238"/>
<path d="M74.2426 184.41H71.1327C71.0765 184.411 71.0222 184.431 70.9785 184.466C70.9348 184.501 70.9044 184.551 70.8921 184.605L70.3292 187.134C70.3146 187.195 70.3143 187.259 70.3281 187.321C70.342 187.382 70.3697 187.439 70.4091 187.488C70.4485 187.537 70.4986 187.577 70.5556 187.604C70.6125 187.63 70.6748 187.644 70.7378 187.643C71.8591 187.643 73.4618 187.556 74.8919 187.556C76.5399 187.556 77.9609 187.647 79.8859 187.647C81.0526 187.647 81.3795 186.467 80.8892 186.358C78.6601 185.872 76.8441 185.818 74.9191 184.633C74.7179 184.499 74.4841 184.422 74.2426 184.41Z" fill="#263238"/>
<path d="M61.6169 87.8989C59.1471 89.0748 58.4752 96.2026 58.4752 96.2026L64.5906 99.0265C65.6243 97.283 66.1875 95.3009 66.225 93.2743C66.3476 89.5924 64.1457 86.714 61.6169 87.8989Z" fill="#263238"/>
<path opacity="0.4" d="M64.922 92.2937C63.8188 94.0098 63.9232 96.6612 64.3046 98.8994L64.577 99.0265C65.6097 97.2826 66.1728 95.3007 66.2114 93.2743C66.2114 93.0564 66.2114 92.8203 66.2114 92.6251L64.922 92.2937Z" fill="black"/>
<path d="M78.6827 87.7264C78.6827 87.7264 81.7155 91.1496 78.8507 112.333H63.6281C63.5237 109.995 64.9901 98.5952 62.7201 87.5811C64.4025 87.2575 66.104 87.0422 67.814 86.9365C69.9702 86.8138 72.1317 86.8138 74.288 86.9365C75.771 87.0867 77.2403 87.3508 78.6827 87.7264Z" fill="#4887FA"/>
<path opacity="0.6" d="M78.6827 87.7264C78.6827 87.7264 81.7155 91.1496 78.8507 112.333H63.6281C63.5237 109.995 64.9901 98.5952 62.7201 87.5811C64.4025 87.2575 66.104 87.0422 67.814 86.9365C69.9702 86.8138 72.1317 86.8138 74.288 86.9365C75.771 87.0867 77.2403 87.3508 78.6827 87.7264Z" fill="#FAFAFA"/>
<path opacity="0.2" d="M80.0129 94.2005L79.9585 94.1505L76.9303 92.5343C76.6216 97.1969 78.7054 100.121 79.9448 101.396C80.1002 99.0008 80.1229 96.5985 80.0129 94.2005Z" fill="black"/>
<path opacity="0.2" d="M74.742 178.15L74.574 181.55H71.2961L71.4641 178.15H74.742Z" fill="black"/>
<path opacity="0.2" d="M52.3689 177.341L55.6876 177.514L54.648 180.865L51.3292 180.687L52.3689 177.341Z" fill="black"/>
<path d="M67.2828 77.5341C68.0138 80.2581 68.3043 81.8971 70.0068 83.0321C72.5401 84.7391 75.6909 82.7778 75.7908 79.8858C75.877 77.2844 74.6694 73.2574 71.7411 72.7081C71.0946 72.5802 70.4261 72.6202 69.7994 72.8242C69.1728 73.0283 68.6089 73.3897 68.1617 73.8737C67.7145 74.3578 67.3989 74.9485 67.245 75.5893C67.0911 76.2302 67.1042 76.8998 67.2828 77.5341Z" fill="#B55B52"/>
<path d="M73.4527 112.333C73.4527 112.333 70.2202 134.084 68.4587 142.238C66.5065 151.182 56.0917 180.692 56.0917 180.692L50.9933 179.589C50.9933 179.589 57.5263 155.527 59.1653 143.051C59.8009 138.179 60.5681 130.339 61.5397 123.788C62.4795 117.432 63.6372 112.338 63.6372 112.338L73.4527 112.333Z" fill="#263238"/>
<path d="M57.3129 178.989L56.3595 180.833L50.6301 179.589L51.1113 177.868L57.3129 178.989Z" fill="#4887FA"/>
<path opacity="0.6" d="M57.3129 178.989L56.3595 180.833L50.6301 179.589L51.1113 177.868L57.3129 178.989Z" fill="white"/>
<path opacity="0.6" d="M71.4096 120.083C67.6732 120.814 68.0682 134.747 68.5177 141.911C69.5982 136.845 71.1736 127.102 72.2495 120.183C71.9892 120.055 71.6928 120.019 71.4096 120.083Z" fill="black"/>
<path d="M78.8507 112.333C78.8507 112.333 80.3716 133.617 80.0629 142.297C79.7405 151.327 75.4593 180.887 75.4593 180.887H70.6378C70.6378 180.887 70.4608 151.831 70.2474 142.983C70.0113 133.313 68.8445 112.329 68.8445 112.329L78.8507 112.333Z" fill="#263238"/>
<path d="M76.3855 178.971C76.4082 178.971 76.1131 180.973 76.1131 180.973H70.2474L70.0885 179.185L76.3855 178.971Z" fill="#4887FA"/>
<path opacity="0.6" d="M76.3855 178.971C76.4082 178.971 76.1131 180.973 76.1131 180.973H70.2474L70.0885 179.185L76.3855 178.971Z" fill="white"/>
<path d="M76.9076 91.708C76.9076 97.4193 79.9449 99.771 79.9449 99.771L84.898 94.9496C83.7256 92.9903 82.3907 91.1329 80.9073 89.3972C78.0426 86.1147 76.9076 88.0397 76.9076 91.708Z" fill="#263238"/>
<path opacity="0.2" d="M75.6001 80.921C75.4991 81.2072 75.3297 81.4644 75.1065 81.6701C74.8834 81.8758 74.6133 82.0239 74.3198 82.1014C73.997 82.1672 73.704 82.3352 73.4841 82.5805C73.2641 82.8258 73.129 83.1353 73.0986 83.4634C73.6864 83.2668 74.2195 82.934 74.6542 82.4921C75.089 82.0503 75.4131 81.5119 75.6001 80.921Z" fill="black"/>
<path d="M74.3198 72.1088C75.3368 70.824 73.7705 70.7468 73.7705 70.7468C74.1791 69.2168 72.3449 70.0386 72.3449 70.0386C71.2462 68.5222 70.6243 70.37 70.6243 70.37C69.4847 69.0852 69.2623 71.1827 69.2623 71.1827C68.1182 69.5528 67.5371 71.9045 67.5371 71.9045C66.4838 70.2111 65.8391 72.413 65.8391 72.413C63.6644 71.6367 64.695 73.8976 64.695 73.8976C62.8427 73.9475 64.3318 75.3867 64.3318 75.3867C62.1072 75.3867 64.0685 76.6624 64.0685 76.6624C62.3024 77.8201 64.5225 78.1334 64.5225 78.1334C63.0833 80.4034 65.5576 79.5499 65.5576 79.5499C64.5543 81.7836 66.7743 80.7984 66.7743 80.7984C66.6336 82.9503 67.873 82.3647 68.4723 81.9652C68.5858 82.4192 68.8037 82.8732 69.2032 82.9095C69.9796 83.0139 70.1112 81.5475 70.1112 81.5475C70.1112 81.5475 70.8286 82.1104 71.4324 81.8063C72.0362 81.5021 71.8092 80.7348 71.8092 80.7348C71.9403 80.8328 72.0995 80.8858 72.2632 80.8858C72.4269 80.8858 72.5861 80.8328 72.7172 80.7348C72.976 80.5351 72.976 79.0913 72.6491 78.5829L73.8295 78.1289C73.8295 78.1289 74.7057 78.0063 74.3153 76.8486C74.0797 76.1832 74.059 75.4606 74.2563 74.7829C75.591 74.1564 74.4923 73.4209 74.4923 73.4209C76.0405 72.4266 74.3198 72.1088 74.3198 72.1088Z" fill="#263238"/>
<path d="M71.9272 77.634C72.112 78.3113 72.5159 78.9084 73.0758 79.332C73.8158 79.8858 74.3697 79.332 74.3152 78.5011C74.2698 77.7475 73.8249 76.5535 73.0077 76.3265C72.1905 76.0995 71.732 76.8304 71.9272 77.634Z" fill="#B55B52"/>
</svg>
