<svg width="275" height="274" viewBox="0 0 275 274" fill="none" xmlns="http://www.w3.org/2000/svg">
<g style="mix-blend-mode:soft-light" clip-path="url(#clip0_11_492)" filter="url(#filter0_d_11_492)">
<path d="M277.65 259.317C277.65 259.399 221.091 259.46 151.33 259.46C81.57 259.46 25 259.399 25 259.317C25 259.235 81.5481 259.175 151.33 259.175C221.113 259.175 277.65 259.241 277.65 259.317Z" fill="#263238"/>
<path d="M81.6961 240.57H47.3474V246.806H81.6961V240.57Z" fill="white"/>
<path d="M36.3872 246.529C36.1972 244.471 36.1972 242.4 36.3872 240.342C36.5772 242.4 36.5772 244.471 36.3872 246.529Z" fill="#263238"/>
<path d="M34.524 246.529C34.334 244.471 34.334 242.4 34.524 240.342C34.714 242.4 34.714 244.471 34.524 246.529Z" fill="#263238"/>
<path d="M40.5136 246.529C40.3237 244.471 40.3237 242.4 40.5136 240.342C40.7036 242.4 40.7036 244.471 40.5136 246.529Z" fill="#263238"/>
<path d="M38.6395 246.529C38.4422 244.471 38.4422 242.399 38.6395 240.342C38.8295 242.4 38.8295 244.471 38.6395 246.529Z" fill="#263238"/>
<path d="M44.6456 246.529C44.4483 244.471 44.4483 242.399 44.6456 240.342C44.8355 242.4 44.8355 244.471 44.6456 246.529Z" fill="#263238"/>
<path d="M42.744 246.529C42.554 244.471 42.554 242.4 42.744 240.342C42.934 242.4 42.934 244.471 42.744 246.529Z" fill="#263238"/>
<path d="M63.0969 246.85C62.907 244.792 62.907 242.721 63.0969 240.663C63.2869 242.721 63.2869 244.792 63.0969 246.85Z" fill="#263238"/>
<path d="M46.8924 246.529C46.7024 244.471 46.7024 242.4 46.8924 240.342C47.0823 242.4 47.0823 244.471 46.8924 246.529Z" fill="#263238"/>
<path d="M67.2234 246.85C67.0334 244.792 67.0334 242.721 67.2234 240.663C67.4134 242.721 67.4134 244.792 67.2234 246.85Z" fill="#263238"/>
<path d="M65.3437 246.85C65.1538 244.792 65.1538 242.721 65.3437 240.663C65.5337 242.721 65.5337 244.792 65.3437 246.85Z" fill="#263238"/>
<path d="M71.3498 246.85C71.1598 244.792 71.1598 242.721 71.3498 240.663C71.5398 242.721 71.5398 244.792 71.3498 246.85Z" fill="#263238"/>
<path d="M69.4702 246.85C69.2802 244.792 69.2802 242.721 69.4702 240.663C69.6601 242.721 69.6601 244.792 69.4702 246.85Z" fill="#263238"/>
<path d="M75.4763 246.85C75.2863 244.792 75.2863 242.721 75.4763 240.663C75.6663 242.721 75.6663 244.792 75.4763 246.85Z" fill="#263238"/>
<path d="M73.5966 246.85C73.4067 244.792 73.4067 242.721 73.5966 240.663C73.7866 242.721 73.7866 244.792 73.5966 246.85Z" fill="#263238"/>
<path d="M79.6027 246.85C79.4127 244.792 79.4127 242.721 79.6027 240.663C79.7927 242.721 79.7927 244.792 79.6027 246.85Z" fill="#263238"/>
<path d="M77.7231 246.85C77.5331 244.792 77.5331 242.721 77.7231 240.663C77.9203 242.721 77.9203 244.793 77.7231 246.85Z" fill="#263238"/>
<path d="M81.6961 240.57C81.6961 240.647 73.9528 240.713 64.4012 240.713C54.8496 240.713 47.1063 240.647 47.1063 240.57C47.1063 240.493 54.8496 240.428 64.4012 240.428C73.9528 240.428 81.6961 240.488 81.6961 240.57Z" fill="#263238"/>
<path d="M79.0054 246.757H44.6567V252.993H79.0054V246.757Z" fill="white"/>
<path d="M33.6965 252.716C33.5065 250.658 33.5065 248.587 33.6965 246.529C33.8865 248.587 33.8865 250.658 33.6965 252.716Z" fill="#263238"/>
<path d="M31.8169 252.716C31.6269 250.658 31.6269 248.587 31.8169 246.529C32.0069 248.587 32.0069 250.658 31.8169 252.716Z" fill="#263238"/>
<path d="M37.812 252.716C37.622 250.658 37.622 248.587 37.812 246.529C38.002 248.587 38.002 250.658 37.812 252.716Z" fill="#263238"/>
<path d="M35.9433 252.716C35.7533 250.658 35.7533 248.587 35.9433 246.529C36.1333 248.587 36.1333 250.658 35.9433 252.716Z" fill="#263238"/>
<path d="M41.9494 252.716C41.7594 250.658 41.7594 248.587 41.9494 246.529C42.1394 248.587 42.1394 250.658 41.9494 252.716Z" fill="#263238"/>
<path d="M40.0698 252.716C39.8798 250.658 39.8798 248.587 40.0698 246.529C40.2597 248.587 40.2597 250.658 40.0698 252.716Z" fill="#263238"/>
<path d="M46.0758 252.716C45.8859 250.658 45.8859 248.587 46.0758 246.529C46.2658 248.587 46.2658 250.658 46.0758 252.716Z" fill="#263238"/>
<path d="M44.1962 252.716C44.0062 250.658 44.0062 248.587 44.1962 246.529C44.3935 248.586 44.3935 250.658 44.1962 252.716Z" fill="#263238"/>
<path d="M64.5327 253.037C64.3354 250.98 64.3354 248.908 64.5327 246.85C64.7227 248.908 64.7227 250.979 64.5327 253.037Z" fill="#263238"/>
<path d="M62.6531 253.037C62.4631 250.979 62.4631 248.908 62.6531 246.85C62.843 248.908 62.843 250.979 62.6531 253.037Z" fill="#263238"/>
<path d="M68.6591 253.037C68.4692 250.979 68.4692 248.908 68.6591 246.85C68.8491 248.908 68.8491 250.979 68.6591 253.037Z" fill="#263238"/>
<path d="M66.7795 253.037C66.5895 250.979 66.5895 248.908 66.7795 246.85C66.9695 248.908 66.9695 250.979 66.7795 253.037Z" fill="#263238"/>
<path d="M72.7856 253.037C72.5956 250.979 72.5956 248.908 72.7856 246.85C72.9755 248.908 72.9755 250.979 72.7856 253.037Z" fill="#263238"/>
<path d="M70.9059 253.037C70.716 250.979 70.716 248.908 70.9059 246.85C71.0959 248.908 71.0959 250.979 70.9059 253.037Z" fill="#263238"/>
<path d="M76.912 253.037C76.722 250.979 76.722 248.908 76.912 246.85C77.102 248.908 77.102 250.979 76.912 253.037Z" fill="#263238"/>
<path d="M75.0324 253.037C74.8424 250.979 74.8424 248.908 75.0324 246.85C75.2223 248.908 75.2223 250.979 75.0324 253.037Z" fill="#263238"/>
<path d="M78.9889 246.757C78.9889 246.834 71.2621 246.9 61.7324 246.9C52.2027 246.9 44.4814 246.834 44.4814 246.757C44.4814 246.68 52.2027 246.615 61.7324 246.615C71.2621 246.615 78.9889 246.68 78.9889 246.757Z" fill="#263238"/>
<path d="M76.7969 253.037H42.4483V259.273H76.7969V253.037Z" fill="white"/>
<path d="M31.4881 258.996C31.2981 256.938 31.2981 254.867 31.4881 252.809C31.6781 254.867 31.6781 256.938 31.4881 258.996Z" fill="#263238"/>
<path d="M29.592 258.996C29.402 256.938 29.402 254.867 29.592 252.809C29.782 254.867 29.782 256.938 29.592 258.996Z" fill="#263238"/>
<path d="M35.62 258.996C35.43 256.938 35.43 254.867 35.62 252.809C35.81 254.867 35.81 256.938 35.62 258.996Z" fill="#263238"/>
<path d="M33.7349 258.996C33.5449 256.938 33.5449 254.867 33.7349 252.809C33.9321 254.866 33.9321 256.938 33.7349 258.996Z" fill="#263238"/>
<path d="M39.741 258.996C39.551 256.938 39.551 254.867 39.741 252.809C39.9382 254.866 39.9382 256.938 39.741 258.996Z" fill="#263238"/>
<path d="M37.8668 258.996C37.6768 256.938 37.6768 254.867 37.8668 252.809C38.0568 254.867 38.0568 256.938 37.8668 258.996Z" fill="#263238"/>
<path d="M43.8729 258.996C43.6829 256.938 43.6829 254.867 43.8729 252.809C44.0629 254.867 44.0629 256.938 43.8729 258.996Z" fill="#263238"/>
<path d="M41.9932 258.996C41.8033 256.938 41.8033 254.867 41.9932 252.809C42.1832 254.867 42.1832 256.938 41.9932 258.996Z" fill="#263238"/>
<path d="M62.3243 259.317C62.1343 257.259 62.1343 255.188 62.3243 253.13C62.5142 255.188 62.5142 257.259 62.3243 259.317Z" fill="#263238"/>
<path d="M46.1197 258.996C45.9297 256.938 45.9297 254.867 46.1197 252.809C46.3097 254.867 46.3097 256.938 46.1197 258.996Z" fill="#263238"/>
<path d="M66.4507 259.317C66.2607 257.259 66.2607 255.188 66.4507 253.13C66.6407 255.188 66.6407 257.259 66.4507 259.317Z" fill="#263238"/>
<path d="M64.5711 259.317C64.3811 257.259 64.3811 255.188 64.5711 253.13C64.761 255.188 64.761 257.259 64.5711 259.317Z" fill="#263238"/>
<path d="M70.5771 259.317C70.3872 257.259 70.3872 255.188 70.5771 253.13C70.7671 255.188 70.7671 257.259 70.5771 259.317Z" fill="#263238"/>
<path d="M68.6975 259.317C68.5075 257.259 68.5075 255.188 68.6975 253.13C68.8875 255.188 68.8875 257.259 68.6975 259.317Z" fill="#263238"/>
<path d="M74.7036 259.317C74.5136 257.259 74.5136 255.188 74.7036 253.13C74.8935 255.188 74.8935 257.259 74.7036 259.317Z" fill="#263238"/>
<path d="M72.8239 259.317C72.634 257.259 72.634 255.188 72.8239 253.13C73.0139 255.188 73.0139 257.259 72.8239 259.317Z" fill="#263238"/>
<path d="M76.7969 253.037C76.7969 253.119 69.0701 253.18 59.5459 253.18C50.0217 253.18 42.2729 253.119 42.2729 253.037C42.2729 252.955 49.9943 252.895 59.5295 252.895C69.0647 252.895 76.7969 252.949 76.7969 253.037Z" fill="#263238"/>
<g opacity="0.3">
<path d="M49.3202 246.817C54.5278 248.009 59.8869 248.399 65.2122 247.974C70.4785 247.623 75.8051 246.85 81.1042 246.911L49.3202 246.817Z" fill="black"/>
</g>
<g opacity="0.3">
<path d="M42.8703 253.119C48.0781 254.31 53.4372 254.698 58.7623 254.27C64.034 253.919 69.3551 253.147 74.6543 253.213L42.8703 253.119Z" fill="black"/>
</g>
<path d="M34.2116 240.621C34.2116 240.698 34.0198 240.764 33.7842 240.764C33.5486 240.764 33.3513 240.698 33.3513 240.621C33.3513 240.545 33.5431 240.473 33.7842 240.473C34.0253 240.473 34.2116 240.539 34.2116 240.621Z" fill="white"/>
<path d="M38.9847 240.638C38.3371 240.778 37.6729 240.826 37.0119 240.78C36.3509 240.826 35.6867 240.778 35.0391 240.638C35.6863 240.494 36.3509 240.446 37.0119 240.495C37.6729 240.446 38.3376 240.494 38.9847 240.638Z" fill="white"/>
<path d="M44.4318 240.638C43.7842 240.778 43.1201 240.826 42.459 240.78C41.7998 240.826 41.1375 240.778 40.4917 240.638C41.137 240.495 41.7998 240.447 42.459 240.495C43.1201 240.446 43.7847 240.494 44.4318 240.638Z" fill="white"/>
<path d="M272.669 225.522H235.717V232.235H272.669V225.522Z" fill="white"/>
<path d="M239.339 232.279C239.135 230.066 239.135 227.839 239.339 225.626C239.544 227.839 239.544 230.066 239.339 232.279Z" fill="#263238"/>
<path d="M237.317 232.279C237.113 230.066 237.113 227.839 237.317 225.626C237.522 227.839 237.522 230.066 237.317 232.279Z" fill="#263238"/>
<path d="M229.453 231.957C229.248 229.745 229.248 227.518 229.453 225.305C229.658 227.518 229.658 229.745 229.453 231.957Z" fill="#263238"/>
<path d="M241.745 232.279C241.54 230.066 241.54 227.839 241.745 225.626C241.957 227.839 241.957 230.066 241.745 232.279Z" fill="#263238"/>
<path d="M233.897 231.957C233.685 229.745 233.685 227.517 233.897 225.305C234.102 227.518 234.102 229.745 233.897 231.957Z" fill="#263238"/>
<path d="M231.875 231.957C231.671 229.745 231.671 227.518 231.875 225.305C232.08 227.518 232.08 229.745 231.875 231.957Z" fill="#263238"/>
<path d="M238.336 231.957C238.132 229.745 238.132 227.518 238.336 225.305C238.541 227.518 238.541 229.745 238.336 231.957Z" fill="#263238"/>
<path d="M236.314 231.957C236.109 229.745 236.109 227.518 236.314 225.305C236.519 227.518 236.519 229.745 236.314 231.957Z" fill="#263238"/>
<path d="M242.764 231.957C242.559 229.745 242.559 227.518 242.764 225.305C242.969 227.518 242.969 229.745 242.764 231.957Z" fill="#263238"/>
<path d="M240.753 231.957C240.548 229.745 240.548 227.518 240.753 225.305C240.957 227.518 240.957 229.745 240.753 231.957Z" fill="#263238"/>
<path d="M247.214 231.957C247.009 229.745 247.009 227.518 247.214 225.305C247.418 227.518 247.418 229.745 247.214 231.957Z" fill="#263238"/>
<path d="M245.192 231.957C244.987 229.745 244.987 227.518 245.192 225.305C245.404 227.517 245.404 229.745 245.192 231.957Z" fill="#263238"/>
<path d="M251.658 231.957C251.453 229.745 251.453 227.518 251.658 225.305C251.863 227.518 251.863 229.745 251.658 231.957Z" fill="#263238"/>
<path d="M249.636 231.957C249.431 229.745 249.431 227.518 249.636 225.305C249.841 227.518 249.841 229.745 249.636 231.957Z" fill="#263238"/>
<path d="M256.097 231.957C255.892 229.745 255.892 227.518 256.097 225.305C256.301 227.518 256.301 229.745 256.097 231.957Z" fill="#263238"/>
<path d="M254.075 231.957C253.87 229.745 253.87 227.518 254.075 225.305C254.279 227.518 254.279 229.745 254.075 231.957Z" fill="#263238"/>
<path d="M272.674 225.549C272.674 225.637 264.361 225.703 254.108 225.703C243.855 225.703 235.547 225.637 235.547 225.549C235.547 225.462 243.855 225.396 254.108 225.396C264.361 225.396 272.674 225.44 272.674 225.549Z" fill="#263238"/>
<path d="M270.252 232.339H233.3V239.052H270.252V232.339Z" fill="white"/>
<path d="M236.923 239.096C236.718 236.881 236.718 234.653 236.923 232.438C237.127 234.653 237.127 236.881 236.923 239.096Z" fill="#263238"/>
<path d="M234.9 239.096C234.696 236.881 234.696 234.653 234.9 232.438C235.105 234.653 235.105 236.881 234.9 239.096Z" fill="#263238"/>
<path d="M241.361 239.096C241.157 236.881 241.157 234.653 241.361 232.438C241.566 234.653 241.566 236.881 241.361 239.096Z" fill="#263238"/>
<path d="M239.339 239.096C239.134 236.881 239.134 234.653 239.339 232.438C239.544 234.653 239.544 236.881 239.339 239.096Z" fill="#263238"/>
<path d="M231.475 238.775C231.27 236.56 231.27 234.331 231.475 232.116C231.68 234.331 231.68 236.56 231.475 238.775Z" fill="#263238"/>
<path d="M229.453 238.775C229.248 236.56 229.248 234.331 229.453 232.116C229.658 234.331 229.658 236.56 229.453 238.775Z" fill="#263238"/>
<path d="M235.914 238.775C235.709 236.56 235.709 234.331 235.914 232.116C236.119 234.331 236.119 236.56 235.914 238.775Z" fill="#263238"/>
<path d="M233.897 238.775C233.685 236.56 233.685 234.331 233.897 232.116C234.102 234.331 234.102 236.56 233.897 238.775Z" fill="#263238"/>
<path d="M240.358 238.775C240.154 236.56 240.154 234.331 240.358 232.116C240.563 234.331 240.563 236.56 240.358 238.775Z" fill="#263238"/>
<path d="M238.336 238.775C238.131 236.56 238.131 234.331 238.336 232.116C238.541 234.331 238.541 236.56 238.336 238.775Z" fill="#263238"/>
<path d="M244.797 238.775C244.592 236.56 244.592 234.331 244.797 232.116C245.002 234.331 245.002 236.56 244.797 238.775Z" fill="#263238"/>
<path d="M242.764 238.775C242.559 236.56 242.559 234.331 242.764 232.116C242.969 234.331 242.969 236.56 242.764 238.775Z" fill="#263238"/>
<path d="M249.236 238.775C249.031 236.56 249.031 234.331 249.236 232.116C249.441 234.331 249.441 236.56 249.236 238.775Z" fill="#263238"/>
<path d="M247.214 238.775C247.009 236.56 247.009 234.331 247.214 232.116C247.418 234.331 247.418 236.56 247.214 238.775Z" fill="#263238"/>
<path d="M253.675 238.775C253.47 236.56 253.47 234.331 253.675 232.116C253.879 234.331 253.879 236.56 253.675 238.775Z" fill="#263238"/>
<path d="M251.658 238.775C251.453 236.56 251.453 234.331 251.658 232.116C251.863 234.331 251.863 236.56 251.658 238.775Z" fill="#263238"/>
<path d="M270.241 232.339C270.241 232.427 261.933 232.493 251.68 232.493C241.427 232.493 233.119 232.427 233.119 232.339C233.119 232.252 241.427 232.186 251.68 232.186C261.933 232.186 270.241 232.257 270.241 232.339Z" fill="#263238"/>
<path d="M273.271 239.096H236.32V245.809H273.271V239.096Z" fill="white"/>
<path d="M239.942 245.853C239.737 243.638 239.737 241.409 239.942 239.195C240.147 241.409 240.147 243.638 239.942 245.853Z" fill="#263238"/>
<path d="M237.909 245.853C237.704 243.638 237.704 241.409 237.909 239.195C238.114 241.409 238.114 243.638 237.909 245.853Z" fill="#263238"/>
<path d="M230.056 245.531C229.851 243.317 229.851 241.088 230.056 238.873C230.261 241.088 230.261 243.317 230.056 245.531Z" fill="#263238"/>
<path d="M228.034 245.531C227.829 243.317 227.829 241.088 228.034 238.873C228.238 241.088 228.238 243.317 228.034 245.531Z" fill="#263238"/>
<path d="M234.495 245.531C234.29 243.317 234.29 241.088 234.495 238.873C234.699 241.088 234.699 243.317 234.495 245.531Z" fill="#263238"/>
<path d="M232.473 245.531C232.268 243.317 232.268 241.088 232.473 238.873C232.677 241.088 232.677 243.317 232.473 245.531Z" fill="#263238"/>
<path d="M238.928 245.531C238.723 243.317 238.723 241.088 238.928 238.873C239.14 241.088 239.14 243.317 238.928 245.531Z" fill="#263238"/>
<path d="M236.917 245.531C236.712 243.317 236.712 241.088 236.917 238.873C237.122 241.088 237.122 243.317 236.917 245.531Z" fill="#263238"/>
<path d="M243.378 245.531C243.173 243.317 243.173 241.088 243.378 238.873C243.582 241.088 243.582 243.317 243.378 245.531Z" fill="#263238"/>
<path d="M241.356 245.531C241.151 243.317 241.151 241.088 241.356 238.873C241.56 241.088 241.56 243.317 241.356 245.531Z" fill="#263238"/>
<path d="M247.817 245.531C247.612 243.317 247.612 241.088 247.817 238.873C248.021 241.088 248.021 243.317 247.817 245.531Z" fill="#263238"/>
<path d="M245.794 245.531C245.59 243.317 245.59 241.088 245.794 238.873C245.999 241.088 245.999 243.317 245.794 245.531Z" fill="#263238"/>
<path d="M252.255 245.531C252.051 243.317 252.051 241.088 252.255 238.873C252.46 241.088 252.46 243.317 252.255 245.531Z" fill="#263238"/>
<path d="M250.233 245.531C250.029 243.317 250.029 241.088 250.233 238.873C250.438 241.088 250.438 243.317 250.233 245.531Z" fill="#263238"/>
<path d="M256.694 245.531C256.489 243.317 256.489 241.088 256.694 238.873C256.906 241.088 256.906 243.317 256.694 245.531Z" fill="#263238"/>
<path d="M254.678 245.531C254.473 243.317 254.473 241.088 254.678 238.873C254.882 241.088 254.882 243.317 254.678 245.531Z" fill="#263238"/>
<path d="M273.271 239.096C273.271 239.184 264.942 239.249 254.667 239.249C244.392 239.249 236.035 239.184 236.035 239.096C236.035 239.008 244.364 238.943 254.667 238.943C264.969 238.943 273.271 239.014 273.271 239.096Z" fill="#263238"/>
<path d="M270.372 245.754H233.421V252.467H270.372V245.754Z" fill="white"/>
<path d="M237.043 252.511C236.838 250.296 236.838 248.068 237.043 245.853C237.248 248.068 237.248 250.296 237.043 252.511Z" fill="#263238"/>
<path d="M235.021 252.511C234.816 250.296 234.816 248.068 235.021 245.853C235.226 248.068 235.226 250.296 235.021 252.511Z" fill="#263238"/>
<path d="M241.482 252.511C241.277 250.296 241.277 248.068 241.482 245.853C241.687 248.068 241.687 250.296 241.482 252.511Z" fill="#263238"/>
<path d="M239.46 252.511C239.255 250.296 239.255 248.068 239.46 245.853C239.672 248.067 239.672 250.297 239.46 252.511Z" fill="#263238"/>
<path d="M231.601 252.19C231.397 249.975 231.397 247.746 231.601 245.531C231.806 247.746 231.806 249.975 231.601 252.19Z" fill="#263238"/>
<path d="M229.579 252.19C229.374 249.975 229.374 247.746 229.579 245.531C229.784 247.746 229.784 249.975 229.579 252.19Z" fill="#263238"/>
<path d="M236.04 252.19C235.835 249.975 235.835 247.746 236.04 245.531C236.245 247.746 236.245 249.975 236.04 252.19Z" fill="#263238"/>
<path d="M233.996 252.19C233.791 249.975 233.791 247.746 233.996 245.531C234.201 247.746 234.201 249.975 233.996 252.19Z" fill="#263238"/>
<path d="M240.479 252.19C240.274 249.975 240.274 247.746 240.479 245.531C240.684 247.746 240.684 249.975 240.479 252.19Z" fill="#263238"/>
<path d="M238.457 252.19C238.252 249.975 238.252 247.746 238.457 245.531C238.661 247.746 238.661 249.975 238.457 252.19Z" fill="#263238"/>
<path d="M244.918 252.19C244.713 249.975 244.713 247.746 244.918 245.531C245.122 247.746 245.122 249.975 244.918 252.19Z" fill="#263238"/>
<path d="M242.901 252.19C242.689 249.975 242.689 247.746 242.901 245.531C243.106 247.746 243.106 249.975 242.901 252.19Z" fill="#263238"/>
<path d="M249.34 252.19C249.135 249.975 249.135 247.746 249.34 245.531C249.545 247.746 249.545 249.975 249.34 252.19Z" fill="#263238"/>
<path d="M247.34 252.19C247.135 249.975 247.135 247.746 247.34 245.531C247.545 247.746 247.545 249.975 247.34 252.19Z" fill="#263238"/>
<path d="M253.801 252.19C253.596 249.975 253.596 247.746 253.801 245.531C254.005 247.746 254.005 249.975 253.801 252.19Z" fill="#263238"/>
<path d="M251.779 252.19C251.574 249.975 251.574 247.746 251.779 245.531C251.983 247.746 251.983 249.975 251.779 252.19Z" fill="#263238"/>
<path d="M270.378 245.754C270.378 245.842 262.065 245.908 251.812 245.908C241.559 245.908 233.251 245.842 233.251 245.754C233.251 245.667 241.559 245.601 251.812 245.601C262.065 245.601 270.378 245.672 270.378 245.754Z" fill="#263238"/>
<path d="M274.077 252.56H237.125V259.273H274.077V252.56Z" fill="white"/>
<path d="M240.748 259.317C240.543 257.103 240.543 254.874 240.748 252.659C240.952 254.874 240.952 257.103 240.748 259.317Z" fill="#263238"/>
<path d="M238.725 259.317C238.521 257.103 238.521 254.874 238.725 252.659C238.93 254.874 238.93 257.103 238.725 259.317Z" fill="#263238"/>
<path d="M230.861 258.996C230.657 256.781 230.657 254.552 230.861 252.338C231.066 254.552 231.066 256.781 230.861 258.996Z" fill="#263238"/>
<path d="M228.839 258.996C228.635 256.781 228.635 254.552 228.839 252.338C229.044 254.552 229.044 256.781 228.839 258.996Z" fill="#263238"/>
<path d="M235.3 258.996C235.096 256.781 235.096 254.552 235.3 252.338C235.505 254.552 235.505 256.781 235.3 258.996Z" fill="#263238"/>
<path d="M233.284 258.996C233.072 256.781 233.072 254.552 233.284 252.338C233.488 254.552 233.488 256.781 233.284 258.996Z" fill="#263238"/>
<path d="M239.745 258.996C239.54 256.781 239.54 254.552 239.745 252.338C239.949 254.552 239.949 256.781 239.745 258.996Z" fill="#263238"/>
<path d="M237.722 258.996C237.518 256.781 237.518 254.552 237.722 252.338C237.927 254.552 237.927 256.781 237.722 258.996Z" fill="#263238"/>
<path d="M244.183 258.996C243.979 256.781 243.979 254.552 244.183 252.338C244.388 254.552 244.388 256.781 244.183 258.996Z" fill="#263238"/>
<path d="M242.161 258.996C241.956 256.781 241.956 254.552 242.161 252.338C242.366 254.552 242.366 256.781 242.161 258.996Z" fill="#263238"/>
<path d="M248.622 258.996C248.417 256.781 248.417 254.552 248.622 252.338C248.827 254.552 248.827 256.781 248.622 258.996Z" fill="#263238"/>
<path d="M246.6 258.996C246.395 256.781 246.395 254.552 246.6 252.338C246.805 254.552 246.805 256.781 246.6 258.996Z" fill="#263238"/>
<path d="M253.061 258.996C252.856 256.781 252.856 254.552 253.061 252.338C253.266 254.552 253.266 256.781 253.061 258.996Z" fill="#263238"/>
<path d="M251.044 258.996C250.84 256.781 250.84 254.552 251.044 252.338C251.249 254.552 251.249 256.781 251.044 258.996Z" fill="#263238"/>
<path d="M257.505 258.996C257.3 256.781 257.3 254.552 257.505 252.338C257.71 254.552 257.71 256.781 257.505 258.996Z" fill="#263238"/>
<path d="M255.483 258.996C255.278 256.781 255.278 254.552 255.483 252.338C255.688 254.552 255.688 256.781 255.483 258.996Z" fill="#263238"/>
<path d="M274.077 252.56C274.077 252.648 265.769 252.714 255.516 252.714C245.263 252.714 236.955 252.648 236.955 252.56C236.955 252.473 245.263 252.407 255.516 252.407C265.769 252.407 274.077 252.478 274.077 252.56Z" fill="#263238"/>
<g opacity="0.3">
<path d="M236.32 239.096C241.913 240.38 247.669 240.801 253.39 240.345C259.062 239.967 264.788 239.134 270.471 239.2L236.32 239.096Z" fill="black"/>
</g>
<g opacity="0.3">
<path d="M236.654 232.416C242.247 233.698 248.004 234.117 253.724 233.66C259.396 233.282 265.123 232.449 270.805 232.515L236.654 232.416Z" fill="black"/>
</g>
<g opacity="0.3">
<path d="M238.457 245.825C244.05 247.107 249.807 247.527 255.527 247.069C261.199 246.691 266.926 245.858 272.608 245.93L238.457 245.825Z" fill="black"/>
</g>
<g opacity="0.3">
<path d="M236.994 252.522C242.588 253.799 248.344 254.217 254.064 253.761C259.736 253.388 265.462 252.549 271.145 252.621L236.994 252.522Z" fill="black"/>
</g>
<path d="M236.396 230.114C236.192 228.897 236.192 227.654 236.396 226.437C236.601 227.654 236.601 228.897 236.396 230.114Z" fill="white"/>
<path d="M234.073 237.282C233.868 235.977 233.868 234.647 234.073 233.342C234.278 234.647 234.278 235.977 234.073 237.282Z" fill="white"/>
<path d="M237.361 244.181C237.156 243.025 237.156 241.842 237.361 240.685C237.566 241.842 237.566 243.025 237.361 244.181Z" fill="white"/>
<path d="M233.974 250.549C233.77 249.514 233.77 248.45 233.974 247.415C234.179 248.45 234.179 249.514 233.974 250.549Z" fill="white"/>
<path d="M247.51 232.893C247.51 232.975 244.77 233.046 241.416 233.046C238.062 233.046 235.322 232.975 235.322 232.893C237.35 232.738 239.384 232.686 241.416 232.739C243.449 232.686 245.483 232.738 247.51 232.893Z" fill="white"/>
<path d="M251.456 226.437C249.412 226.592 247.361 226.643 245.312 226.591C243.265 226.644 241.217 226.592 239.175 226.437C239.175 226.355 241.915 226.284 245.312 226.284C248.71 226.284 251.456 226.355 251.456 226.437Z" fill="white"/>
<path d="M243.043 226.209C241.707 226.414 240.347 226.414 239.01 226.209C240.347 226.004 241.707 226.004 243.043 226.209Z" fill="white"/>
<path d="M69.5743 87.2891L85.1485 95.2953L107.775 80.5377L115.371 89.8099L91.2751 108.858L74.2981 108.864L63.7217 93.8651L69.5743 87.2891Z" fill="#455A64"/>
<path d="M74.2926 108.88L63.6998 93.8651L69.5579 87.2891L85.1266 95.2953L107.759 80.5377L115.36 89.8153L91.2477 108.869H74.2597L74.2926 108.88Z" fill="#455A64"/>
<g opacity="0.3">
<path d="M69.5743 87.2891L85.1485 95.2953L108.132 80.0829L115.371 89.8099L91.2751 108.858L74.2981 108.864L63.7217 93.8651L69.5743 87.2891Z" fill="black"/>
</g>
<path d="M152.492 87.6233C150.291 93.0514 146.528 97.704 141.68 100.992C136.833 104.28 131.119 106.055 125.261 106.093C119.404 106.131 113.667 104.43 108.777 101.205C103.888 97.9801 100.065 93.3766 97.7934 87.9775C95.5219 82.5785 94.9037 76.6267 96.0173 70.8761C97.1308 65.1255 99.926 59.8347 104.049 55.6738C108.171 51.5129 113.436 48.6691 119.176 47.5026C124.916 46.336 130.874 46.8993 136.293 49.1209C143.545 52.081 149.325 57.7993 152.363 65.019C155.4 72.2388 155.447 80.3692 152.492 87.6233Z" fill="white"/>
<path d="M145.976 84.9601C144.297 89.0909 141.431 92.6308 137.739 95.1316C134.047 97.6323 129.696 98.9816 125.237 99.0086C120.779 99.0356 116.412 97.739 112.69 95.2831C108.968 92.8272 106.059 89.3222 104.33 85.212C102.601 81.1018 102.131 76.571 102.978 72.1932C103.825 67.8154 105.952 63.7875 109.09 60.6191C112.228 57.4508 116.235 55.2846 120.604 54.3948C124.974 53.5049 129.509 53.9314 133.636 55.6202C139.162 57.8754 143.566 62.233 145.881 67.735C148.195 73.2369 148.229 79.4327 145.976 84.9601Z" fill="white"/>
<path d="M145.976 84.9601C146.001 84.8392 146.034 84.7202 146.075 84.6039L146.393 83.6175C146.464 83.3928 146.552 83.1407 146.64 82.8722C146.727 82.6037 146.782 82.2803 146.859 81.9461C147.062 81.1834 147.208 80.4068 147.297 79.6225C147.601 77.4777 147.577 75.2992 147.226 73.1616C146.433 68.0326 143.882 63.3387 140.009 59.8837C136.136 56.4287 131.182 54.4275 125.996 54.2227C124.936 54.1774 123.875 54.203 122.818 54.2995C122.27 54.3543 121.755 54.4639 121.223 54.5406C120.682 54.6177 120.148 54.7331 119.623 54.8858C117.462 55.4049 115.399 56.2691 113.513 57.445C111.528 58.6414 109.748 60.1494 108.241 61.9112C105.088 65.547 103.217 70.1178 102.915 74.9207C102.753 77.2358 102.966 79.5618 103.545 81.8091C103.823 82.9032 104.172 83.9778 104.592 85.0258C105.039 86.038 105.549 87.0209 106.12 87.9686C106.683 88.8952 107.308 89.7832 107.989 90.6264C108.668 91.4346 109.4 92.1962 110.181 92.9061C114.029 96.388 118.964 98.4282 124.147 98.679C129.33 98.9298 134.44 97.3757 138.606 94.2815C140.352 93.0008 141.895 91.4637 143.182 89.7222C143.667 89.1013 144.107 88.4456 144.497 87.7603C144.678 87.4644 144.853 87.2123 144.99 86.9438L145.335 86.2369L145.812 85.2779C145.862 85.1674 145.92 85.0611 145.987 84.9601C145.95 85.0758 145.907 85.1893 145.856 85.2998C145.746 85.5409 145.604 85.8478 145.423 86.2807L145.094 87.0041C144.963 87.2617 144.793 87.5521 144.617 87.8316C144.24 88.5301 143.809 89.1987 143.33 89.8318C142.055 91.6088 140.516 93.1798 138.765 94.4898C136.2 96.4303 133.252 97.8033 130.116 98.5175C126.981 99.2318 123.729 99.271 120.577 98.6327C116.598 97.8137 112.909 95.9485 109.891 93.2294C108.245 91.7836 106.838 90.0878 105.72 88.2042C105.133 87.2384 104.61 86.2352 104.153 85.2012C103.716 84.1304 103.35 83.032 103.057 81.9132C102.462 79.6201 102.242 77.2458 102.405 74.8823C102.716 69.9792 104.626 65.3132 107.841 61.5988C109.384 59.8029 111.205 58.2655 113.233 57.0449C114.219 56.4481 115.245 55.9189 116.302 55.4612C117.357 55.0411 118.439 54.6932 119.541 54.42C120.08 54.2671 120.63 54.1517 121.185 54.0748C121.733 53.9926 122.281 53.8885 122.829 53.8337C123.906 53.7344 124.988 53.7088 126.068 53.7569C130.125 53.934 134.062 55.19 137.472 57.3957C140.158 59.1536 142.441 61.4624 144.168 64.1691C145.895 66.8758 147.027 69.9186 147.489 73.0959C147.824 75.2567 147.824 77.4562 147.489 79.6171C147.388 80.4064 147.227 81.1869 147.007 81.9515C146.919 82.2858 146.853 82.5982 146.766 82.8777L146.492 83.6175L146.113 84.6258C146.075 84.7402 146.03 84.8519 145.976 84.9601Z" fill="#263238"/>
<g opacity="0.3">
<path d="M145.724 85.1135C145.598 85.0642 145.883 84.1107 146.207 82.3735C146.661 79.9449 146.739 77.4607 146.437 75.0084C146.226 73.3256 145.829 71.6715 145.253 70.0764C144.592 68.2659 143.699 66.549 142.595 64.969C141.386 63.2286 139.928 61.6757 138.266 60.3603C137.392 59.6665 136.465 59.0417 135.493 58.4917C133.491 57.3522 131.319 56.5418 129.06 56.0914C127.965 55.8728 126.854 55.7391 125.739 55.6914C123.62 55.603 121.499 55.8226 119.442 56.3435C117.574 56.8168 115.774 57.5296 114.088 58.4643C112.615 59.2901 111.237 60.2751 109.978 61.4015C108.139 63.0754 106.57 65.0237 105.326 67.1775C104.438 68.6954 104.027 69.6051 103.901 69.5558C103.775 69.5065 104.005 68.531 104.739 66.8706C105.8 64.5178 107.286 62.3812 109.123 60.5686C111.885 57.8387 115.303 55.8648 119.048 54.8365C120.125 54.5343 121.224 54.3181 122.336 54.1899C123.491 54.0429 124.657 53.9897 125.821 54.0309C127.027 54.0714 128.227 54.2088 129.41 54.4419C130.627 54.6866 131.823 55.0237 132.989 55.4503C134.147 55.8894 135.271 56.417 136.348 57.0285C137.395 57.6271 138.392 58.3088 139.329 59.0671C140.237 59.7954 141.083 60.5963 141.861 61.4618C142.61 62.2869 143.296 63.1681 143.911 64.0977C146.064 67.3111 147.354 71.0255 147.653 74.8823C147.866 77.4665 147.598 80.0676 146.864 82.5543C146.322 84.2696 145.845 85.1464 145.724 85.1135Z" fill="black"/>
</g>
<g opacity="0.3">
<path d="M122.391 89.8318L120.955 93.4815L117.667 92.1992L119.064 88.6426C115.908 87.1795 113.206 84.9546 111.94 82.8448L115.294 79.5568C116.655 81.6004 118.525 83.2548 120.719 84.3573L122.856 78.9102C119.568 76.6086 116.006 73.8137 117.837 69.1503C119.196 65.6924 122.873 63.7086 128.249 65.1444L129.673 61.5221L132.934 62.799L131.597 66.3719C133.882 67.4188 135.886 68.9926 137.444 70.9642L134.238 74.3343C133.051 72.8419 131.58 71.5996 129.909 70.6792L127.717 76.2249C131.005 78.4937 134.512 81.2666 132.709 85.8643C131.389 89.2564 127.761 91.2237 122.391 89.8318ZM124.785 74.1316L126.605 69.4955C124.72 69.2106 123.662 69.8901 123.24 70.9642C122.818 72.0382 123.53 73.1123 124.785 74.1316ZM127.312 84.1983C127.761 83.053 127.06 82.0611 125.848 81.0199L124.078 85.5245C125.854 85.8095 126.901 85.2615 127.312 84.1983Z" fill="black"/>
</g>
<path d="M49.649 61.0399L52.0876 85.2615C52.5041 89.3824 53.9563 95.3447 60.4337 94.3912C65.9959 93.1417 66.8836 87.6398 66.4945 83.7983C66.3082 81.9735 66.1548 80.4555 66.1493 80.2692C66.1493 80.2692 72.254 79.0636 72.0841 72.9205C72.0019 69.9503 71.3334 63.8456 70.6648 58.3327C70.3212 55.4745 68.9134 52.8506 66.7217 50.9839C64.53 49.1172 61.7155 48.1448 58.839 48.2605H58.2471C51.8684 48.9126 48.8489 54.6831 49.649 61.0399Z" fill="#FFBE9D"/>
<path d="M66.1493 80.2582C63.3117 80.362 60.5035 79.6529 58.0554 78.2142C58.0554 78.2142 60.1871 82.5982 66.2754 81.82L66.1493 80.2582Z" fill="#EB996E"/>
<path d="M46.2183 61.6719C46.1142 61.8089 45.347 61.3267 44.3222 61.4144C43.2975 61.502 42.596 62.0884 42.47 61.9624C42.344 61.8363 42.5138 61.6719 42.8207 61.4144C43.2313 61.0619 43.7442 60.8506 44.2839 60.8116C44.8182 60.7634 45.3536 60.8924 45.8073 61.1787C46.1471 61.376 46.2731 61.6116 46.2183 61.6719Z" fill="#263238"/>
<path d="M46.4266 64.2092C46.4387 64.4251 46.3657 64.6373 46.2234 64.8001C46.081 64.963 45.8805 65.0636 45.6648 65.0805C45.5595 65.0934 45.4527 65.0851 45.3507 65.0561C45.2486 65.0271 45.1534 64.9779 45.0707 64.9115C44.9879 64.8451 44.9193 64.7628 44.8689 64.6695C44.8185 64.5762 44.7873 64.4737 44.7771 64.3681C44.7664 64.1516 44.8406 63.9394 44.9839 63.7767C45.1271 63.614 45.3282 63.5136 45.5443 63.4968C45.6493 63.4838 45.7558 63.4922 45.8575 63.5212C45.9592 63.5503 46.0541 63.5996 46.1364 63.666C46.2187 63.7325 46.2868 63.8148 46.3366 63.9081C46.3865 64.0014 46.4171 64.1038 46.4266 64.2092Z" fill="#263238"/>
<path d="M63.9025 68.8215C64.3946 68.6465 64.9062 68.5324 65.426 68.4817C65.6671 68.4488 65.8918 68.394 65.9246 68.2242C65.9356 67.9743 65.8685 67.7273 65.7328 67.5172C65.4862 66.9692 65.2232 66.3445 64.9492 65.7088C63.8532 63.1387 63.0531 61.0179 63.1572 60.9741C63.2614 60.9303 64.2532 62.9798 65.3492 65.5554L66.1055 67.3747C66.2682 67.6603 66.3263 67.9936 66.2699 68.3173C66.2372 68.4031 66.1858 68.4806 66.1194 68.5441C66.0531 68.6076 65.9734 68.6555 65.8863 68.6845C65.7549 68.7262 65.6185 68.7502 65.4808 68.7557C64.9599 68.8477 64.4292 68.8698 63.9025 68.8215Z" fill="#263238"/>
<path d="M45.3525 57.8907C45.2758 58.1264 44.4428 58.0496 43.4674 58.2086C42.4919 58.3675 41.7192 58.6798 41.5822 58.4716C41.5165 58.373 41.648 58.1483 41.9549 57.9236C42.3672 57.634 42.8424 57.4462 43.3413 57.3756C43.8388 57.2961 44.3482 57.3374 44.8264 57.4962C45.1936 57.6003 45.3799 57.7756 45.3525 57.8907Z" fill="#263238"/>
<path d="M69.5743 59.0013C69.4867 59.1986 68.6701 59.0835 67.7002 59.1657C66.7302 59.2479 65.9466 59.4561 65.826 59.2753C65.7712 59.1876 65.9082 59.0068 66.2261 58.8205C66.6645 58.5956 67.1437 58.4612 67.6352 58.4255C68.1266 58.3897 68.6202 58.4532 69.0866 58.6122C69.4373 58.7492 69.6127 58.9081 69.5743 59.0013Z" fill="#263238"/>
<path d="M36.0036 65.2449C35.8995 65.201 31.7347 64.1489 32.0361 68.3575C32.3375 72.5662 36.4858 71.3825 36.4858 71.2619C36.4858 71.1414 36.0036 65.2449 36.0036 65.2449Z" fill="#FFBE9D"/>
<path d="M35.072 69.7659C35.072 69.7659 35.0062 69.8262 34.8857 69.8919C34.7157 69.9766 34.5201 69.9942 34.3377 69.9412C33.8828 69.8097 33.4609 69.1302 33.3842 68.3794C33.3473 68.0197 33.3923 67.6563 33.5157 67.3163C33.5459 67.1829 33.608 67.0588 33.6968 66.9548C33.7856 66.8507 33.8983 66.7698 34.0253 66.719C34.1074 66.6901 34.1971 66.6913 34.2785 66.7224C34.3598 66.7535 34.4274 66.8125 34.4692 66.8889C34.535 66.9985 34.513 67.0862 34.535 67.0916C34.5569 67.0971 34.6226 67.0149 34.5733 66.845C34.5449 66.7422 34.4808 66.6528 34.3925 66.593C34.271 66.5141 34.1232 66.4865 33.9815 66.5162C33.8117 66.5618 33.6565 66.6502 33.5308 66.773C33.4051 66.8959 33.3131 67.049 33.2636 67.2177C33.1107 67.5942 33.0524 68.0025 33.0937 68.4068C33.1814 69.2508 33.6746 70.0125 34.2938 70.144C34.4084 70.1671 34.5266 70.1649 34.6403 70.1375C34.7539 70.11 34.8601 70.058 34.9514 69.9851C35.072 69.87 35.1049 69.7768 35.072 69.7659Z" fill="#EB996E"/>
<path d="M63.2449 71.8026C63.2778 71.693 62.4339 71.5395 61.7708 70.8381C61.4939 70.5281 61.2581 70.1837 61.0694 69.8134C60.9159 69.5229 60.8009 69.3421 60.757 69.364C60.7132 69.3859 60.757 69.5832 60.8557 69.912C60.9928 70.3438 61.2229 70.7404 61.5297 71.0738C61.8445 71.4067 62.2443 71.6474 62.686 71.7697C63.0203 71.8574 63.2395 71.841 63.2449 71.8026Z" fill="#263238"/>
<path d="M69.8867 61.3248C69.7771 61.4618 69.0099 60.9741 67.9851 61.0673C66.9604 61.1604 66.2589 61.7413 66.1384 61.6153C66.0178 61.4892 66.1767 61.3248 66.4836 61.0673C66.899 60.7193 67.4121 60.5086 67.9522 60.4645C68.4863 60.42 69.0205 60.5487 69.4757 60.8316C69.81 61.0453 69.936 61.2645 69.8867 61.3248Z" fill="#263238"/>
<path d="M69.3497 64.0155C69.3603 64.232 69.2861 64.4442 69.1429 64.6068C68.9996 64.7695 68.7986 64.87 68.5825 64.8868C68.4772 64.899 68.3705 64.8899 68.2688 64.8602C68.167 64.8305 68.0723 64.7807 67.99 64.7138C67.9078 64.6469 67.8398 64.5642 67.79 64.4707C67.7403 64.3771 67.7097 64.2745 67.7002 64.169C67.6895 63.9539 67.7631 63.7432 67.9054 63.5815C68.0476 63.4198 68.2472 63.32 68.4619 63.3031C68.5673 63.2894 68.6744 63.2971 68.7768 63.3258C68.8791 63.3546 68.9746 63.4037 69.0575 63.4702C69.1404 63.5367 69.2091 63.6193 69.2593 63.713C69.3095 63.8067 69.3402 63.9096 69.3497 64.0155Z" fill="#263238"/>
<path d="M73.9967 49.7565C73.509 49.1244 72.8081 48.6914 72.0246 48.5381C71.2411 48.3848 70.4286 48.5218 69.7387 48.9236C69.8234 47.9318 69.5797 46.9397 69.045 46.1001C68.5103 45.2605 67.7143 44.62 66.7798 44.2773C65.8452 43.9347 64.8239 43.9088 63.8732 44.2038C62.9225 44.4987 62.0952 45.0981 61.5187 45.9096C61.4357 45.6574 61.2999 45.4258 61.1204 45.2302C60.9409 45.0346 60.7217 44.8795 60.4775 44.7752C59.9869 44.5714 59.4575 44.4779 58.9267 44.5012C57.666 44.5035 56.428 44.8367 55.3365 45.4676C54.2449 46.0985 53.3382 47.0049 52.7069 48.0961C51.4775 48.0956 50.2652 48.384 49.1677 48.938C48.0702 49.492 47.1182 50.2961 46.3884 51.2855C44.6732 53.6802 44.8705 58.7547 47.5119 62.8647L48.3284 65.5335C48.9206 65.3891 49.5453 65.4691 50.082 65.7582C50.7012 66.202 51.0629 67.1281 51.9616 66.6569C52.4164 66.4212 52.7398 65.3691 52.8439 64.8649C53.5348 61.5055 53.4955 58.0369 52.7288 54.694C53.325 53.9009 54.0694 53.2309 54.9208 52.7212L54.8605 52.7979C56.5045 52.0143 58.3513 51.2142 60.0556 51.828C61.3762 52.3047 62.2476 53.5213 63.3162 54.4529C64.2887 55.312 65.4253 55.9652 66.6572 56.3731C67.8891 56.7809 69.1909 56.9349 70.484 56.8257C70.769 58.53 70.9005 60.9686 71.18 62.6729L72.3143 59.763C72.4058 59.5536 72.4863 59.3396 72.5555 59.1219L72.5828 59.0561C72.8643 58.6621 73.1259 58.2543 73.3665 57.8341C73.7338 57.2841 73.9437 56.6442 73.9737 55.9836C74.0036 55.3229 73.8524 54.6667 73.5364 54.0857C74.1277 53.5443 74.5009 52.8055 74.5857 52.0082C74.6704 51.211 74.461 50.4102 73.9967 49.7565Z" fill="#263238"/>
<path d="M72.9446 58.0205L72.939 58.0149L72.9446 58.0205Z" fill="#263238"/>
<path d="M71.5087 50.1018C71.5087 50.1018 71.5087 50.1018 71.5471 50.1895C71.5812 50.274 71.6051 50.3623 71.6183 50.4525C71.6715 50.7943 71.6259 51.1441 71.4868 51.4608C71.3916 51.6827 71.2539 51.8838 71.0813 52.0527C70.8784 52.2481 70.6297 52.3894 70.3579 52.4637C70.042 52.55 69.7091 52.5535 69.3914 52.4738C69.0737 52.3942 68.7819 52.234 68.5441 52.0088L68.6372 51.9047C68.8616 52.1065 68.9991 52.3874 69.0208 52.6883C69.0538 53.0848 68.9298 53.4784 68.6756 53.7843C68.4312 54.0669 68.0995 54.2598 67.733 54.3323C67.1308 54.4473 66.5074 54.3505 65.9685 54.0583C65.6091 53.8684 65.2711 53.6406 64.9601 53.3788C64.8421 53.29 64.732 53.191 64.6313 53.0829C64.6313 53.0829 64.7629 53.1706 64.993 53.335C65.3104 53.5765 65.6498 53.7875 66.0068 53.9652C66.5289 54.2374 67.1284 54.3225 67.7056 54.2063C68.0395 54.1386 68.3429 53.9658 68.5715 53.7131C68.8036 53.433 68.9159 53.0726 68.8838 52.7103C68.8648 52.4431 68.7431 52.1936 68.5441 52.0143L68.6427 51.9157C68.8617 52.1273 69.1316 52.2788 69.4264 52.3556C69.7211 52.4324 70.0306 52.4319 70.3251 52.3541C70.5659 52.2926 70.7896 52.1773 70.9794 52.0169C71.1693 51.8565 71.3203 51.6551 71.4211 51.4279C71.5593 51.1283 71.616 50.7975 71.5855 50.4689C71.5471 50.2278 71.4978 50.1073 71.5087 50.1018Z" fill="#455A64"/>
<path d="M65.7657 46.1178C65.798 46.1251 65.8292 46.1361 65.8589 46.1507C65.9471 46.186 66.0315 46.2301 66.111 46.2822C66.4135 46.4626 66.663 46.7197 66.8343 47.0275C66.9606 47.2597 67.029 47.5189 67.0337 47.7831C67.0385 48.0474 66.9795 48.3089 66.8617 48.5455C66.7166 48.8322 66.4647 49.0506 66.1603 49.1537C65.9986 49.2116 65.8268 49.2361 65.6554 49.2257C65.484 49.2153 65.3165 49.1704 65.1629 49.0935C65.068 49.0383 64.9812 48.9701 64.9054 48.8907L65.0204 48.8085C65.0964 48.9523 65.142 49.1102 65.1542 49.2724C65.1665 49.4345 65.1452 49.5975 65.0917 49.7511C64.9976 50.0394 64.8032 50.2845 64.5437 50.4415C64.3325 50.5688 64.0964 50.6489 63.8514 50.6763C63.6064 50.7037 63.3584 50.6779 63.1244 50.6005C62.8145 50.4978 62.5304 50.3295 62.2914 50.1073C62.2 50.032 62.1205 49.9434 62.0558 49.8442C62.0558 49.8442 62.1489 49.9319 62.3243 50.0689C62.5683 50.2684 62.8496 50.4175 63.1518 50.5073C63.3724 50.5735 63.6044 50.5925 63.8329 50.5633C64.0613 50.534 64.2811 50.4571 64.4779 50.3374C64.7043 50.1882 64.8726 49.9657 64.9547 49.7072C65.001 49.5722 65.0191 49.429 65.0078 49.2867C64.9965 49.1443 64.956 49.0058 64.8889 48.8797L64.6094 48.392L64.9985 48.7975C65.0649 48.8661 65.1405 48.9251 65.2232 48.9729C65.3583 49.0424 65.5058 49.0845 65.6572 49.0967C65.8086 49.109 65.961 49.0911 66.1055 49.0442C66.3782 48.9493 66.6038 48.753 66.7357 48.4962C66.8495 48.2779 66.9089 48.0354 66.9089 47.7892C66.9089 47.5431 66.8495 47.3006 66.7357 47.0823C66.5782 46.7918 66.3549 46.5421 66.0836 46.3535C65.8863 46.1836 65.7602 46.1288 65.7657 46.1178Z" fill="#455A64"/>
<path d="M79.3616 237.869L78.9232 258.693L106.323 259.334C106.225 256.857 92.1903 251.563 92.1903 251.563L93.0506 238.241L79.3616 237.869Z" fill="#455A64"/>
<g opacity="0.6">
<path d="M83.7401 250.209C83.4819 250.27 83.2558 250.425 83.1066 250.644C82.9574 250.863 82.896 251.131 82.9346 251.393C83.0111 251.651 83.1796 251.871 83.4079 252.012C83.6362 252.154 83.9085 252.206 84.173 252.16C84.4501 252.101 84.6933 251.936 84.8517 251.701C85.0101 251.466 85.0713 251.179 85.0224 250.9C84.9157 250.636 84.7143 250.422 84.4578 250.3C84.2013 250.177 83.9082 250.155 83.636 250.237" fill="white"/>
</g>
<g opacity="0.6">
<path d="M78.9232 258.676L79.0547 256.577L105.293 257.98C105.293 257.98 106.499 258.528 106.34 259.317L78.9232 258.676Z" fill="white"/>
</g>
<path d="M92.6287 251.426C92.6287 251.552 91.9492 251.59 91.2806 251.974C90.6121 252.358 90.2449 252.884 90.1243 252.834C90.0038 252.785 90.223 252.056 91.0395 251.596C91.856 251.136 92.6561 251.305 92.6287 251.426Z" fill="#263238"/>
<path d="M95.4673 252.615C95.4947 252.736 94.9193 252.939 94.4426 253.465C93.9658 253.991 93.8288 254.561 93.6973 254.561C93.5658 254.561 93.4945 253.837 94.0919 253.196C94.6892 252.555 95.4673 252.495 95.4673 252.615Z" fill="#263238"/>
<path d="M97.0127 255.903C96.8921 255.903 96.7222 255.289 97.0839 254.604C97.4456 253.919 98.0813 253.662 98.1306 253.766C98.1799 253.87 97.7908 254.237 97.5004 254.802C97.2099 255.366 97.1497 255.892 97.0127 255.903Z" fill="#263238"/>
<path d="M92.4643 248.368C92.4095 248.483 91.7957 248.291 91.0395 248.324C90.2833 248.357 89.6859 248.565 89.6202 248.456C89.5544 248.346 90.1353 247.908 91.0231 247.908C91.9108 247.908 92.5355 248.27 92.4643 248.368Z" fill="#263238"/>
<path d="M91.8944 245.277C91.4416 245.378 90.9708 245.365 90.5244 245.239C89.7484 245.082 89.0064 244.789 88.3324 244.373C88.1823 244.29 88.0456 244.185 87.9268 244.061C87.8453 243.97 87.7967 243.854 87.7887 243.731C87.7808 243.609 87.814 243.488 87.883 243.387C87.9542 243.299 88.0444 243.228 88.1469 243.179C88.2494 243.131 88.3615 243.106 88.4748 243.107C88.6495 243.112 88.8227 243.139 88.99 243.19C89.2792 243.264 89.5615 243.363 89.8339 243.486C90.2896 243.689 90.7096 243.965 91.0778 244.302C91.7026 244.85 91.9053 245.349 91.856 245.371C91.8067 245.393 91.4998 245.009 90.8641 244.532C90.4907 244.259 90.0859 244.031 89.6585 243.853C89.3952 243.762 89.1261 243.689 88.853 243.633C88.568 243.557 88.305 243.546 88.2392 243.666C88.1734 243.787 88.2063 243.732 88.2392 243.814C88.3282 243.905 88.4297 243.982 88.5406 244.044C88.7696 244.194 89.0075 244.329 89.253 244.45C89.6755 244.66 90.1156 244.832 90.5682 244.965C91.0174 245.036 91.4607 245.141 91.8944 245.277Z" fill="#263238"/>
<path d="M91.7135 245.458C91.4675 245.086 91.3519 244.643 91.3847 244.198C91.3762 243.717 91.4523 243.239 91.6094 242.784C91.7065 242.513 91.8314 242.252 91.982 242.006C92.062 241.831 92.1867 241.68 92.3435 241.568C92.5003 241.457 92.6837 241.388 92.8753 241.37C92.9922 241.378 93.1047 241.418 93.2012 241.484C93.2976 241.551 93.3743 241.642 93.4233 241.748C93.488 241.9 93.5305 242.061 93.5493 242.225C93.5958 242.514 93.5958 242.808 93.5493 243.096C93.4595 243.584 93.2463 244.041 92.9301 244.423C92.3821 245.08 91.8341 245.217 91.8012 245.173C91.7683 245.13 92.2341 244.877 92.6616 244.242C92.9047 243.88 93.0639 243.468 93.1274 243.036C93.163 242.787 93.163 242.534 93.1274 242.285C93.089 242.011 92.9849 241.787 92.8753 241.809C92.7657 241.831 92.5026 242.006 92.3876 242.225C92.2446 242.445 92.1234 242.678 92.0259 242.921C91.8647 243.334 91.7632 243.767 91.7245 244.209C91.6587 244.965 91.7902 245.442 91.7135 245.458Z" fill="#263238"/>
<path d="M53.7152 229.314L42.5196 244.039L61.864 258.835C63.097 256.994 55.7757 245.825 55.7757 245.825L63.3545 236.707L53.7152 229.314Z" fill="#455A64"/>
<g opacity="0.6">
<path d="M36.0748 240.161C35.8571 240.068 35.6123 240.061 35.3897 240.142C35.1671 240.222 34.9831 240.384 34.8747 240.594C34.7919 240.819 34.7967 241.066 34.888 241.288C34.9794 241.509 35.1507 241.688 35.3679 241.789C35.598 241.887 35.8567 241.894 36.0917 241.808C36.3267 241.723 36.5204 241.551 36.6338 241.328C36.6945 241.084 36.6619 240.825 36.5423 240.603C36.4228 240.381 36.2248 240.212 35.9872 240.128" fill="white"/>
</g>
<g opacity="0.6">
<path d="M42.5196 244.039L43.7087 242.598L61.7927 257.312C61.7927 257.312 62.3791 258.325 61.842 258.824L42.5196 244.039Z" fill="white"/>
</g>
<path d="M41.8343 245.668C41.7631 245.756 41.2863 245.438 40.5739 245.367C39.8615 245.296 39.3519 245.482 39.2916 245.367C39.2313 245.252 39.7684 244.857 40.6013 244.956C41.4343 245.055 41.9165 245.603 41.8343 245.668Z" fill="#263238"/>
<path d="M43.2536 248.014C43.2098 248.112 42.7056 247.954 42.0754 248.085C41.4452 248.217 41.0616 248.545 40.9794 248.469C40.8972 248.392 41.2151 247.844 41.9768 247.696C42.7385 247.548 43.3194 247.926 43.2536 248.014Z" fill="#263238"/>
<path d="M42.6454 251.181C42.5467 251.137 42.755 250.589 43.3742 250.288C43.9934 249.987 44.5853 250.129 44.5634 250.233C44.5414 250.337 44.0756 250.392 43.5715 250.644C43.0673 250.896 42.744 251.247 42.6454 251.181Z" fill="#263238"/>
<path d="M43.292 243.389C43.1934 243.438 42.8536 242.989 42.2946 242.611C41.7357 242.232 41.1986 242.063 41.1986 241.964C41.1986 241.865 41.8508 241.838 42.5084 242.287C43.166 242.737 43.418 243.356 43.292 243.389Z" fill="#263238"/>
<path d="M44.5195 240.873C44.5195 240.912 44.0756 240.682 43.555 240.128C43.2452 239.804 42.9731 239.445 42.744 239.06C42.6166 238.833 42.5031 238.599 42.4042 238.358C42.3379 238.22 42.2936 238.072 42.2727 237.92C42.2595 237.81 42.2845 237.7 42.3435 237.607C42.4024 237.514 42.4916 237.445 42.596 237.41C42.6902 237.388 42.7881 237.387 42.8828 237.407C42.9775 237.427 43.0666 237.467 43.144 237.525C43.268 237.617 43.3787 237.726 43.4728 237.848C43.6422 238.052 43.7926 238.27 43.9222 238.501C44.1426 238.886 44.3016 239.304 44.3935 239.739C44.516 240.122 44.516 240.534 44.3935 240.917C44.3277 240.917 44.3222 240.468 44.114 239.794C43.9886 239.409 43.8175 239.041 43.6044 238.698C43.474 238.492 43.3293 238.297 43.1714 238.111C43.007 237.903 42.8317 237.766 42.7111 237.816C42.5906 237.865 42.6563 237.843 42.6563 237.931C42.6738 238.042 42.7051 238.15 42.7495 238.254C42.9889 238.872 43.3175 239.452 43.7249 239.975C44.2126 240.523 44.5579 240.824 44.5195 240.873Z" fill="#263238"/>
<path d="M58.6253 241.228C58.5814 241.228 58.6253 240.751 59.0472 240.132C59.2922 239.787 59.5965 239.488 59.946 239.249C60.1582 239.105 60.3839 238.983 60.62 238.882C60.7696 238.801 60.9373 238.758 61.1077 238.758C61.2781 238.758 61.4458 238.801 61.5954 238.882C61.6785 238.945 61.7421 239.029 61.779 239.126C61.8159 239.223 61.8244 239.329 61.8037 239.43C61.7723 239.575 61.7187 239.713 61.6448 239.841C61.4783 240.15 61.2488 240.42 60.9713 240.634C60.6938 240.849 60.3743 241.002 60.0337 241.085C59.6413 241.227 59.2091 241.212 58.828 241.041C59.1973 240.987 59.5632 240.912 59.924 240.817C60.2922 240.695 60.6277 240.491 60.905 240.219C61.0621 240.058 61.1933 239.873 61.294 239.671C61.4091 239.458 61.453 239.239 61.3653 239.2C61.2758 239.17 61.181 239.158 61.0867 239.165C60.9925 239.173 60.9008 239.2 60.8173 239.244C60.5996 239.328 60.3905 239.433 60.1926 239.556C59.8428 239.769 59.5285 240.036 59.261 240.345C58.839 240.844 58.713 241.255 58.6253 241.228Z" fill="#263238"/>
<path d="M56.9758 147.092L60.3022 157.921C61.1536 160.699 62.6784 163.223 64.741 165.269C66.8891 167.39 69.4154 169.906 69.8264 170.404L79.9315 203.197L77.597 246.921L95.0125 248.105C95.0125 248.105 101.862 203.454 100.756 196.544C99.6486 189.634 92.6232 143.552 92.6232 143.552L90.7764 140.346L56.9758 147.092Z" fill="#263238"/>
<path d="M71.4814 171.588L69.7168 203.805L46.5529 235.287L61.0749 245.19L92.3163 208.709L92.6232 166.508L71.4814 171.588Z" fill="#263238"/>
<path d="M69.8428 170.415C69.8428 170.415 69.8428 170.465 69.9086 170.563C69.9744 170.662 70.0018 170.832 70.0675 171.018C70.2155 171.434 70.4128 172.026 70.6703 172.772C71.2183 174.328 71.9307 176.553 72.8623 179.315L80.1124 201.437V201.465V201.492C80.0192 203.377 79.9151 205.328 79.811 207.356C79.263 217.982 78.715 227.599 78.3478 234.581C78.145 238.049 77.9861 240.861 77.871 242.833C77.8053 243.787 77.756 244.538 77.7231 245.075C77.7231 245.316 77.6902 245.508 77.6792 245.656C77.6749 245.722 77.6657 245.788 77.6518 245.853C77.6422 245.787 77.6422 245.721 77.6518 245.656C77.6518 245.508 77.6518 245.31 77.6518 245.069C77.6518 244.521 77.7012 243.781 77.7395 242.822C77.8327 240.855 77.9587 238.038 78.1177 234.57C78.4684 227.583 78.9561 217.965 79.4876 207.339C79.5918 205.328 79.6959 203.361 79.7945 201.476V201.536C76.9449 192.73 74.4351 184.959 72.6322 179.37C71.7499 176.597 71.0375 174.366 70.5388 172.794C70.3086 172.037 70.1223 171.44 69.9908 171.018L69.8593 170.558C69.8476 170.511 69.8421 170.463 69.8428 170.415Z" fill="#455A64"/>
<path d="M51.3972 82.8777C51.3972 82.8777 45.676 91.8375 46.783 99.2684C47.342 103.033 57.069 141.157 57.069 141.157L56.9594 154.266L94.2672 146.561L90.5134 133.266L79.4328 94.0514L66.385 83.0695L51.3972 82.8777Z" fill="#455A64"/>
<g opacity="0.3">
<path d="M55.5291 102.102C55.5291 102.102 73.6131 114.996 79.9644 114.837L85.3677 114.99L84.5347 112.059L55.5291 102.102Z" fill="black"/>
</g>
<path d="M44.9908 103.742C44.5585 104.101 44.0881 104.412 43.5879 104.668C41.2222 106.006 38.6525 106.947 35.9817 107.452C35.4431 107.581 34.8914 107.647 34.3377 107.649C34.8775 107.485 35.4264 107.354 35.9817 107.255C37.2812 106.944 38.562 106.56 39.8177 106.104C41.0784 105.629 42.3099 105.08 43.5057 104.46C43.9864 104.192 44.4823 103.952 44.9908 103.742Z" fill="#263238"/>
<path d="M86.2554 119.511C86.2554 119.588 79.0657 121.501 70.1552 123.78C61.2447 126.06 53.9947 127.847 53.9782 127.77C53.9618 127.693 61.168 125.786 70.084 123.506C78.9999 121.227 86.239 119.44 86.2554 119.511Z" fill="#263238"/>
<path d="M91.3244 137.174C91.212 137.211 91.0965 137.239 90.9792 137.256L89.9818 137.442C89.1215 137.612 87.872 137.859 86.3376 138.204C83.2634 138.883 79.0492 139.963 74.4022 141.185C69.7552 142.407 65.5465 143.53 62.4832 144.265C60.9543 144.637 59.7103 144.917 58.8445 145.098L57.8526 145.289C57.7351 145.314 57.6161 145.33 57.4964 145.339C57.6046 145.289 57.7188 145.254 57.8362 145.235L58.8226 144.988L62.4339 144.067L74.331 140.911C78.978 139.689 83.2031 138.637 86.2938 138.006C87.8337 137.689 89.0941 137.458 89.9654 137.332L90.9682 137.201C91.0856 137.178 91.205 137.169 91.3244 137.174Z" fill="#263238"/>
<path d="M118.905 87.9193C119.054 86.8307 119.441 85.7885 120.04 84.8669C121.053 83.2613 123.782 81.4309 123.826 80.176C123.87 78.9211 125.284 79.4581 125.47 80.9597C125.574 81.9187 124.424 84.8505 124.424 84.8505C124.424 84.8505 126.775 84.7409 127.98 83.4586C129.186 82.1762 133.827 79.1403 134.584 79.6883C135.444 80.3075 134.189 80.9816 133.718 81.4803C133.356 81.8584 130.474 84.5546 130.474 84.5546C130.474 84.5546 137.148 82.2968 138.091 82.3626C139.121 82.4338 138.42 83.5353 138.003 83.6777C137.735 83.7709 138.836 84.2257 138.244 85.2286C137.844 85.9136 135.263 87.3548 134.507 87.5905L132.945 88.0892L137.877 87.1521C137.877 87.1521 138.929 87.6562 137.877 88.396C137.417 88.7248 123.629 95.1474 122.533 95.5529C120.637 96.2489 117.891 97.1421 117.891 97.1421L115.436 89.1249L118.905 87.9193Z" fill="#FFBE9D"/>
<path d="M137.976 83.6777C136.778 84.519 135.503 85.2438 134.167 85.8423C132.002 86.9383 130.15 87.5959 130.117 87.4863C130.474 87.2496 130.854 87.0494 131.252 86.889L134.025 85.5409L136.797 84.1709C137.17 83.9612 137.565 83.7957 137.976 83.6777Z" fill="#EB996E"/>
<path d="M51.589 99.8602C51.589 99.8602 75.9805 114.607 87.3405 111.675C98.7005 108.743 121.558 98.4135 121.558 98.4135L116.253 86.067L85.828 97.027C85.828 97.027 64.045 86.8452 59.3706 85.4149C52.5151 83.3051 43.1772 92.3855 51.589 99.8602Z" fill="#455A64"/>
<path d="M67.9906 88.9002L68.3139 89.0098C68.5222 89.092 68.8619 89.2016 69.251 89.3715C70.073 89.6948 71.2786 90.2099 72.8295 90.8839C75.9202 92.2485 80.3809 94.2925 85.8993 96.9119H85.8171L116.226 85.9519L116.363 85.9026L116.417 86.0341L121.733 98.3477L121.793 98.4902L121.651 98.5559L117.223 100.507C112.779 102.447 108.406 104.272 104.159 105.987C99.9116 107.702 95.7797 109.236 91.7738 110.535C90.771 110.842 89.7901 111.176 88.7927 111.439L87.3186 111.845C86.8256 111.962 86.326 112.05 85.8225 112.108C83.8857 112.29 81.933 112.206 80.0192 111.856C76.6025 111.223 73.2551 110.262 70.0237 108.984C65.3437 107.164 60.7858 105.045 56.3785 102.639C54.8167 101.789 53.6385 101.104 52.811 100.633L51.9013 100.085C51.6931 99.9588 51.5945 99.8876 51.5945 99.8876C51.5945 99.8876 51.7095 99.9424 51.9178 100.057L52.8439 100.605C53.6604 101.066 54.866 101.734 56.4388 102.562C60.8638 104.919 65.4279 107.005 70.1059 108.809C73.3211 110.04 76.646 110.963 80.0357 111.565C81.9253 111.901 83.8518 111.979 85.7623 111.796C86.2483 111.745 86.7312 111.668 87.209 111.565L88.6721 111.16C89.6585 110.897 90.6395 110.557 91.6423 110.25C95.6317 108.952 99.7527 107.379 104 105.691C108.247 104.003 112.609 102.167 117.053 100.211L121.475 98.26L121.399 98.4683L116.121 86.1218L116.313 86.2095L85.8719 97.1092H85.828H85.7897C80.3097 94.4624 75.838 92.3855 72.7637 90.9881C71.2238 90.2976 70.0237 89.766 69.2127 89.4208L68.2865 89.0372C68.0947 88.955 67.9906 88.9002 67.9906 88.9002Z" fill="#263238"/>
<path d="M63.645 87.5466C63.4067 87.4725 63.1756 87.3771 62.9545 87.2617C62.5161 87.0699 61.8585 86.7849 61.0858 86.489C60.1558 86.1337 59.189 85.8837 58.2033 85.7437C57.0035 85.5707 55.78 85.6719 54.6249 86.0396C53.4476 86.4003 52.4189 87.1328 51.6931 88.1275C50.7753 89.136 50.0674 90.317 49.6107 91.6018C49.2819 92.5499 49.1942 93.1362 49.1558 93.1307C49.1524 92.9891 49.1653 92.8475 49.1942 92.7088C49.2545 92.3172 49.3443 91.9306 49.4627 91.5525C49.8746 90.2194 50.57 88.9912 51.5013 87.9521C52.2492 86.9049 53.3224 86.1343 54.5537 85.7601C55.7498 85.38 57.0179 85.2824 58.2581 85.4752C59.2615 85.6297 60.2423 85.9057 61.179 86.2972C61.8098 86.5501 62.4263 86.8373 63.0257 87.1576C63.245 87.2656 63.4525 87.3959 63.645 87.5466Z" fill="#263238"/>
<path d="M73.9638 91.9745C73.9273 92.1944 73.8609 92.4082 73.7665 92.6102C73.624 93.0102 73.3993 93.5856 73.1144 94.2925C72.5664 95.7063 71.717 97.6408 70.7251 99.7725C69.7332 101.904 68.7797 103.751 68.0564 105.094C67.6947 105.768 67.3933 106.305 67.1741 106.672C67.0766 106.867 66.9571 107.051 66.8179 107.22C66.8798 107.008 66.9662 106.804 67.0754 106.612C67.2946 106.179 67.5577 105.636 67.8755 104.995C68.555 103.636 69.4811 101.745 70.4675 99.6465C71.4539 97.5476 72.3143 95.6242 72.9281 94.2377L73.6624 92.5937C73.7421 92.3778 73.8431 92.1704 73.9638 91.9745Z" fill="#263238"/>
<path d="M87.8447 111.176C87.7625 111.176 87.2583 108.13 86.7158 104.354C86.1733 100.578 85.7951 97.5038 85.8719 97.4873C85.9486 97.4709 86.4527 100.534 87.0007 104.31C87.5487 108.086 87.9214 111.165 87.8447 111.176Z" fill="#263238"/>
<path d="M106.888 104.699C106.765 104.556 106.665 104.395 106.592 104.222C106.416 103.904 106.175 103.444 105.885 102.869C105.293 101.723 104.504 100.129 103.643 98.3696C102.783 96.6105 101.999 94.9994 101.451 93.8267C101.183 93.2458 100.969 92.7691 100.827 92.4403C100.738 92.2668 100.672 92.0826 100.629 91.8923C100.748 92.0379 100.848 92.1981 100.925 92.369C101.101 92.6869 101.342 93.1472 101.632 93.7226C102.219 94.8679 103.013 96.4626 103.874 98.2272C104.734 99.9917 105.518 101.597 106.038 102.77C106.307 103.351 106.52 103.828 106.663 104.157C106.76 104.328 106.835 104.51 106.888 104.699Z" fill="#263238"/>
<path d="M106.329 226.651L121.125 259.317H128.265L129.284 256.824L130.556 259.317H135.241L134.693 240.252L134.463 228.985L106.329 226.651Z" fill="white"/>
<path opacity="0.3" d="M106.329 226.651L121.125 259.317H128.265L129.284 256.824L130.556 259.317H135.241L134.693 240.252L134.463 228.985L106.329 226.651Z" fill="black"/>
<path d="M171.075 230.153L185.504 259.317H192.644L193.669 257.038L194.935 259.317H199.62L199.078 241.863L198.842 231.55L171.075 230.153Z" fill="white"/>
<path opacity="0.3" d="M171.075 230.153L185.504 259.317H192.644L193.669 257.038L194.935 259.317H199.62L199.078 241.863L198.842 231.55L171.075 230.153Z" fill="black"/>
<path d="M253.138 144.199L253.275 144.243L253.658 144.413C254.14 144.652 254.59 144.952 254.996 145.306C255.752 145.957 256.371 146.752 256.817 147.645C257.263 148.538 257.527 149.511 257.593 150.506C257.678 151.896 257.328 153.277 256.59 154.457C255.749 155.818 254.504 156.881 253.028 157.499C252.221 157.858 251.347 158.044 250.464 158.044C249.58 158.044 248.706 157.858 247.899 157.499C247.032 157.091 246.35 156.371 245.992 155.482C245.796 155.027 245.717 154.531 245.763 154.037C245.809 153.544 245.978 153.071 246.255 152.66C246.55 152.266 246.929 151.941 247.363 151.709C247.798 151.477 248.278 151.343 248.77 151.317C249.725 151.28 250.662 151.589 251.406 152.189C252.097 152.746 252.647 153.457 253.015 154.265C253.382 155.072 253.555 155.955 253.521 156.841C253.472 158.444 252.894 159.985 251.877 161.225C251.426 161.787 250.887 162.274 250.283 162.666C249.718 163.012 249.113 163.284 248.48 163.478C247.386 163.793 246.238 163.878 245.11 163.73C244.262 163.623 243.433 163.396 242.649 163.056C242.156 162.84 241.684 162.577 241.241 162.272L240.907 162.02C240.835 161.965 240.797 161.932 240.802 161.927C241.398 162.329 242.031 162.672 242.693 162.951C243.471 163.272 244.29 163.481 245.126 163.571C246.23 163.699 247.349 163.602 248.414 163.286C249.027 163.092 249.613 162.822 250.157 162.48C250.739 162.098 251.255 161.624 251.686 161.077C252.662 159.873 253.213 158.38 253.253 156.83C253.284 155.986 253.118 155.147 252.767 154.379C252.416 153.611 251.89 152.936 251.231 152.408C250.54 151.849 249.669 151.56 248.781 151.597C248.332 151.621 247.893 151.743 247.496 151.954C247.098 152.165 246.752 152.46 246.48 152.819C246.232 153.192 246.082 153.621 246.042 154.067C246.001 154.512 246.073 154.961 246.25 155.373C246.581 156.195 247.212 156.863 248.014 157.241C248.79 157.586 249.631 157.764 250.48 157.764C251.33 157.764 252.17 157.586 252.946 157.241C254.375 156.649 255.584 155.626 256.404 154.315C257.133 153.173 257.484 151.831 257.407 150.479C257.348 149.369 257.037 148.288 256.497 147.317C256.092 146.579 255.566 145.914 254.941 145.35C254.393 144.889 253.787 144.502 253.138 144.199Z" fill="white"/>
<path d="M246.074 173.753C248.222 222.223 207.588 246.406 161.589 246.406C115.59 246.406 78.293 214.913 78.293 176.065C78.293 137.217 115.584 105.724 161.589 105.724C207.594 105.724 244.353 134.943 246.074 173.753Z" fill="white"/>
<path opacity="0.3" d="M155.786 123.073C155.786 123.073 161.309 121.32 166.477 127.162C171.645 133.003 178.835 142.955 178.835 142.955C178.188 146.194 176.297 148.72 172.631 150.221L155.786 123.073Z" fill="black"/>
<path d="M106.827 226.459C122.577 226.459 135.345 216.675 135.345 204.605C135.345 192.535 122.577 182.751 106.827 182.751C91.0773 182.751 78.3094 192.535 78.3094 204.605C78.3094 216.675 91.0773 226.459 106.827 226.459Z" fill="white"/>
<path d="M133.422 146.183C133.422 146.183 150.136 120.251 157.791 123.063C165.447 125.874 172.631 150.243 172.631 150.243" fill="white"/>
<path d="M114.521 140.237L113.743 133.217C113.743 133.217 103.276 128.833 93.9055 126.701C84.5347 124.57 82.6879 126.701 82.6879 126.701L97.5113 147.476L114.521 140.237Z" fill="white"/>
<path opacity="0.3" d="M136.83 115.369L142.376 118.657C142.376 118.657 169.228 111.533 189.866 118.657L182.298 112.212C182.298 112.212 157.282 106.842 136.83 115.369Z" fill="black"/>
<path opacity="0.3" d="M106.827 226.459C122.577 226.459 135.345 216.675 135.345 204.605C135.345 192.535 122.577 182.751 106.827 182.751C91.0773 182.751 78.3094 192.535 78.3094 204.605C78.3094 216.675 91.0773 226.459 106.827 226.459Z" fill="black"/>
<path d="M99.5773 226.459C114.332 226.459 126.292 216.675 126.292 204.605C126.292 192.535 114.332 182.751 99.5773 182.751C84.823 182.751 72.8623 192.535 72.8623 204.605C72.8623 216.675 84.823 226.459 99.5773 226.459Z" fill="white"/>
<path opacity="0.3" d="M90.3435 194.357H88.2885C87.2776 194.357 86.4582 195.177 86.4582 196.188V213.033C86.4582 214.044 87.2776 214.863 88.2885 214.863H90.3435C91.3544 214.863 92.1738 214.044 92.1738 213.033V196.188C92.1738 195.177 91.3544 194.357 90.3435 194.357Z" fill="black"/>
<path opacity="0.3" d="M105.693 194.357H103.638C102.627 194.357 101.808 195.177 101.808 196.188V213.033C101.808 214.044 102.627 214.863 103.638 214.863H105.693C106.704 214.863 107.523 214.044 107.523 213.033V196.188C107.523 195.177 106.704 194.357 105.693 194.357Z" fill="black"/>
<path opacity="0.3" d="M112.899 140.927C115.305 139.568 116.598 137.541 115.689 134.198C115.689 134.198 103.276 128.844 93.9055 126.701C84.5347 124.559 82.6879 126.701 82.6879 126.701L97.5113 147.476L112.899 140.927Z" fill="black"/>
<path d="M113.743 141.497C113.743 141.497 113.047 141.02 111.874 140.237C106.34 136.549 90.1846 125.989 86.1184 125.874C80.4959 125.715 80.4905 130.559 80.4959 134.313C80.4959 136.971 82.6879 160.069 82.6879 160.069" fill="white"/>
<path d="M172.631 150.243C172.604 150.193 172.584 150.14 172.571 150.084C172.527 149.964 172.472 149.805 172.407 149.608L171.793 147.772C171.245 146.183 170.45 143.887 169.349 141.092C168.086 137.812 166.621 134.613 164.965 131.513C163.998 129.681 162.862 127.944 161.573 126.323C160.902 125.466 160.123 124.699 159.255 124.043C158.405 123.327 157.317 122.958 156.208 123.008C155.1 123.147 154.036 123.521 153.084 124.104C152.137 124.647 151.235 125.267 150.388 125.956C148.789 127.274 147.28 128.699 145.872 130.219C143.483 132.798 141.226 135.496 139.11 138.302C137.285 140.692 135.882 142.686 134.918 144.051L133.822 145.64L133.537 146.051C133.506 146.101 133.469 146.147 133.427 146.188L133.509 146.035L133.778 145.607C134.014 145.235 134.37 144.687 134.836 143.991C135.773 142.593 137.154 140.588 138.957 138.182C141.057 135.351 143.305 132.633 145.692 130.039C147.101 128.503 148.615 127.067 150.223 125.742C151.084 125.039 152.001 124.407 152.963 123.852C153.955 123.261 155.061 122.888 156.208 122.756C156.798 122.699 157.393 122.784 157.945 123.002C158.477 123.22 158.979 123.504 159.441 123.846C160.327 124.519 161.125 125.301 161.814 126.175C163.108 127.814 164.247 129.57 165.217 131.42C166.866 134.535 168.316 137.753 169.557 141.053C170.653 143.859 171.404 146.166 171.913 147.772C172.171 148.572 172.357 149.197 172.461 149.624C172.516 149.821 172.56 149.986 172.598 150.106C172.614 150.151 172.625 150.197 172.631 150.243Z" fill="#263238"/>
<path d="M182.298 112.218L182.435 112.316L182.819 112.629L184.276 113.845L189.603 118.366L189.959 118.668L189.51 118.542C182.346 116.522 174.945 115.466 167.502 115.401C159.084 115.315 150.697 116.443 142.601 118.75H142.568H142.535L138.315 116.278L137.219 115.61L136.94 115.434C136.906 115.416 136.875 115.394 136.847 115.369L136.951 115.412L137.247 115.571L138.381 116.196L142.639 118.602H142.568C146.058 117.569 149.611 116.764 153.205 116.191C155.331 115.84 157.589 115.582 160.016 115.374C162.444 115.166 164.948 115.084 167.518 115.133C171.621 115.173 175.714 115.515 179.766 116.158C183.08 116.686 186.357 117.418 189.581 118.35L189.488 118.525L184.205 113.933L182.78 112.672L182.418 112.338C182.373 112.303 182.333 112.263 182.298 112.218Z" fill="#263238"/>
<g opacity="0.2">
<path d="M151.407 184.236C151.281 185.019 150.476 185.606 149.33 186C147.949 186.431 146.508 186.643 145.061 186.631C143.613 186.668 142.168 186.484 140.776 186.083C139.625 185.715 138.809 185.145 138.666 184.367C138.524 183.589 139.11 182.756 140.255 182.082C141.724 181.329 143.347 180.927 144.997 180.909C146.647 180.891 148.279 181.257 149.763 181.978C150.925 182.636 151.533 183.463 151.407 184.236Z" fill="white"/>
</g>
<path d="M115.513 187.063C115.457 187.039 115.403 187.008 115.354 186.97L114.916 186.674L114.198 186.192C113.908 186.017 113.562 185.836 113.173 185.617C110.962 184.455 108.582 183.647 106.12 183.222C104.421 182.933 102.703 182.772 100.98 182.74C99.0009 182.728 97.0237 182.872 95.0673 183.173C90.5717 183.835 86.2838 185.504 82.5235 188.055C81.5586 188.739 80.643 189.49 79.7835 190.302C78.9449 191.095 78.1682 191.95 77.46 192.861C76.1208 194.585 75.0425 196.496 74.2597 198.533C73.0088 202.029 72.7658 205.806 73.5583 209.433C73.8844 210.815 74.368 212.156 74.9995 213.428C75.4975 214.379 76.0827 215.281 76.7476 216.124L77.5093 217.023L78.1231 217.625L78.4957 217.998C78.5779 218.086 78.6218 218.13 78.6163 218.135C78.5661 218.102 78.5201 218.064 78.4793 218.02L78.0793 217.664L77.4436 217.077L76.6654 216.195C75.9789 215.357 75.3734 214.456 74.857 213.504C74.2059 212.226 73.7057 210.876 73.3665 209.482C72.5313 205.814 72.7556 201.985 74.0131 198.44C74.3952 197.429 74.8532 196.449 75.3831 195.508C75.9284 194.522 76.5495 193.581 77.2408 192.691C77.9575 191.769 78.7414 190.901 79.5863 190.094C80.4637 189.272 81.3976 188.512 82.3811 187.82C86.176 185.242 90.5093 183.564 95.0508 182.915C97.0201 182.616 99.0105 182.479 101.002 182.504C102.737 182.546 104.466 182.718 106.175 183.019C108.646 183.478 111.028 184.331 113.228 185.545C113.612 185.776 113.957 185.967 114.247 186.148L114.949 186.658L115.376 186.976C115.469 187.02 115.519 187.058 115.513 187.063Z" fill="#263238"/>
<path d="M92.0094 196.275C92.0585 196.563 92.0805 196.855 92.0752 197.147C92.0752 197.76 92.1355 198.56 92.1738 199.53C92.2615 201.536 92.4259 204.314 92.4971 207.383C92.4971 208.156 92.4971 208.907 92.4971 209.63C92.5108 210.335 92.4594 211.039 92.3437 211.734C92.2657 212.338 92.0503 212.916 91.714 213.423C91.3777 213.93 90.9294 214.354 90.4038 214.661C90.0346 214.848 89.6229 214.935 89.2095 214.914C88.7962 214.893 88.3955 214.764 88.0474 214.54C87.8623 214.418 87.7038 214.259 87.5816 214.074C87.535 214.014 87.4998 213.945 87.4775 213.872C87.6562 214.095 87.8688 214.289 88.1077 214.447C88.4409 214.636 88.8159 214.738 89.1988 214.745C89.5816 214.751 89.9601 214.662 90.2997 214.485C90.7862 214.181 91.1983 213.772 91.5056 213.287C91.8129 212.802 92.0075 212.255 92.0752 211.685C92.1787 211.005 92.2227 210.318 92.2067 209.63C92.2067 208.907 92.2067 208.156 92.1793 207.394C92.1081 204.325 91.9711 201.547 91.9382 199.536C91.9382 198.528 91.9382 197.711 91.9382 197.147C91.9414 196.855 91.9652 196.564 92.0094 196.275Z" fill="#263238"/>
<path d="M107.162 196.275C107.203 196.564 107.223 196.855 107.222 197.147C107.222 197.76 107.282 198.56 107.321 199.53C107.408 201.536 107.573 204.314 107.649 207.383C107.649 208.156 107.649 208.907 107.649 209.63C107.658 210.335 107.605 211.039 107.49 211.734C107.413 212.338 107.198 212.916 106.862 213.424C106.525 213.931 106.077 214.354 105.551 214.661C105.181 214.847 104.77 214.934 104.356 214.913C103.943 214.892 103.542 214.764 103.194 214.54C103.011 214.416 102.853 214.258 102.728 214.074C102.646 213.948 102.619 213.872 102.63 213.872C102.806 214.096 103.017 214.29 103.254 214.447C103.588 214.636 103.963 214.738 104.346 214.745C104.728 214.751 105.107 214.662 105.446 214.485C105.933 214.181 106.345 213.772 106.652 213.287C106.96 212.802 107.154 212.255 107.222 211.685C107.327 211.005 107.373 210.318 107.359 209.63C107.359 208.907 107.359 208.156 107.332 207.394C107.255 204.325 107.123 201.547 107.09 199.536C107.09 198.528 107.09 197.711 107.09 197.147C107.087 196.855 107.11 196.563 107.162 196.275Z" fill="#263238"/>
<path d="M125.974 209.367C125.944 209.496 125.904 209.622 125.854 209.745C125.761 209.986 125.657 210.353 125.448 210.797C124.906 212.078 124.236 213.301 123.448 214.447C122.281 216.15 120.918 217.709 119.388 219.094C118.481 219.91 117.526 220.669 116.527 221.368C115.448 222.107 114.32 222.771 113.151 223.357C110.895 224.513 108.501 225.379 106.027 225.933C104.008 226.361 101.948 226.569 99.8842 226.552C98.1306 226.552 96.7113 226.443 95.7358 226.377L94.6069 226.284C94.4758 226.281 94.3454 226.265 94.2179 226.234C94.349 226.221 94.4812 226.221 94.6124 226.234L95.7413 226.267C96.7167 226.306 98.1361 226.371 99.8842 226.355C101.932 226.345 103.972 226.119 105.972 225.681C108.413 225.116 110.774 224.253 113.003 223.111C114.162 222.531 115.281 221.874 116.352 221.144C117.341 220.452 118.29 219.706 119.196 218.908C120.721 217.543 122.087 216.01 123.267 214.337C124.067 213.207 124.764 212.008 125.35 210.753C125.569 210.321 125.689 209.959 125.805 209.723C125.847 209.598 125.904 209.479 125.974 209.367Z" fill="#263238"/>
<path d="M91.6806 195.667C91.5689 195.475 91.4425 195.292 91.3025 195.119C91.1029 194.901 90.8611 194.725 90.5917 194.603C90.3224 194.48 90.031 194.413 89.7352 194.407C89.2988 194.403 88.8668 194.494 88.4687 194.673C88.0706 194.852 87.7157 195.114 87.4281 195.442C87.0826 195.824 86.8411 196.288 86.7267 196.79C86.604 197.339 86.5488 197.9 86.5623 198.462C86.5623 200.818 86.5897 202.961 86.5623 204.49C86.5623 205.213 86.5623 205.827 86.5623 206.32C86.5697 206.544 86.555 206.768 86.5185 206.989C86.4692 206.769 86.4471 206.545 86.4527 206.32C86.4527 205.827 86.4143 205.224 86.3869 204.49C86.3486 202.944 86.3047 200.807 86.2883 198.462C86.2744 197.876 86.3333 197.291 86.4637 196.719C86.5985 196.176 86.8659 195.676 87.2418 195.262C87.5586 194.911 87.9488 194.635 88.3846 194.454C88.8203 194.272 89.2909 194.188 89.7626 194.209C90.0802 194.225 90.3909 194.308 90.6742 194.453C90.9575 194.597 91.2071 194.8 91.4066 195.048C91.5104 195.182 91.5952 195.329 91.6587 195.486C91.6751 195.601 91.6916 195.662 91.6806 195.667Z" fill="white"/>
<path d="M101.72 196.927C101.797 196.927 101.862 199.815 101.862 203.377C101.862 206.939 101.797 209.833 101.72 209.833C101.643 209.833 101.578 206.945 101.578 203.377C101.578 199.81 101.643 196.927 101.72 196.927Z" fill="white"/>
<path d="M97.1223 184.488C97.0126 184.512 96.9001 184.521 96.788 184.515C96.5633 184.515 96.24 184.515 95.8235 184.515C94.6431 184.559 93.4674 184.687 92.3053 184.899C87.8828 185.722 83.7932 187.809 80.5306 190.906C77.268 194.003 74.972 197.979 73.9199 202.353C73.8103 202.753 73.761 203.076 73.7062 203.29C73.6871 203.401 73.6558 203.509 73.6131 203.613C73.6093 203.501 73.6204 203.388 73.6459 203.279C73.6843 203.06 73.7172 202.731 73.8103 202.325C74.0497 201.161 74.387 200.019 74.8187 198.911C76.2272 195.221 78.5811 191.965 81.6445 189.471C84.7078 186.977 88.373 185.332 92.2725 184.702C93.4438 184.503 94.6299 184.404 95.818 184.406C96.24 184.406 96.5688 184.433 96.788 184.439C96.9007 184.444 97.0126 184.461 97.1223 184.488Z" fill="white"/>
<path d="M82.7921 156.573C82.7745 156.681 82.7413 156.786 82.6934 156.885L82.3537 157.751C82.2002 158.124 82.0194 158.584 81.8057 159.126C81.5919 159.669 81.3727 160.277 81.1645 160.968C80.9563 161.658 80.6932 162.403 80.474 163.225C80.2548 164.047 80.0301 164.924 79.8055 165.85C78.8898 169.889 78.4593 174.023 78.5231 178.164C78.556 179.117 78.567 180.027 78.6382 180.871C78.7095 181.715 78.7643 182.515 78.8465 183.222C78.9287 183.929 79.0163 184.586 79.0931 185.156C79.1698 185.726 79.252 186.214 79.3232 186.609C79.3945 187.003 79.4383 187.288 79.4767 187.529C79.5023 187.635 79.5134 187.744 79.5095 187.853C79.4682 187.752 79.4388 187.647 79.4219 187.54L79.2136 186.631C79.1259 186.236 79.0218 185.748 78.9341 185.184C78.8465 184.619 78.7204 183.967 78.6437 183.249C78.567 182.531 78.4574 181.742 78.4026 180.887C78.3478 180.033 78.2985 179.128 78.2601 178.147C78.178 173.999 78.6199 169.856 79.5753 165.817C79.8109 164.886 80.0192 164.004 80.2767 163.187C80.5343 162.371 80.759 161.614 81.0001 160.929C81.2412 160.244 81.4769 159.636 81.6796 159.099C81.8824 158.562 82.0851 158.102 82.2276 157.734C82.3701 157.367 82.5126 157.11 82.6167 156.891C82.6613 156.777 82.7202 156.671 82.7921 156.573Z" fill="white"/>
<path d="M83.6141 128.077C83.6141 128.077 83.3894 128.373 83.0661 128.948C82.6162 129.768 82.3069 130.657 82.1509 131.578C81.9253 132.95 81.8117 134.337 81.8111 135.727C81.7673 137.3 81.7618 139.015 81.8111 140.845C81.8988 144.478 82.1893 147.761 82.4633 150.123C82.6112 151.274 82.7263 152.216 82.814 152.923L82.9126 153.685C82.92 153.774 82.92 153.864 82.9126 153.953C82.874 153.872 82.8499 153.785 82.8414 153.696C82.7975 153.487 82.7482 153.241 82.6879 152.939C82.5674 152.287 82.4139 151.334 82.2495 150.15C81.83 147.061 81.5831 143.951 81.5097 140.834C81.4659 139.015 81.5097 137.278 81.5097 135.699C81.5193 134.296 81.655 132.897 81.9153 131.518C82.0923 130.582 82.4357 129.686 82.9291 128.871C83.0659 128.653 83.2198 128.446 83.3894 128.252C83.5373 128.137 83.6031 128.071 83.6141 128.077Z" fill="white"/>
<path d="M136.956 110.908C136.842 110.962 136.725 111.009 136.606 111.05L135.586 111.412L131.833 112.7C127.693 114.082 123.628 115.681 119.656 117.489C115.687 119.306 111.941 121.575 108.493 124.252C107.184 125.293 106.175 126.197 105.496 126.844C105.15 127.156 104.898 127.419 104.718 127.589C104.632 127.682 104.537 127.765 104.433 127.836C104.505 127.734 104.585 127.638 104.674 127.551C104.844 127.37 105.085 127.09 105.419 126.762C106.355 125.822 107.339 124.931 108.367 124.093C111.797 121.357 115.549 119.052 119.541 117.232C123.521 115.416 127.605 113.838 131.772 112.508C133.367 111.987 134.66 111.576 135.559 111.302L136.595 110.996C136.712 110.953 136.833 110.924 136.956 110.908Z" fill="white"/>
<path d="M156.027 124.493C156.027 124.493 155.95 124.57 155.78 124.69L155.051 125.205C154.416 125.644 153.506 126.301 152.399 127.134C151.292 127.967 150.01 129.003 148.629 130.197C147.248 131.392 145.785 132.784 144.316 134.297C142.847 135.809 141.532 137.343 140.376 138.763C139.22 140.182 138.244 141.503 137.455 142.648C136.666 143.793 136.041 144.714 135.63 145.388L135.143 146.133C135.089 146.223 135.027 146.308 134.956 146.385C134.988 146.286 135.034 146.192 135.093 146.106C135.208 145.898 135.356 145.64 135.537 145.328C135.921 144.654 136.518 143.684 137.291 142.549C138.063 141.415 139.033 140.056 140.173 138.615C141.313 137.174 142.645 135.65 144.108 134.116C145.571 132.581 147.067 131.217 148.453 130.017C149.84 128.817 151.155 127.825 152.289 126.986C153.424 126.148 154.344 125.539 155.002 125.128L155.764 124.657C155.846 124.594 155.934 124.539 156.027 124.493Z" fill="white"/>
<path d="M240.485 162.617C240.753 163.054 240.972 163.519 241.137 164.004C242.036 166.293 242.644 168.686 242.945 171.128C243.03 171.631 243.06 172.142 243.033 172.651C242.896 172.161 242.799 171.661 242.742 171.155C242.583 170.234 242.342 168.963 241.992 167.577C241.641 166.19 241.246 164.952 240.945 164.064C240.755 163.594 240.601 163.11 240.485 162.617Z" fill="white"/>
<path d="M227.376 225.434C227.376 225.434 227.283 225.511 227.102 225.643L226.297 226.191L224.982 227.117L224.143 227.741L223.162 228.377C219.265 230.947 215.207 233.264 211.013 235.315C209.687 235.961 208.273 236.608 206.81 237.277L204.536 238.241L203.385 238.701L202.179 239.162L199.702 240.11L197.116 241.003C196.245 241.321 195.346 241.589 194.431 241.869C193.515 242.148 192.606 242.455 191.658 242.696C187.723 243.809 183.732 244.707 179.7 245.387C175.374 246.141 171.002 246.612 166.614 246.795C162.226 246.986 157.83 246.848 153.462 246.384L151.878 246.231C151.358 246.176 150.837 246.089 150.322 246.017L147.248 245.584L144.261 245.036L142.798 244.757L141.357 244.428C134.586 242.945 127.978 240.797 121.629 238.016C117.345 236.171 113.223 233.971 109.304 231.44C107.89 230.575 106.888 229.796 106.17 229.281L105.375 228.695C105.194 228.563 105.107 228.487 105.107 228.487L105.392 228.673L106.208 229.221C106.931 229.703 107.945 230.487 109.365 231.336C113.298 233.835 117.427 236.012 121.711 237.847C128.051 240.589 134.641 242.71 141.39 244.181L142.825 244.505L144.289 244.779L147.27 245.327L150.333 245.754C150.848 245.825 151.369 245.913 151.889 245.962L153.468 246.116C157.824 246.578 162.21 246.714 166.587 246.521C170.962 246.341 175.32 245.874 179.635 245.124C183.657 244.446 187.641 243.555 191.57 242.455C192.518 242.214 193.428 241.907 194.343 241.633C195.258 241.359 196.146 241.085 197.017 240.778L199.604 239.891L202.075 238.954L203.281 238.493L204.448 238.006L206.722 237.052C208.185 236.389 209.599 235.753 210.925 235.112C215.123 233.087 219.193 230.809 223.113 228.289C223.456 228.063 223.785 227.855 224.099 227.665L224.949 227.084L226.275 226.185L227.097 225.637L227.376 225.434Z" fill="#263238"/>
<path d="M203.769 231.303L214.783 259.465H222.313L223.951 257.016L225.886 259.465H228.544L229.535 214.831L203.769 231.303Z" fill="white"/>
<path d="M134.584 235.266L143.9 259.465H152.459L154.207 256.665L155.895 259.465H158.016C158.016 259.465 158.948 232.164 158.016 231.391C157.084 230.618 134.584 235.266 134.584 235.266Z" fill="white"/>
<path d="M243.329 181.161C243.336 181.216 243.336 181.271 243.329 181.326C243.329 181.446 243.329 181.6 243.29 181.797C243.246 182.23 243.192 182.833 243.12 183.6C243.082 183.995 243.038 184.433 242.989 184.904C242.94 185.376 242.83 185.896 242.742 186.45C242.545 187.546 242.386 188.817 242.03 190.182C241.871 190.872 241.701 191.59 241.526 192.341C241.35 193.091 241.087 193.848 240.857 194.642C240.419 196.242 239.761 197.897 239.126 199.646C236.149 207.194 231.789 214.121 226.269 220.069C224.965 221.407 223.76 222.705 222.499 223.79C221.885 224.338 221.31 224.886 220.713 225.391L218.992 226.782C217.896 227.692 216.838 228.383 215.929 229.035C215.468 229.358 215.046 229.665 214.646 229.928L213.523 230.608L211.972 231.539L211.561 231.775L211.419 231.851C211.419 231.851 211.457 231.813 211.545 231.753L211.939 231.49L213.468 230.514L214.564 229.813C214.964 229.544 215.375 229.232 215.83 228.909C216.729 228.24 217.792 227.539 218.86 226.624L220.565 225.226C221.157 224.738 221.721 224.174 222.335 223.621C223.579 222.525 224.779 221.231 226.067 219.894C231.542 213.949 235.884 207.053 238.879 199.547C239.526 197.81 240.178 196.166 240.622 194.571C240.857 193.782 241.12 193.026 241.307 192.28C241.493 191.535 241.663 190.823 241.855 190.138C242.227 188.779 242.403 187.518 242.605 186.422C242.704 185.874 242.808 185.359 242.879 184.888C242.951 184.417 242.983 183.984 243.033 183.589C243.126 182.822 243.203 182.219 243.252 181.792C243.279 181.6 243.301 181.446 243.318 181.32C243.315 181.267 243.319 181.214 243.329 181.161Z" fill="white"/>
<g opacity="0.2">
<path d="M231.415 157.422C228.916 151.224 223.464 145.366 217.167 142.818C215.967 142.343 214.671 142.159 213.387 142.283C212.102 142.407 210.865 142.835 209.778 143.53C208.691 144.226 207.785 145.17 207.135 146.285C206.484 147.4 206.108 148.653 206.037 149.942C206.04 149.982 206.04 150.022 206.037 150.062C205.84 154.03 207.402 157.877 209.325 161.362C211.249 164.848 213.523 168.146 215.008 171.829C217.456 177.974 217.534 184.809 215.227 191.009C213.759 194.911 211.325 199.07 213.528 202.955C214.975 205.509 217.885 206.764 220.806 206.501C226.401 205.991 229.305 200.939 231.958 196.347C234.089 192.653 235.848 186.91 235.947 182.575C236.243 173.964 234.698 165.389 231.415 157.422Z" fill="white"/>
</g>
<path d="M146.601 174.925C146.398 174.98 146.053 174.164 145.538 172.98C145.242 172.322 144.84 171.716 144.349 171.188C143.822 170.596 143.084 170.234 142.294 170.18C141.488 170.19 140.711 170.485 140.102 171.013C139.569 171.472 139.129 172.03 138.809 172.657C138.261 173.791 138.014 174.629 137.8 174.591C137.587 174.553 137.472 173.692 137.872 172.278C138.123 171.425 138.584 170.649 139.214 170.021C139.622 169.612 140.106 169.288 140.639 169.067C141.173 168.846 141.744 168.732 142.321 168.733C142.942 168.751 143.549 168.924 144.086 169.237C144.558 169.512 144.977 169.868 145.324 170.289C145.875 170.972 146.269 171.767 146.481 172.618C146.82 174.037 146.777 174.876 146.601 174.925Z" fill="#263238"/>
<path d="M104.981 171.577C104.981 172.356 104.75 173.118 104.317 173.766C103.884 174.414 103.268 174.919 102.548 175.217C101.828 175.515 101.036 175.593 100.272 175.441C99.5075 175.289 98.8054 174.914 98.2544 174.363C97.7033 173.812 97.3281 173.11 97.1761 172.346C97.024 171.581 97.1021 170.789 97.4003 170.069C97.6985 169.349 98.2035 168.734 98.8515 168.301C99.4994 167.868 100.261 167.637 101.04 167.637C102.085 167.637 103.088 168.052 103.827 168.791C104.565 169.53 104.981 170.532 104.981 171.577Z" fill="#263238"/>
<path d="M230.122 138.62C230.022 138.532 229.932 138.432 229.853 138.324L229.141 137.442C228.823 137.053 228.439 136.582 227.968 136.056C227.497 135.53 226.987 134.899 226.374 134.253C225.76 133.606 225.113 132.872 224.373 132.132C223.634 131.392 222.833 130.603 221.99 129.786C220.263 128.181 218.307 126.498 216.159 124.816C214.011 123.134 211.862 121.698 209.873 120.432C208.865 119.818 207.917 119.221 207.002 118.717C206.087 118.213 205.232 117.73 204.443 117.319C203.653 116.908 202.93 116.552 202.294 116.223C201.659 115.895 201.111 115.648 200.65 115.445L199.609 114.958C199.484 114.907 199.364 114.843 199.253 114.766C199.382 114.802 199.509 114.847 199.631 114.903L200.694 115.341C201.155 115.533 201.719 115.774 202.338 116.081C202.957 116.388 203.719 116.711 204.53 117.128C205.341 117.544 206.174 117.977 207.111 118.503C208.048 119.029 208.991 119.599 210.005 120.196C212.01 121.451 214.164 122.909 216.329 124.58C218.493 126.252 220.444 127.962 222.165 129.584C223.009 130.411 223.809 131.189 224.538 131.957C225.267 132.724 225.93 133.436 226.521 134.105C227.113 134.773 227.618 135.398 228.083 135.94C228.549 136.483 228.922 136.965 229.218 137.365L229.914 138.28C229.996 138.385 230.066 138.499 230.122 138.62Z" fill="white"/>
<path d="M188.693 120.914C188.547 120.887 188.404 120.844 188.266 120.788L187.066 120.377C186.518 120.186 185.909 119.966 185.153 119.747C184.397 119.528 183.558 119.232 182.599 118.996L181.103 118.602C180.583 118.465 180.007 118.361 179.459 118.229C178.33 117.961 177.108 117.763 175.826 117.533C173.031 117.101 170.213 116.836 167.387 116.739C164.559 116.671 161.73 116.775 158.915 117.051C157.621 117.204 156.383 117.33 155.243 117.533C154.695 117.632 154.114 117.703 153.599 117.813L152.081 118.12C151.111 118.3 150.251 118.536 149.489 118.722C148.727 118.909 148.075 119.079 147.544 119.237L146.322 119.583C146.18 119.627 146.035 119.661 145.889 119.687C146.021 119.619 146.161 119.565 146.305 119.528L147.511 119.133C148.059 118.958 148.684 118.755 149.445 118.585C150.207 118.415 151.089 118.136 152.037 117.944L153.555 117.615C154.103 117.506 154.651 117.424 155.199 117.325C156.345 117.106 157.583 116.969 158.882 116.81C164.54 116.2 170.256 116.364 175.87 117.298C177.158 117.533 178.385 117.741 179.52 118.021C180.068 118.158 180.616 118.268 181.164 118.41L182.66 118.826C183.619 119.073 184.462 119.374 185.208 119.616C185.953 119.857 186.594 120.087 187.109 120.295L188.293 120.761C188.43 120.801 188.564 120.853 188.693 120.914Z" fill="white"/>
<g style="mix-blend-mode:darken" filter="url(#filter1_b_11_492)">
<path d="M210.454 237.057C210.968 237.305 211.427 237.653 211.803 238.082C212.18 238.51 212.466 239.01 212.646 239.551C212.997 240.638 213.097 241.79 212.937 242.921C212.69 245.113 211.441 247.305 210.103 249.075C208.257 247.464 207.835 244.658 207.709 243.217C207.511 240.948 208.531 236.718 210.449 237.057" fill="#455A64"/>
<path d="M212.257 252.697C212.131 252.07 212.173 251.421 212.379 250.816C212.585 250.21 212.947 249.67 213.43 249.25C213.919 248.843 214.485 248.536 215.093 248.348C215.702 248.16 216.341 248.094 216.975 248.154C217.27 248.151 217.562 248.212 217.831 248.333C218.1 248.454 218.339 248.633 218.532 248.856C218.672 249.093 218.746 249.364 218.746 249.64C218.746 249.915 218.672 250.186 218.532 250.423C218.253 250.902 217.852 251.297 217.37 251.569C215.775 252.571 214.044 253.251 212.235 252.708" fill="#455A64"/>
<path d="M209.895 259.41C209.903 259.264 209.925 259.119 209.961 258.977C210.016 258.665 210.092 258.254 210.18 257.761C210.387 256.407 210.81 255.095 211.435 253.876C212.088 252.659 213.05 251.637 214.224 250.911C214.583 250.7 214.966 250.532 215.364 250.412C215.501 250.363 215.616 250.346 215.688 250.325H215.808C215.278 250.506 214.768 250.741 214.285 251.026C213.163 251.757 212.242 252.758 211.605 253.936C210.989 255.144 210.555 256.437 210.317 257.772C210.208 258.282 210.12 258.698 210.049 258.983C210.008 259.129 209.957 259.272 209.895 259.41Z" fill="#263238"/>
<path d="M209.961 240.345C209.97 240.411 209.97 240.477 209.961 240.543C209.961 240.685 209.961 240.877 209.994 241.091C209.994 241.578 210.049 242.291 210.082 243.168C210.136 244.921 210.18 247.349 210.169 250.029C210.158 252.708 210.092 255.136 210.021 256.89C209.983 257.766 209.95 258.473 209.917 258.967C209.917 259.197 209.917 259.383 209.879 259.515C209.884 259.58 209.884 259.646 209.879 259.712C209.871 259.646 209.871 259.58 209.879 259.515C209.879 259.367 209.879 259.18 209.879 258.967C209.879 258.457 209.879 257.755 209.928 256.89C209.972 255.136 210.021 252.714 210.032 250.034C210.043 247.354 210.032 244.932 209.988 243.179C209.988 242.313 209.988 241.606 209.955 241.096C209.955 240.866 209.955 240.68 209.955 240.548C209.952 240.481 209.954 240.413 209.961 240.345Z" fill="#263238"/>
<path d="M209.068 254.045C208.845 252.718 208.309 251.464 207.505 250.385C206.7 249.306 205.651 248.434 204.443 247.842C203.823 247.546 203.018 247.354 202.514 247.809C202.009 248.264 202.119 249.092 202.366 249.733C202.908 251.055 203.83 252.187 205.015 252.987C206.2 253.786 207.595 254.218 209.024 254.226" fill="#455A64"/>
<path d="M204.739 249.903C204.876 249.945 205.008 250.002 205.133 250.072C205.283 250.143 205.43 250.222 205.571 250.308C205.76 250.416 205.943 250.533 206.119 250.659C206.344 250.81 206.56 250.972 206.766 251.147C207.007 251.341 207.235 251.55 207.451 251.771C207.945 252.268 208.381 252.82 208.75 253.415C209.113 254.025 209.402 254.677 209.61 255.355C209.778 255.909 209.888 256.478 209.939 257.054C209.961 257.274 209.97 257.496 209.966 257.717C209.978 257.885 209.978 258.053 209.966 258.221C209.964 258.363 209.947 258.504 209.917 258.643C209.879 258.643 209.945 258.035 209.835 257.065C209.809 256.801 209.767 256.54 209.709 256.281C209.649 255.983 209.573 255.688 209.479 255.399C209.265 254.736 208.978 254.098 208.624 253.497C208.261 252.906 207.837 252.355 207.358 251.853C207.128 251.629 206.914 251.41 206.689 251.229C206.49 251.054 206.281 250.889 206.065 250.736C205.281 250.209 204.722 249.93 204.739 249.903Z" fill="#263238"/>
<path d="M18.4566 237.602C19.0171 237.714 19.549 237.939 20.0199 238.263C20.4909 238.587 20.8912 239.004 21.1966 239.487C21.8029 240.457 22.1779 241.554 22.2926 242.693C22.5831 244.885 21.9145 247.323 21.0377 249.345C18.8457 248.249 17.7497 245.608 17.2949 244.244C16.5496 242.09 16.5167 237.739 18.4566 237.602Z" fill="#455A64"/>
<path d="M23.9914 252.332C23.7186 251.755 23.6028 251.116 23.6558 250.48C23.7087 249.844 23.9284 249.234 24.2928 248.71C24.6671 248.193 25.1403 247.756 25.685 247.424C26.2297 247.092 26.835 246.871 27.4658 246.775C27.7512 246.7 28.0497 246.688 28.3403 246.74C28.631 246.792 28.9067 246.907 29.1481 247.077C29.3438 247.271 29.4844 247.514 29.5557 247.781C29.6269 248.048 29.6262 248.328 29.5536 248.595C29.3943 249.125 29.0997 249.605 28.6988 249.987C27.3945 251.346 25.8766 252.42 23.9914 252.332Z" fill="#455A64"/>
<path d="M23.3284 259.423C23.2983 259.273 23.2818 259.121 23.279 258.968C23.279 258.651 23.2352 258.234 23.2023 257.735C23.0737 256.372 23.1681 254.997 23.4818 253.664C23.815 252.325 24.4999 251.099 25.4656 250.113C25.7615 249.82 26.0907 249.562 26.4465 249.345C26.5725 249.269 26.6766 249.225 26.7479 249.187C26.8191 249.148 26.852 249.137 26.8575 249.143C26.3848 249.444 25.9457 249.795 25.5478 250.189C24.6195 251.185 23.9612 252.402 23.6352 253.724C23.3297 255.043 23.2226 256.401 23.3174 257.752C23.3174 258.272 23.3448 258.7 23.3448 258.99C23.3519 259.135 23.3464 259.28 23.3284 259.423Z" fill="#263238"/>
<path d="M18.7745 240.912C18.8026 240.972 18.8264 241.034 18.8457 241.098C18.8896 241.235 18.9444 241.416 19.0156 241.646C19.1581 242.117 19.3554 242.802 19.5965 243.646C20.0787 245.334 20.6925 247.674 21.3501 250.277C22.0077 252.88 22.5118 255.253 22.868 256.968C23.0434 257.829 23.1804 258.53 23.2681 259.012C23.3119 259.237 23.3448 259.423 23.3722 259.56C23.377 259.626 23.377 259.692 23.3722 259.757C23.3488 259.695 23.3304 259.631 23.3174 259.566L23.1859 259.018C23.0763 258.519 22.9228 257.829 22.731 256.99C22.3474 255.275 21.8104 252.913 21.1692 250.31C20.5281 247.707 19.9198 245.378 19.465 243.668C19.2458 242.835 19.0649 242.156 18.917 241.663C18.8567 241.438 18.8128 241.252 18.7745 241.115C18.769 241.047 18.769 240.979 18.7745 240.912Z" fill="#263238"/>
<path d="M21.2186 254.398C20.6806 253.165 19.8568 252.077 18.8153 251.225C17.7738 250.373 16.5444 249.782 15.2289 249.499C14.5604 249.362 13.7329 249.373 13.3493 249.937C12.9657 250.502 13.2835 251.28 13.6781 251.839C14.5247 252.99 15.6931 253.864 17.0361 254.352C18.379 254.839 19.8363 254.918 21.224 254.579" fill="#455A64"/>
<path d="M16.0235 251.444C16.1647 251.461 16.3041 251.49 16.44 251.532C16.6029 251.563 16.7639 251.603 16.9222 251.653C17.1376 251.711 17.3497 251.781 17.5579 251.861C17.8101 251.951 18.0571 252.055 18.2977 252.173C18.5776 252.304 18.8502 252.451 19.1142 252.612C20.3344 253.348 21.356 254.371 22.0899 255.593C22.2462 255.859 22.3888 256.134 22.5173 256.415C22.6434 256.678 22.731 256.93 22.8187 257.165C22.8926 257.374 22.9548 257.586 23.005 257.801C23.054 257.961 23.0907 258.124 23.1146 258.289C23.1493 258.429 23.1677 258.572 23.1694 258.716C23.1366 258.716 23.0489 258.119 22.7091 257.204C22.6187 256.953 22.5144 256.708 22.3968 256.469C22.2817 256.212 22.1228 255.921 21.9638 255.669C21.591 255.078 21.1575 254.527 20.6706 254.025C20.1702 253.537 19.6191 253.103 19.0266 252.732C18.7526 252.568 18.4786 252.409 18.232 252.288C17.9951 252.166 17.7518 252.056 17.5031 251.959C16.6154 251.587 16.0126 251.477 16.0235 251.444Z" fill="#263238"/>
</g>
</g>
<defs>
<filter id="filter0_d_11_492" x="-1" y="-1" width="276" height="276" filterUnits="userSpaceOnUse" color-interpolation-filters="sRGB">
<feFlood flood-opacity="0" result="BackgroundImageFix"/>
<feColorMatrix in="SourceAlpha" type="matrix" values="0 0 0 0 0 0 0 0 0 0 0 0 0 0 0 0 0 0 127 0" result="hardAlpha"/>
<feOffset/>
<feGaussianBlur stdDeviation="0.5"/>
<feComposite in2="hardAlpha" operator="out"/>
<feColorMatrix type="matrix" values="0 0 0 0 1 0 0 0 0 1 0 0 0 0 1 0 0 0 1 0"/>
<feBlend mode="normal" in2="BackgroundImageFix" result="effect1_dropShadow_11_492"/>
<feBlend mode="normal" in="SourceGraphic" in2="effect1_dropShadow_11_492" result="shape"/>
</filter>
<filter id="filter1_b_11_492" x="9.17603" y="233.038" width="213.57" height="30.7193" filterUnits="userSpaceOnUse" color-interpolation-filters="sRGB">
<feFlood flood-opacity="0" result="BackgroundImageFix"/>
<feGaussianBlur in="BackgroundImageFix" stdDeviation="2"/>
<feComposite in2="SourceAlpha" operator="in" result="effect1_backgroundBlur_11_492"/>
<feBlend mode="normal" in="SourceGraphic" in2="effect1_backgroundBlur_11_492" result="shape"/>
</filter>
<clipPath id="clip0_11_492">
<rect width="274" height="274" fill="white"/>
</clipPath>
</defs>
</svg>
